%TF.GenerationSoftware,KiCad,Pcbnew,9.0.2*%
%TF.CreationDate,2025-08-05T20:22:49-05:00*%
%TF.ProjectId,led_matrix,6c65645f-6d61-4747-9269-782e6b696361,rev?*%
%TF.SameCoordinates,Original*%
%TF.FileFunction,Profile,NP*%
%FSLAX46Y46*%
G04 Gerber Fmt 4.6, Leading zero omitted, Abs format (unit mm)*
G04 Created by KiCad (PCBNEW 9.0.2) date 2025-08-05 20:22:49*
%MOMM*%
%LPD*%
G01*
G04 APERTURE LIST*
%TA.AperFunction,Profile*%
%ADD10C,0.050000*%
%TD*%
%TA.AperFunction,Profile*%
%ADD11C,0.000000*%
%TD*%
G04 APERTURE END LIST*
D10*
X46990000Y-27940000D02*
X173990000Y-27940000D01*
X44450000Y-30480000D02*
G75*
G02*
X46990000Y-27940000I2540000J0D01*
G01*
X176530000Y-157480000D02*
G75*
G02*
X173990000Y-160020000I-2540000J0D01*
G01*
X173990000Y-27940000D02*
G75*
G02*
X176530000Y-30480000I0J-2540000D01*
G01*
X44450000Y-157480000D02*
X44450000Y-30480000D01*
X46990000Y-160020000D02*
G75*
G02*
X44450000Y-157480000I0J2540000D01*
G01*
X176530000Y-30480000D02*
X176530000Y-157480000D01*
X173990000Y-160020000D02*
X46990000Y-160020000D01*
D11*
%TA.AperFunction,Profile*%
%TO.C,DC1*%
G36*
X49025256Y-132362254D02*
G01*
X49188257Y-132429771D01*
X49334954Y-132527791D01*
X49459709Y-132652546D01*
X49557729Y-132799243D01*
X49625246Y-132962244D01*
X49659666Y-133135285D01*
X49659666Y-133311715D01*
X49625246Y-133484756D01*
X49557729Y-133647757D01*
X49459709Y-133794454D01*
X49334954Y-133919209D01*
X49188257Y-134017229D01*
X49025256Y-134084746D01*
X48852215Y-134119166D01*
X48675785Y-134119166D01*
X48502744Y-134084746D01*
X48339743Y-134017229D01*
X48193046Y-133919209D01*
X48068291Y-133794454D01*
X47970271Y-133647757D01*
X47902754Y-133484756D01*
X47868334Y-133311715D01*
X47868334Y-133135285D01*
X47902754Y-132962244D01*
X47970271Y-132799243D01*
X48068291Y-132652546D01*
X48193046Y-132527791D01*
X48339743Y-132429771D01*
X48502744Y-132362254D01*
X48675785Y-132327834D01*
X48852215Y-132327834D01*
X49025256Y-132362254D01*
G37*
%TD.AperFunction*%
%TA.AperFunction,Profile*%
G36*
X53554285Y-132266560D02*
G01*
X53735397Y-132341579D01*
X53898393Y-132450490D01*
X54037010Y-132589107D01*
X54145921Y-132752103D01*
X54220940Y-132933215D01*
X54259185Y-133125483D01*
X54259185Y-133321517D01*
X54220940Y-133513785D01*
X54145921Y-133694897D01*
X54037010Y-133857893D01*
X53898393Y-133996510D01*
X53735397Y-134105421D01*
X53554285Y-134180440D01*
X53362017Y-134218685D01*
X53165983Y-134218685D01*
X52973715Y-134180440D01*
X52792603Y-134105421D01*
X52629607Y-133996510D01*
X52490990Y-133857893D01*
X52382079Y-133694897D01*
X52307060Y-133513785D01*
X52268815Y-133321517D01*
X52268815Y-133125483D01*
X52307060Y-132933215D01*
X52382079Y-132752103D01*
X52490990Y-132589107D01*
X52629607Y-132450490D01*
X52792603Y-132341579D01*
X52973715Y-132266560D01*
X53165983Y-132228315D01*
X53362017Y-132228315D01*
X53554285Y-132266560D01*
G37*
%TD.AperFunction*%
%TA.AperFunction,Profile*%
%TO.C,USB1*%
G36*
X50573073Y-146580448D02*
G01*
X50663505Y-146632659D01*
X50737341Y-146706495D01*
X50789552Y-146796927D01*
X50816578Y-146897790D01*
X50816578Y-147002210D01*
X50789552Y-147103073D01*
X50737341Y-147193505D01*
X50663505Y-147267341D01*
X50573073Y-147319552D01*
X50472210Y-147346578D01*
X50367790Y-147346578D01*
X50266927Y-147319552D01*
X50176495Y-147267341D01*
X50102659Y-147193505D01*
X50050448Y-147103073D01*
X50023422Y-147002210D01*
X50023422Y-146897790D01*
X50050448Y-146796927D01*
X50102659Y-146706495D01*
X50176495Y-146632659D01*
X50266927Y-146580448D01*
X50367790Y-146553422D01*
X50472210Y-146553422D01*
X50573073Y-146580448D01*
G37*
%TD.AperFunction*%
%TA.AperFunction,Profile*%
G36*
X50573073Y-152360448D02*
G01*
X50663505Y-152412659D01*
X50737341Y-152486495D01*
X50789552Y-152576927D01*
X50816578Y-152677790D01*
X50816578Y-152782210D01*
X50789552Y-152883073D01*
X50737341Y-152973505D01*
X50663505Y-153047341D01*
X50573073Y-153099552D01*
X50472210Y-153126578D01*
X50367790Y-153126578D01*
X50266927Y-153099552D01*
X50176495Y-153047341D01*
X50102659Y-152973505D01*
X50050448Y-152883073D01*
X50023422Y-152782210D01*
X50023422Y-152677790D01*
X50050448Y-152576927D01*
X50102659Y-152486495D01*
X50176495Y-152412659D01*
X50266927Y-152360448D01*
X50367790Y-152333422D01*
X50472210Y-152333422D01*
X50573073Y-152360448D01*
G37*
%TD.AperFunction*%
%TD*%
M02*
