%TF.GenerationSoftware,KiCad,Pcbnew,9.0.2*%
%TF.CreationDate,2025-08-05T20:22:49-05:00*%
%TF.ProjectId,led_matrix,6c65645f-6d61-4747-9269-782e6b696361,rev?*%
%TF.SameCoordinates,Original*%
%TF.FileFunction,Legend,Bot*%
%TF.FilePolarity,Positive*%
%FSLAX46Y46*%
G04 Gerber Fmt 4.6, Leading zero omitted, Abs format (unit mm)*
G04 Created by KiCad (PCBNEW 9.0.2) date 2025-08-05 20:22:49*
%MOMM*%
%LPD*%
G01*
G04 APERTURE LIST*
G04 Aperture macros list*
%AMRoundRect*
0 Rectangle with rounded corners*
0 $1 Rounding radius*
0 $2 $3 $4 $5 $6 $7 $8 $9 X,Y pos of 4 corners*
0 Add a 4 corners polygon primitive as box body*
4,1,4,$2,$3,$4,$5,$6,$7,$8,$9,$2,$3,0*
0 Add four circle primitives for the rounded corners*
1,1,$1+$1,$2,$3*
1,1,$1+$1,$4,$5*
1,1,$1+$1,$6,$7*
1,1,$1+$1,$8,$9*
0 Add four rect primitives between the rounded corners*
20,1,$1+$1,$2,$3,$4,$5,0*
20,1,$1+$1,$4,$5,$6,$7,0*
20,1,$1+$1,$6,$7,$8,$9,0*
20,1,$1+$1,$8,$9,$2,$3,0*%
%AMFreePoly0*
4,1,21,2.800000,1.300000,3.200000,1.300000,3.200000,1.000000,2.800000,1.000000,2.800000,-1.000000,3.200000,-1.000000,3.200000,-1.300000,2.800000,-1.300000,2.800000,-1.700000,-2.800000,-1.700000,-2.800000,-1.300000,-3.200000,-1.300000,-3.200000,-1.000000,-2.800000,-1.000000,-2.800000,1.000000,-3.200000,1.000000,-3.200000,1.300000,-2.800000,1.300000,-2.800000,1.700000,2.800000,1.700000,
2.800000,1.300000,2.800000,1.300000,$1*%
G04 Aperture macros list end*
%ADD10C,0.150000*%
%ADD11C,0.254000*%
%ADD12C,0.152400*%
%ADD13C,0.130000*%
%ADD14C,0.100000*%
%ADD15C,0.000000*%
%ADD16C,0.101500*%
%ADD17C,0.120000*%
%ADD18C,0.200000*%
%ADD19C,0.152500*%
%ADD20R,0.600000X0.400000*%
%ADD21R,1.000000X0.250000*%
%ADD22FreePoly0,270.000000*%
%ADD23RoundRect,0.237500X0.237500X-0.250000X0.237500X0.250000X-0.237500X0.250000X-0.237500X-0.250000X0*%
%ADD24R,1.000000X1.800000*%
%ADD25RoundRect,0.237500X0.250000X0.237500X-0.250000X0.237500X-0.250000X-0.237500X0.250000X-0.237500X0*%
%ADD26R,0.800000X0.800000*%
%ADD27RoundRect,0.250000X-0.412500X-0.650000X0.412500X-0.650000X0.412500X0.650000X-0.412500X0.650000X0*%
%ADD28R,2.510000X1.000000*%
%ADD29RoundRect,0.237500X-0.237500X0.250000X-0.237500X-0.250000X0.237500X-0.250000X0.237500X0.250000X0*%
%ADD30RoundRect,0.160000X0.197500X0.160000X-0.197500X0.160000X-0.197500X-0.160000X0.197500X-0.160000X0*%
%ADD31R,4.813300X3.454400*%
%ADD32R,4.889500X3.454400*%
%ADD33RoundRect,0.160000X-0.197500X-0.160000X0.197500X-0.160000X0.197500X0.160000X-0.197500X0.160000X0*%
%ADD34RoundRect,0.250000X0.475000X-0.337500X0.475000X0.337500X-0.475000X0.337500X-0.475000X-0.337500X0*%
%ADD35R,1.000000X2.510000*%
%ADD36RoundRect,0.237500X-0.250000X-0.237500X0.250000X-0.237500X0.250000X0.237500X-0.250000X0.237500X0*%
%ADD37RoundRect,0.155000X0.212500X0.155000X-0.212500X0.155000X-0.212500X-0.155000X0.212500X-0.155000X0*%
%ADD38R,0.800000X1.580000*%
%ADD39R,0.800000X0.400000*%
%ADD40R,0.400000X0.800000*%
%ADD41R,1.450000X1.450000*%
%ADD42R,0.700000X0.700000*%
%ADD43RoundRect,0.237500X-0.300000X-0.237500X0.300000X-0.237500X0.300000X0.237500X-0.300000X0.237500X0*%
%ADD44RoundRect,0.155000X-0.212500X-0.155000X0.212500X-0.155000X0.212500X0.155000X-0.212500X0.155000X0*%
%ADD45RoundRect,0.237500X0.237500X-0.300000X0.237500X0.300000X-0.237500X0.300000X-0.237500X-0.300000X0*%
%ADD46RoundRect,0.250000X0.337500X0.475000X-0.337500X0.475000X-0.337500X-0.475000X0.337500X-0.475000X0*%
%ADD47RoundRect,0.155000X0.155000X-0.212500X0.155000X0.212500X-0.155000X0.212500X-0.155000X-0.212500X0*%
%ADD48R,1.500000X0.600000*%
%ADD49R,2.100000X3.300000*%
%ADD50RoundRect,0.250000X0.650000X-0.412500X0.650000X0.412500X-0.650000X0.412500X-0.650000X-0.412500X0*%
%ADD51R,2.800000X2.800000*%
%ADD52RoundRect,0.155000X-0.155000X0.212500X-0.155000X-0.212500X0.155000X-0.212500X0.155000X0.212500X0*%
%ADD53R,1.879600X2.463800*%
%ADD54R,1.100000X0.600000*%
%ADD55R,1.100000X2.500000*%
%ADD56R,3.600000X2.340000*%
%ADD57R,2.000000X2.000000*%
%ADD58R,1.300000X0.600000*%
%ADD59R,1.300000X0.300000*%
G04 APERTURE END LIST*
D10*
X57367275Y-152575419D02*
X57367275Y-151575419D01*
X57367275Y-151575419D02*
X57129180Y-151575419D01*
X57129180Y-151575419D02*
X56986323Y-151623038D01*
X56986323Y-151623038D02*
X56891085Y-151718276D01*
X56891085Y-151718276D02*
X56843466Y-151813514D01*
X56843466Y-151813514D02*
X56795847Y-152003990D01*
X56795847Y-152003990D02*
X56795847Y-152146847D01*
X56795847Y-152146847D02*
X56843466Y-152337323D01*
X56843466Y-152337323D02*
X56891085Y-152432561D01*
X56891085Y-152432561D02*
X56986323Y-152527800D01*
X56986323Y-152527800D02*
X57129180Y-152575419D01*
X57129180Y-152575419D02*
X57367275Y-152575419D01*
X56414894Y-151670657D02*
X56367275Y-151623038D01*
X56367275Y-151623038D02*
X56272037Y-151575419D01*
X56272037Y-151575419D02*
X56033942Y-151575419D01*
X56033942Y-151575419D02*
X55938704Y-151623038D01*
X55938704Y-151623038D02*
X55891085Y-151670657D01*
X55891085Y-151670657D02*
X55843466Y-151765895D01*
X55843466Y-151765895D02*
X55843466Y-151861133D01*
X55843466Y-151861133D02*
X55891085Y-152003990D01*
X55891085Y-152003990D02*
X56462513Y-152575419D01*
X56462513Y-152575419D02*
X55843466Y-152575419D01*
X54938704Y-151575419D02*
X55414894Y-151575419D01*
X55414894Y-151575419D02*
X55462513Y-152051609D01*
X55462513Y-152051609D02*
X55414894Y-152003990D01*
X55414894Y-152003990D02*
X55319656Y-151956371D01*
X55319656Y-151956371D02*
X55081561Y-151956371D01*
X55081561Y-151956371D02*
X54986323Y-152003990D01*
X54986323Y-152003990D02*
X54938704Y-152051609D01*
X54938704Y-152051609D02*
X54891085Y-152146847D01*
X54891085Y-152146847D02*
X54891085Y-152384942D01*
X54891085Y-152384942D02*
X54938704Y-152480180D01*
X54938704Y-152480180D02*
X54986323Y-152527800D01*
X54986323Y-152527800D02*
X55081561Y-152575419D01*
X55081561Y-152575419D02*
X55319656Y-152575419D01*
X55319656Y-152575419D02*
X55414894Y-152527800D01*
X55414894Y-152527800D02*
X55462513Y-152480180D01*
X54557751Y-151575419D02*
X53891085Y-151575419D01*
X53891085Y-151575419D02*
X54319656Y-152575419D01*
X63850319Y-126407595D02*
X64659842Y-126407595D01*
X64659842Y-126407595D02*
X64755080Y-126455214D01*
X64755080Y-126455214D02*
X64802700Y-126502833D01*
X64802700Y-126502833D02*
X64850319Y-126598071D01*
X64850319Y-126598071D02*
X64850319Y-126788547D01*
X64850319Y-126788547D02*
X64802700Y-126883785D01*
X64802700Y-126883785D02*
X64755080Y-126931404D01*
X64755080Y-126931404D02*
X64659842Y-126979023D01*
X64659842Y-126979023D02*
X63850319Y-126979023D01*
X64183652Y-127883785D02*
X64850319Y-127883785D01*
X63802700Y-127645690D02*
X64516985Y-127407595D01*
X64516985Y-127407595D02*
X64516985Y-128026642D01*
X130502819Y-135120142D02*
X130026628Y-134786809D01*
X130502819Y-134548714D02*
X129502819Y-134548714D01*
X129502819Y-134548714D02*
X129502819Y-134929666D01*
X129502819Y-134929666D02*
X129550438Y-135024904D01*
X129550438Y-135024904D02*
X129598057Y-135072523D01*
X129598057Y-135072523D02*
X129693295Y-135120142D01*
X129693295Y-135120142D02*
X129836152Y-135120142D01*
X129836152Y-135120142D02*
X129931390Y-135072523D01*
X129931390Y-135072523D02*
X129979009Y-135024904D01*
X129979009Y-135024904D02*
X130026628Y-134929666D01*
X130026628Y-134929666D02*
X130026628Y-134548714D01*
X129598057Y-135501095D02*
X129550438Y-135548714D01*
X129550438Y-135548714D02*
X129502819Y-135643952D01*
X129502819Y-135643952D02*
X129502819Y-135882047D01*
X129502819Y-135882047D02*
X129550438Y-135977285D01*
X129550438Y-135977285D02*
X129598057Y-136024904D01*
X129598057Y-136024904D02*
X129693295Y-136072523D01*
X129693295Y-136072523D02*
X129788533Y-136072523D01*
X129788533Y-136072523D02*
X129931390Y-136024904D01*
X129931390Y-136024904D02*
X130502819Y-135453476D01*
X130502819Y-135453476D02*
X130502819Y-136072523D01*
X129502819Y-136691571D02*
X129502819Y-136786809D01*
X129502819Y-136786809D02*
X129550438Y-136882047D01*
X129550438Y-136882047D02*
X129598057Y-136929666D01*
X129598057Y-136929666D02*
X129693295Y-136977285D01*
X129693295Y-136977285D02*
X129883771Y-137024904D01*
X129883771Y-137024904D02*
X130121866Y-137024904D01*
X130121866Y-137024904D02*
X130312342Y-136977285D01*
X130312342Y-136977285D02*
X130407580Y-136929666D01*
X130407580Y-136929666D02*
X130455200Y-136882047D01*
X130455200Y-136882047D02*
X130502819Y-136786809D01*
X130502819Y-136786809D02*
X130502819Y-136691571D01*
X130502819Y-136691571D02*
X130455200Y-136596333D01*
X130455200Y-136596333D02*
X130407580Y-136548714D01*
X130407580Y-136548714D02*
X130312342Y-136501095D01*
X130312342Y-136501095D02*
X130121866Y-136453476D01*
X130121866Y-136453476D02*
X129883771Y-136453476D01*
X129883771Y-136453476D02*
X129693295Y-136501095D01*
X129693295Y-136501095D02*
X129598057Y-136548714D01*
X129598057Y-136548714D02*
X129550438Y-136596333D01*
X129550438Y-136596333D02*
X129502819Y-136691571D01*
X119681523Y-139840619D02*
X119014857Y-140840619D01*
X119014857Y-139840619D02*
X119681523Y-140840619D01*
X118110095Y-140840619D02*
X118681523Y-140840619D01*
X118395809Y-140840619D02*
X118395809Y-139840619D01*
X118395809Y-139840619D02*
X118491047Y-139983476D01*
X118491047Y-139983476D02*
X118586285Y-140078714D01*
X118586285Y-140078714D02*
X118681523Y-140126333D01*
X94064057Y-150264019D02*
X94397390Y-149787828D01*
X94635485Y-150264019D02*
X94635485Y-149264019D01*
X94635485Y-149264019D02*
X94254533Y-149264019D01*
X94254533Y-149264019D02*
X94159295Y-149311638D01*
X94159295Y-149311638D02*
X94111676Y-149359257D01*
X94111676Y-149359257D02*
X94064057Y-149454495D01*
X94064057Y-149454495D02*
X94064057Y-149597352D01*
X94064057Y-149597352D02*
X94111676Y-149692590D01*
X94111676Y-149692590D02*
X94159295Y-149740209D01*
X94159295Y-149740209D02*
X94254533Y-149787828D01*
X94254533Y-149787828D02*
X94635485Y-149787828D01*
X93111676Y-150264019D02*
X93683104Y-150264019D01*
X93397390Y-150264019D02*
X93397390Y-149264019D01*
X93397390Y-149264019D02*
X93492628Y-149406876D01*
X93492628Y-149406876D02*
X93587866Y-149502114D01*
X93587866Y-149502114D02*
X93683104Y-149549733D01*
X92778342Y-149264019D02*
X92159295Y-149264019D01*
X92159295Y-149264019D02*
X92492628Y-149644971D01*
X92492628Y-149644971D02*
X92349771Y-149644971D01*
X92349771Y-149644971D02*
X92254533Y-149692590D01*
X92254533Y-149692590D02*
X92206914Y-149740209D01*
X92206914Y-149740209D02*
X92159295Y-149835447D01*
X92159295Y-149835447D02*
X92159295Y-150073542D01*
X92159295Y-150073542D02*
X92206914Y-150168780D01*
X92206914Y-150168780D02*
X92254533Y-150216400D01*
X92254533Y-150216400D02*
X92349771Y-150264019D01*
X92349771Y-150264019D02*
X92635485Y-150264019D01*
X92635485Y-150264019D02*
X92730723Y-150216400D01*
X92730723Y-150216400D02*
X92778342Y-150168780D01*
X135938419Y-156322652D02*
X135938419Y-155846462D01*
X135938419Y-155846462D02*
X134938419Y-155846462D01*
X135414609Y-156655986D02*
X135414609Y-156989319D01*
X135938419Y-157132176D02*
X135938419Y-156655986D01*
X135938419Y-156655986D02*
X134938419Y-156655986D01*
X134938419Y-156655986D02*
X134938419Y-157132176D01*
X135938419Y-157560748D02*
X134938419Y-157560748D01*
X134938419Y-157560748D02*
X134938419Y-157798843D01*
X134938419Y-157798843D02*
X134986038Y-157941700D01*
X134986038Y-157941700D02*
X135081276Y-158036938D01*
X135081276Y-158036938D02*
X135176514Y-158084557D01*
X135176514Y-158084557D02*
X135366990Y-158132176D01*
X135366990Y-158132176D02*
X135509847Y-158132176D01*
X135509847Y-158132176D02*
X135700323Y-158084557D01*
X135700323Y-158084557D02*
X135795561Y-158036938D01*
X135795561Y-158036938D02*
X135890800Y-157941700D01*
X135890800Y-157941700D02*
X135938419Y-157798843D01*
X135938419Y-157798843D02*
X135938419Y-157560748D01*
X135938419Y-159084557D02*
X135938419Y-158513129D01*
X135938419Y-158798843D02*
X134938419Y-158798843D01*
X134938419Y-158798843D02*
X135081276Y-158703605D01*
X135081276Y-158703605D02*
X135176514Y-158608367D01*
X135176514Y-158608367D02*
X135224133Y-158513129D01*
X63120447Y-141685180D02*
X63168066Y-141732800D01*
X63168066Y-141732800D02*
X63310923Y-141780419D01*
X63310923Y-141780419D02*
X63406161Y-141780419D01*
X63406161Y-141780419D02*
X63549018Y-141732800D01*
X63549018Y-141732800D02*
X63644256Y-141637561D01*
X63644256Y-141637561D02*
X63691875Y-141542323D01*
X63691875Y-141542323D02*
X63739494Y-141351847D01*
X63739494Y-141351847D02*
X63739494Y-141208990D01*
X63739494Y-141208990D02*
X63691875Y-141018514D01*
X63691875Y-141018514D02*
X63644256Y-140923276D01*
X63644256Y-140923276D02*
X63549018Y-140828038D01*
X63549018Y-140828038D02*
X63406161Y-140780419D01*
X63406161Y-140780419D02*
X63310923Y-140780419D01*
X63310923Y-140780419D02*
X63168066Y-140828038D01*
X63168066Y-140828038D02*
X63120447Y-140875657D01*
X62739494Y-140875657D02*
X62691875Y-140828038D01*
X62691875Y-140828038D02*
X62596637Y-140780419D01*
X62596637Y-140780419D02*
X62358542Y-140780419D01*
X62358542Y-140780419D02*
X62263304Y-140828038D01*
X62263304Y-140828038D02*
X62215685Y-140875657D01*
X62215685Y-140875657D02*
X62168066Y-140970895D01*
X62168066Y-140970895D02*
X62168066Y-141066133D01*
X62168066Y-141066133D02*
X62215685Y-141208990D01*
X62215685Y-141208990D02*
X62787113Y-141780419D01*
X62787113Y-141780419D02*
X62168066Y-141780419D01*
X61310923Y-140780419D02*
X61501399Y-140780419D01*
X61501399Y-140780419D02*
X61596637Y-140828038D01*
X61596637Y-140828038D02*
X61644256Y-140875657D01*
X61644256Y-140875657D02*
X61739494Y-141018514D01*
X61739494Y-141018514D02*
X61787113Y-141208990D01*
X61787113Y-141208990D02*
X61787113Y-141589942D01*
X61787113Y-141589942D02*
X61739494Y-141685180D01*
X61739494Y-141685180D02*
X61691875Y-141732800D01*
X61691875Y-141732800D02*
X61596637Y-141780419D01*
X61596637Y-141780419D02*
X61406161Y-141780419D01*
X61406161Y-141780419D02*
X61310923Y-141732800D01*
X61310923Y-141732800D02*
X61263304Y-141685180D01*
X61263304Y-141685180D02*
X61215685Y-141589942D01*
X61215685Y-141589942D02*
X61215685Y-141351847D01*
X61215685Y-141351847D02*
X61263304Y-141256609D01*
X61263304Y-141256609D02*
X61310923Y-141208990D01*
X61310923Y-141208990D02*
X61406161Y-141161371D01*
X61406161Y-141161371D02*
X61596637Y-141161371D01*
X61596637Y-141161371D02*
X61691875Y-141208990D01*
X61691875Y-141208990D02*
X61739494Y-141256609D01*
X61739494Y-141256609D02*
X61787113Y-141351847D01*
X60882351Y-140780419D02*
X60263304Y-140780419D01*
X60263304Y-140780419D02*
X60596637Y-141161371D01*
X60596637Y-141161371D02*
X60453780Y-141161371D01*
X60453780Y-141161371D02*
X60358542Y-141208990D01*
X60358542Y-141208990D02*
X60310923Y-141256609D01*
X60310923Y-141256609D02*
X60263304Y-141351847D01*
X60263304Y-141351847D02*
X60263304Y-141589942D01*
X60263304Y-141589942D02*
X60310923Y-141685180D01*
X60310923Y-141685180D02*
X60358542Y-141732800D01*
X60358542Y-141732800D02*
X60453780Y-141780419D01*
X60453780Y-141780419D02*
X60739494Y-141780419D01*
X60739494Y-141780419D02*
X60834732Y-141732800D01*
X60834732Y-141732800D02*
X60882351Y-141685180D01*
X77350857Y-118404819D02*
X77684190Y-117928628D01*
X77922285Y-118404819D02*
X77922285Y-117404819D01*
X77922285Y-117404819D02*
X77541333Y-117404819D01*
X77541333Y-117404819D02*
X77446095Y-117452438D01*
X77446095Y-117452438D02*
X77398476Y-117500057D01*
X77398476Y-117500057D02*
X77350857Y-117595295D01*
X77350857Y-117595295D02*
X77350857Y-117738152D01*
X77350857Y-117738152D02*
X77398476Y-117833390D01*
X77398476Y-117833390D02*
X77446095Y-117881009D01*
X77446095Y-117881009D02*
X77541333Y-117928628D01*
X77541333Y-117928628D02*
X77922285Y-117928628D01*
X76398476Y-118404819D02*
X76969904Y-118404819D01*
X76684190Y-118404819D02*
X76684190Y-117404819D01*
X76684190Y-117404819D02*
X76779428Y-117547676D01*
X76779428Y-117547676D02*
X76874666Y-117642914D01*
X76874666Y-117642914D02*
X76969904Y-117690533D01*
X75779428Y-117404819D02*
X75684190Y-117404819D01*
X75684190Y-117404819D02*
X75588952Y-117452438D01*
X75588952Y-117452438D02*
X75541333Y-117500057D01*
X75541333Y-117500057D02*
X75493714Y-117595295D01*
X75493714Y-117595295D02*
X75446095Y-117785771D01*
X75446095Y-117785771D02*
X75446095Y-118023866D01*
X75446095Y-118023866D02*
X75493714Y-118214342D01*
X75493714Y-118214342D02*
X75541333Y-118309580D01*
X75541333Y-118309580D02*
X75588952Y-118357200D01*
X75588952Y-118357200D02*
X75684190Y-118404819D01*
X75684190Y-118404819D02*
X75779428Y-118404819D01*
X75779428Y-118404819D02*
X75874666Y-118357200D01*
X75874666Y-118357200D02*
X75922285Y-118309580D01*
X75922285Y-118309580D02*
X75969904Y-118214342D01*
X75969904Y-118214342D02*
X76017523Y-118023866D01*
X76017523Y-118023866D02*
X76017523Y-117785771D01*
X76017523Y-117785771D02*
X75969904Y-117595295D01*
X75969904Y-117595295D02*
X75922285Y-117500057D01*
X75922285Y-117500057D02*
X75874666Y-117452438D01*
X75874666Y-117452438D02*
X75779428Y-117404819D01*
X142979733Y-148875419D02*
X142979733Y-149589704D01*
X142979733Y-149589704D02*
X143027352Y-149732561D01*
X143027352Y-149732561D02*
X143122590Y-149827800D01*
X143122590Y-149827800D02*
X143265447Y-149875419D01*
X143265447Y-149875419D02*
X143360685Y-149875419D01*
X142551161Y-148970657D02*
X142503542Y-148923038D01*
X142503542Y-148923038D02*
X142408304Y-148875419D01*
X142408304Y-148875419D02*
X142170209Y-148875419D01*
X142170209Y-148875419D02*
X142074971Y-148923038D01*
X142074971Y-148923038D02*
X142027352Y-148970657D01*
X142027352Y-148970657D02*
X141979733Y-149065895D01*
X141979733Y-149065895D02*
X141979733Y-149161133D01*
X141979733Y-149161133D02*
X142027352Y-149303990D01*
X142027352Y-149303990D02*
X142598780Y-149875419D01*
X142598780Y-149875419D02*
X141979733Y-149875419D01*
X99667219Y-141165342D02*
X99191028Y-140832009D01*
X99667219Y-140593914D02*
X98667219Y-140593914D01*
X98667219Y-140593914D02*
X98667219Y-140974866D01*
X98667219Y-140974866D02*
X98714838Y-141070104D01*
X98714838Y-141070104D02*
X98762457Y-141117723D01*
X98762457Y-141117723D02*
X98857695Y-141165342D01*
X98857695Y-141165342D02*
X99000552Y-141165342D01*
X99000552Y-141165342D02*
X99095790Y-141117723D01*
X99095790Y-141117723D02*
X99143409Y-141070104D01*
X99143409Y-141070104D02*
X99191028Y-140974866D01*
X99191028Y-140974866D02*
X99191028Y-140593914D01*
X99667219Y-142117723D02*
X99667219Y-141546295D01*
X99667219Y-141832009D02*
X98667219Y-141832009D01*
X98667219Y-141832009D02*
X98810076Y-141736771D01*
X98810076Y-141736771D02*
X98905314Y-141641533D01*
X98905314Y-141641533D02*
X98952933Y-141546295D01*
X98667219Y-142974866D02*
X98667219Y-142784390D01*
X98667219Y-142784390D02*
X98714838Y-142689152D01*
X98714838Y-142689152D02*
X98762457Y-142641533D01*
X98762457Y-142641533D02*
X98905314Y-142546295D01*
X98905314Y-142546295D02*
X99095790Y-142498676D01*
X99095790Y-142498676D02*
X99476742Y-142498676D01*
X99476742Y-142498676D02*
X99571980Y-142546295D01*
X99571980Y-142546295D02*
X99619600Y-142593914D01*
X99619600Y-142593914D02*
X99667219Y-142689152D01*
X99667219Y-142689152D02*
X99667219Y-142879628D01*
X99667219Y-142879628D02*
X99619600Y-142974866D01*
X99619600Y-142974866D02*
X99571980Y-143022485D01*
X99571980Y-143022485D02*
X99476742Y-143070104D01*
X99476742Y-143070104D02*
X99238647Y-143070104D01*
X99238647Y-143070104D02*
X99143409Y-143022485D01*
X99143409Y-143022485D02*
X99095790Y-142974866D01*
X99095790Y-142974866D02*
X99048171Y-142879628D01*
X99048171Y-142879628D02*
X99048171Y-142689152D01*
X99048171Y-142689152D02*
X99095790Y-142593914D01*
X99095790Y-142593914D02*
X99143409Y-142546295D01*
X99143409Y-142546295D02*
X99238647Y-142498676D01*
X136405857Y-139613819D02*
X136739190Y-139137628D01*
X136977285Y-139613819D02*
X136977285Y-138613819D01*
X136977285Y-138613819D02*
X136596333Y-138613819D01*
X136596333Y-138613819D02*
X136501095Y-138661438D01*
X136501095Y-138661438D02*
X136453476Y-138709057D01*
X136453476Y-138709057D02*
X136405857Y-138804295D01*
X136405857Y-138804295D02*
X136405857Y-138947152D01*
X136405857Y-138947152D02*
X136453476Y-139042390D01*
X136453476Y-139042390D02*
X136501095Y-139090009D01*
X136501095Y-139090009D02*
X136596333Y-139137628D01*
X136596333Y-139137628D02*
X136977285Y-139137628D01*
X135453476Y-139613819D02*
X136024904Y-139613819D01*
X135739190Y-139613819D02*
X135739190Y-138613819D01*
X135739190Y-138613819D02*
X135834428Y-138756676D01*
X135834428Y-138756676D02*
X135929666Y-138851914D01*
X135929666Y-138851914D02*
X136024904Y-138899533D01*
X134977285Y-139613819D02*
X134786809Y-139613819D01*
X134786809Y-139613819D02*
X134691571Y-139566200D01*
X134691571Y-139566200D02*
X134643952Y-139518580D01*
X134643952Y-139518580D02*
X134548714Y-139375723D01*
X134548714Y-139375723D02*
X134501095Y-139185247D01*
X134501095Y-139185247D02*
X134501095Y-138804295D01*
X134501095Y-138804295D02*
X134548714Y-138709057D01*
X134548714Y-138709057D02*
X134596333Y-138661438D01*
X134596333Y-138661438D02*
X134691571Y-138613819D01*
X134691571Y-138613819D02*
X134882047Y-138613819D01*
X134882047Y-138613819D02*
X134977285Y-138661438D01*
X134977285Y-138661438D02*
X135024904Y-138709057D01*
X135024904Y-138709057D02*
X135072523Y-138804295D01*
X135072523Y-138804295D02*
X135072523Y-139042390D01*
X135072523Y-139042390D02*
X135024904Y-139137628D01*
X135024904Y-139137628D02*
X134977285Y-139185247D01*
X134977285Y-139185247D02*
X134882047Y-139232866D01*
X134882047Y-139232866D02*
X134691571Y-139232866D01*
X134691571Y-139232866D02*
X134596333Y-139185247D01*
X134596333Y-139185247D02*
X134548714Y-139137628D01*
X134548714Y-139137628D02*
X134501095Y-139042390D01*
X102893019Y-141165342D02*
X102416828Y-140832009D01*
X102893019Y-140593914D02*
X101893019Y-140593914D01*
X101893019Y-140593914D02*
X101893019Y-140974866D01*
X101893019Y-140974866D02*
X101940638Y-141070104D01*
X101940638Y-141070104D02*
X101988257Y-141117723D01*
X101988257Y-141117723D02*
X102083495Y-141165342D01*
X102083495Y-141165342D02*
X102226352Y-141165342D01*
X102226352Y-141165342D02*
X102321590Y-141117723D01*
X102321590Y-141117723D02*
X102369209Y-141070104D01*
X102369209Y-141070104D02*
X102416828Y-140974866D01*
X102416828Y-140974866D02*
X102416828Y-140593914D01*
X102893019Y-142117723D02*
X102893019Y-141546295D01*
X102893019Y-141832009D02*
X101893019Y-141832009D01*
X101893019Y-141832009D02*
X102035876Y-141736771D01*
X102035876Y-141736771D02*
X102131114Y-141641533D01*
X102131114Y-141641533D02*
X102178733Y-141546295D01*
X101893019Y-143022485D02*
X101893019Y-142546295D01*
X101893019Y-142546295D02*
X102369209Y-142498676D01*
X102369209Y-142498676D02*
X102321590Y-142546295D01*
X102321590Y-142546295D02*
X102273971Y-142641533D01*
X102273971Y-142641533D02*
X102273971Y-142879628D01*
X102273971Y-142879628D02*
X102321590Y-142974866D01*
X102321590Y-142974866D02*
X102369209Y-143022485D01*
X102369209Y-143022485D02*
X102464447Y-143070104D01*
X102464447Y-143070104D02*
X102702542Y-143070104D01*
X102702542Y-143070104D02*
X102797780Y-143022485D01*
X102797780Y-143022485D02*
X102845400Y-142974866D01*
X102845400Y-142974866D02*
X102893019Y-142879628D01*
X102893019Y-142879628D02*
X102893019Y-142641533D01*
X102893019Y-142641533D02*
X102845400Y-142546295D01*
X102845400Y-142546295D02*
X102797780Y-142498676D01*
X103163666Y-159052419D02*
X103496999Y-158576228D01*
X103735094Y-159052419D02*
X103735094Y-158052419D01*
X103735094Y-158052419D02*
X103354142Y-158052419D01*
X103354142Y-158052419D02*
X103258904Y-158100038D01*
X103258904Y-158100038D02*
X103211285Y-158147657D01*
X103211285Y-158147657D02*
X103163666Y-158242895D01*
X103163666Y-158242895D02*
X103163666Y-158385752D01*
X103163666Y-158385752D02*
X103211285Y-158480990D01*
X103211285Y-158480990D02*
X103258904Y-158528609D01*
X103258904Y-158528609D02*
X103354142Y-158576228D01*
X103354142Y-158576228D02*
X103735094Y-158576228D01*
X102782713Y-158147657D02*
X102735094Y-158100038D01*
X102735094Y-158100038D02*
X102639856Y-158052419D01*
X102639856Y-158052419D02*
X102401761Y-158052419D01*
X102401761Y-158052419D02*
X102306523Y-158100038D01*
X102306523Y-158100038D02*
X102258904Y-158147657D01*
X102258904Y-158147657D02*
X102211285Y-158242895D01*
X102211285Y-158242895D02*
X102211285Y-158338133D01*
X102211285Y-158338133D02*
X102258904Y-158480990D01*
X102258904Y-158480990D02*
X102830332Y-159052419D01*
X102830332Y-159052419D02*
X102211285Y-159052419D01*
X88863466Y-129258219D02*
X89339656Y-129258219D01*
X89339656Y-129258219D02*
X89339656Y-128258219D01*
X88006323Y-129258219D02*
X88577751Y-129258219D01*
X88292037Y-129258219D02*
X88292037Y-128258219D01*
X88292037Y-128258219D02*
X88387275Y-128401076D01*
X88387275Y-128401076D02*
X88482513Y-128496314D01*
X88482513Y-128496314D02*
X88577751Y-128543933D01*
X114028457Y-144549019D02*
X114361790Y-144072828D01*
X114599885Y-144549019D02*
X114599885Y-143549019D01*
X114599885Y-143549019D02*
X114218933Y-143549019D01*
X114218933Y-143549019D02*
X114123695Y-143596638D01*
X114123695Y-143596638D02*
X114076076Y-143644257D01*
X114076076Y-143644257D02*
X114028457Y-143739495D01*
X114028457Y-143739495D02*
X114028457Y-143882352D01*
X114028457Y-143882352D02*
X114076076Y-143977590D01*
X114076076Y-143977590D02*
X114123695Y-144025209D01*
X114123695Y-144025209D02*
X114218933Y-144072828D01*
X114218933Y-144072828D02*
X114599885Y-144072828D01*
X113647504Y-143644257D02*
X113599885Y-143596638D01*
X113599885Y-143596638D02*
X113504647Y-143549019D01*
X113504647Y-143549019D02*
X113266552Y-143549019D01*
X113266552Y-143549019D02*
X113171314Y-143596638D01*
X113171314Y-143596638D02*
X113123695Y-143644257D01*
X113123695Y-143644257D02*
X113076076Y-143739495D01*
X113076076Y-143739495D02*
X113076076Y-143834733D01*
X113076076Y-143834733D02*
X113123695Y-143977590D01*
X113123695Y-143977590D02*
X113695123Y-144549019D01*
X113695123Y-144549019D02*
X113076076Y-144549019D01*
X112171314Y-143549019D02*
X112647504Y-143549019D01*
X112647504Y-143549019D02*
X112695123Y-144025209D01*
X112695123Y-144025209D02*
X112647504Y-143977590D01*
X112647504Y-143977590D02*
X112552266Y-143929971D01*
X112552266Y-143929971D02*
X112314171Y-143929971D01*
X112314171Y-143929971D02*
X112218933Y-143977590D01*
X112218933Y-143977590D02*
X112171314Y-144025209D01*
X112171314Y-144025209D02*
X112123695Y-144120447D01*
X112123695Y-144120447D02*
X112123695Y-144358542D01*
X112123695Y-144358542D02*
X112171314Y-144453780D01*
X112171314Y-144453780D02*
X112218933Y-144501400D01*
X112218933Y-144501400D02*
X112314171Y-144549019D01*
X112314171Y-144549019D02*
X112552266Y-144549019D01*
X112552266Y-144549019D02*
X112647504Y-144501400D01*
X112647504Y-144501400D02*
X112695123Y-144453780D01*
X63323647Y-133277780D02*
X63371266Y-133325400D01*
X63371266Y-133325400D02*
X63514123Y-133373019D01*
X63514123Y-133373019D02*
X63609361Y-133373019D01*
X63609361Y-133373019D02*
X63752218Y-133325400D01*
X63752218Y-133325400D02*
X63847456Y-133230161D01*
X63847456Y-133230161D02*
X63895075Y-133134923D01*
X63895075Y-133134923D02*
X63942694Y-132944447D01*
X63942694Y-132944447D02*
X63942694Y-132801590D01*
X63942694Y-132801590D02*
X63895075Y-132611114D01*
X63895075Y-132611114D02*
X63847456Y-132515876D01*
X63847456Y-132515876D02*
X63752218Y-132420638D01*
X63752218Y-132420638D02*
X63609361Y-132373019D01*
X63609361Y-132373019D02*
X63514123Y-132373019D01*
X63514123Y-132373019D02*
X63371266Y-132420638D01*
X63371266Y-132420638D02*
X63323647Y-132468257D01*
X62942694Y-132468257D02*
X62895075Y-132420638D01*
X62895075Y-132420638D02*
X62799837Y-132373019D01*
X62799837Y-132373019D02*
X62561742Y-132373019D01*
X62561742Y-132373019D02*
X62466504Y-132420638D01*
X62466504Y-132420638D02*
X62418885Y-132468257D01*
X62418885Y-132468257D02*
X62371266Y-132563495D01*
X62371266Y-132563495D02*
X62371266Y-132658733D01*
X62371266Y-132658733D02*
X62418885Y-132801590D01*
X62418885Y-132801590D02*
X62990313Y-133373019D01*
X62990313Y-133373019D02*
X62371266Y-133373019D01*
X61514123Y-132373019D02*
X61704599Y-132373019D01*
X61704599Y-132373019D02*
X61799837Y-132420638D01*
X61799837Y-132420638D02*
X61847456Y-132468257D01*
X61847456Y-132468257D02*
X61942694Y-132611114D01*
X61942694Y-132611114D02*
X61990313Y-132801590D01*
X61990313Y-132801590D02*
X61990313Y-133182542D01*
X61990313Y-133182542D02*
X61942694Y-133277780D01*
X61942694Y-133277780D02*
X61895075Y-133325400D01*
X61895075Y-133325400D02*
X61799837Y-133373019D01*
X61799837Y-133373019D02*
X61609361Y-133373019D01*
X61609361Y-133373019D02*
X61514123Y-133325400D01*
X61514123Y-133325400D02*
X61466504Y-133277780D01*
X61466504Y-133277780D02*
X61418885Y-133182542D01*
X61418885Y-133182542D02*
X61418885Y-132944447D01*
X61418885Y-132944447D02*
X61466504Y-132849209D01*
X61466504Y-132849209D02*
X61514123Y-132801590D01*
X61514123Y-132801590D02*
X61609361Y-132753971D01*
X61609361Y-132753971D02*
X61799837Y-132753971D01*
X61799837Y-132753971D02*
X61895075Y-132801590D01*
X61895075Y-132801590D02*
X61942694Y-132849209D01*
X61942694Y-132849209D02*
X61990313Y-132944447D01*
X60514123Y-132373019D02*
X60990313Y-132373019D01*
X60990313Y-132373019D02*
X61037932Y-132849209D01*
X61037932Y-132849209D02*
X60990313Y-132801590D01*
X60990313Y-132801590D02*
X60895075Y-132753971D01*
X60895075Y-132753971D02*
X60656980Y-132753971D01*
X60656980Y-132753971D02*
X60561742Y-132801590D01*
X60561742Y-132801590D02*
X60514123Y-132849209D01*
X60514123Y-132849209D02*
X60466504Y-132944447D01*
X60466504Y-132944447D02*
X60466504Y-133182542D01*
X60466504Y-133182542D02*
X60514123Y-133277780D01*
X60514123Y-133277780D02*
X60561742Y-133325400D01*
X60561742Y-133325400D02*
X60656980Y-133373019D01*
X60656980Y-133373019D02*
X60895075Y-133373019D01*
X60895075Y-133373019D02*
X60990313Y-133325400D01*
X60990313Y-133325400D02*
X61037932Y-133277780D01*
X61700580Y-117016352D02*
X61748200Y-116968733D01*
X61748200Y-116968733D02*
X61795819Y-116825876D01*
X61795819Y-116825876D02*
X61795819Y-116730638D01*
X61795819Y-116730638D02*
X61748200Y-116587781D01*
X61748200Y-116587781D02*
X61652961Y-116492543D01*
X61652961Y-116492543D02*
X61557723Y-116444924D01*
X61557723Y-116444924D02*
X61367247Y-116397305D01*
X61367247Y-116397305D02*
X61224390Y-116397305D01*
X61224390Y-116397305D02*
X61033914Y-116444924D01*
X61033914Y-116444924D02*
X60938676Y-116492543D01*
X60938676Y-116492543D02*
X60843438Y-116587781D01*
X60843438Y-116587781D02*
X60795819Y-116730638D01*
X60795819Y-116730638D02*
X60795819Y-116825876D01*
X60795819Y-116825876D02*
X60843438Y-116968733D01*
X60843438Y-116968733D02*
X60891057Y-117016352D01*
X60891057Y-117397305D02*
X60843438Y-117444924D01*
X60843438Y-117444924D02*
X60795819Y-117540162D01*
X60795819Y-117540162D02*
X60795819Y-117778257D01*
X60795819Y-117778257D02*
X60843438Y-117873495D01*
X60843438Y-117873495D02*
X60891057Y-117921114D01*
X60891057Y-117921114D02*
X60986295Y-117968733D01*
X60986295Y-117968733D02*
X61081533Y-117968733D01*
X61081533Y-117968733D02*
X61224390Y-117921114D01*
X61224390Y-117921114D02*
X61795819Y-117349686D01*
X61795819Y-117349686D02*
X61795819Y-117968733D01*
X60795819Y-118825876D02*
X60795819Y-118635400D01*
X60795819Y-118635400D02*
X60843438Y-118540162D01*
X60843438Y-118540162D02*
X60891057Y-118492543D01*
X60891057Y-118492543D02*
X61033914Y-118397305D01*
X61033914Y-118397305D02*
X61224390Y-118349686D01*
X61224390Y-118349686D02*
X61605342Y-118349686D01*
X61605342Y-118349686D02*
X61700580Y-118397305D01*
X61700580Y-118397305D02*
X61748200Y-118444924D01*
X61748200Y-118444924D02*
X61795819Y-118540162D01*
X61795819Y-118540162D02*
X61795819Y-118730638D01*
X61795819Y-118730638D02*
X61748200Y-118825876D01*
X61748200Y-118825876D02*
X61700580Y-118873495D01*
X61700580Y-118873495D02*
X61605342Y-118921114D01*
X61605342Y-118921114D02*
X61367247Y-118921114D01*
X61367247Y-118921114D02*
X61272009Y-118873495D01*
X61272009Y-118873495D02*
X61224390Y-118825876D01*
X61224390Y-118825876D02*
X61176771Y-118730638D01*
X61176771Y-118730638D02*
X61176771Y-118540162D01*
X61176771Y-118540162D02*
X61224390Y-118444924D01*
X61224390Y-118444924D02*
X61272009Y-118397305D01*
X61272009Y-118397305D02*
X61367247Y-118349686D01*
X60795819Y-119778257D02*
X60795819Y-119587781D01*
X60795819Y-119587781D02*
X60843438Y-119492543D01*
X60843438Y-119492543D02*
X60891057Y-119444924D01*
X60891057Y-119444924D02*
X61033914Y-119349686D01*
X61033914Y-119349686D02*
X61224390Y-119302067D01*
X61224390Y-119302067D02*
X61605342Y-119302067D01*
X61605342Y-119302067D02*
X61700580Y-119349686D01*
X61700580Y-119349686D02*
X61748200Y-119397305D01*
X61748200Y-119397305D02*
X61795819Y-119492543D01*
X61795819Y-119492543D02*
X61795819Y-119683019D01*
X61795819Y-119683019D02*
X61748200Y-119778257D01*
X61748200Y-119778257D02*
X61700580Y-119825876D01*
X61700580Y-119825876D02*
X61605342Y-119873495D01*
X61605342Y-119873495D02*
X61367247Y-119873495D01*
X61367247Y-119873495D02*
X61272009Y-119825876D01*
X61272009Y-119825876D02*
X61224390Y-119778257D01*
X61224390Y-119778257D02*
X61176771Y-119683019D01*
X61176771Y-119683019D02*
X61176771Y-119492543D01*
X61176771Y-119492543D02*
X61224390Y-119397305D01*
X61224390Y-119397305D02*
X61272009Y-119349686D01*
X61272009Y-119349686D02*
X61367247Y-119302067D01*
X63120447Y-136046380D02*
X63168066Y-136094000D01*
X63168066Y-136094000D02*
X63310923Y-136141619D01*
X63310923Y-136141619D02*
X63406161Y-136141619D01*
X63406161Y-136141619D02*
X63549018Y-136094000D01*
X63549018Y-136094000D02*
X63644256Y-135998761D01*
X63644256Y-135998761D02*
X63691875Y-135903523D01*
X63691875Y-135903523D02*
X63739494Y-135713047D01*
X63739494Y-135713047D02*
X63739494Y-135570190D01*
X63739494Y-135570190D02*
X63691875Y-135379714D01*
X63691875Y-135379714D02*
X63644256Y-135284476D01*
X63644256Y-135284476D02*
X63549018Y-135189238D01*
X63549018Y-135189238D02*
X63406161Y-135141619D01*
X63406161Y-135141619D02*
X63310923Y-135141619D01*
X63310923Y-135141619D02*
X63168066Y-135189238D01*
X63168066Y-135189238D02*
X63120447Y-135236857D01*
X62739494Y-135236857D02*
X62691875Y-135189238D01*
X62691875Y-135189238D02*
X62596637Y-135141619D01*
X62596637Y-135141619D02*
X62358542Y-135141619D01*
X62358542Y-135141619D02*
X62263304Y-135189238D01*
X62263304Y-135189238D02*
X62215685Y-135236857D01*
X62215685Y-135236857D02*
X62168066Y-135332095D01*
X62168066Y-135332095D02*
X62168066Y-135427333D01*
X62168066Y-135427333D02*
X62215685Y-135570190D01*
X62215685Y-135570190D02*
X62787113Y-136141619D01*
X62787113Y-136141619D02*
X62168066Y-136141619D01*
X61310923Y-135141619D02*
X61501399Y-135141619D01*
X61501399Y-135141619D02*
X61596637Y-135189238D01*
X61596637Y-135189238D02*
X61644256Y-135236857D01*
X61644256Y-135236857D02*
X61739494Y-135379714D01*
X61739494Y-135379714D02*
X61787113Y-135570190D01*
X61787113Y-135570190D02*
X61787113Y-135951142D01*
X61787113Y-135951142D02*
X61739494Y-136046380D01*
X61739494Y-136046380D02*
X61691875Y-136094000D01*
X61691875Y-136094000D02*
X61596637Y-136141619D01*
X61596637Y-136141619D02*
X61406161Y-136141619D01*
X61406161Y-136141619D02*
X61310923Y-136094000D01*
X61310923Y-136094000D02*
X61263304Y-136046380D01*
X61263304Y-136046380D02*
X61215685Y-135951142D01*
X61215685Y-135951142D02*
X61215685Y-135713047D01*
X61215685Y-135713047D02*
X61263304Y-135617809D01*
X61263304Y-135617809D02*
X61310923Y-135570190D01*
X61310923Y-135570190D02*
X61406161Y-135522571D01*
X61406161Y-135522571D02*
X61596637Y-135522571D01*
X61596637Y-135522571D02*
X61691875Y-135570190D01*
X61691875Y-135570190D02*
X61739494Y-135617809D01*
X61739494Y-135617809D02*
X61787113Y-135713047D01*
X60834732Y-135236857D02*
X60787113Y-135189238D01*
X60787113Y-135189238D02*
X60691875Y-135141619D01*
X60691875Y-135141619D02*
X60453780Y-135141619D01*
X60453780Y-135141619D02*
X60358542Y-135189238D01*
X60358542Y-135189238D02*
X60310923Y-135236857D01*
X60310923Y-135236857D02*
X60263304Y-135332095D01*
X60263304Y-135332095D02*
X60263304Y-135427333D01*
X60263304Y-135427333D02*
X60310923Y-135570190D01*
X60310923Y-135570190D02*
X60882351Y-136141619D01*
X60882351Y-136141619D02*
X60263304Y-136141619D01*
X128174419Y-130683866D02*
X128888704Y-130683866D01*
X128888704Y-130683866D02*
X129031561Y-130636247D01*
X129031561Y-130636247D02*
X129126800Y-130541009D01*
X129126800Y-130541009D02*
X129174419Y-130398152D01*
X129174419Y-130398152D02*
X129174419Y-130302914D01*
X129174419Y-131683866D02*
X129174419Y-131112438D01*
X129174419Y-131398152D02*
X128174419Y-131398152D01*
X128174419Y-131398152D02*
X128317276Y-131302914D01*
X128317276Y-131302914D02*
X128412514Y-131207676D01*
X128412514Y-131207676D02*
X128460133Y-131112438D01*
X136405857Y-143997819D02*
X136739190Y-143521628D01*
X136977285Y-143997819D02*
X136977285Y-142997819D01*
X136977285Y-142997819D02*
X136596333Y-142997819D01*
X136596333Y-142997819D02*
X136501095Y-143045438D01*
X136501095Y-143045438D02*
X136453476Y-143093057D01*
X136453476Y-143093057D02*
X136405857Y-143188295D01*
X136405857Y-143188295D02*
X136405857Y-143331152D01*
X136405857Y-143331152D02*
X136453476Y-143426390D01*
X136453476Y-143426390D02*
X136501095Y-143474009D01*
X136501095Y-143474009D02*
X136596333Y-143521628D01*
X136596333Y-143521628D02*
X136977285Y-143521628D01*
X135453476Y-143997819D02*
X136024904Y-143997819D01*
X135739190Y-143997819D02*
X135739190Y-142997819D01*
X135739190Y-142997819D02*
X135834428Y-143140676D01*
X135834428Y-143140676D02*
X135929666Y-143235914D01*
X135929666Y-143235914D02*
X136024904Y-143283533D01*
X134882047Y-143426390D02*
X134977285Y-143378771D01*
X134977285Y-143378771D02*
X135024904Y-143331152D01*
X135024904Y-143331152D02*
X135072523Y-143235914D01*
X135072523Y-143235914D02*
X135072523Y-143188295D01*
X135072523Y-143188295D02*
X135024904Y-143093057D01*
X135024904Y-143093057D02*
X134977285Y-143045438D01*
X134977285Y-143045438D02*
X134882047Y-142997819D01*
X134882047Y-142997819D02*
X134691571Y-142997819D01*
X134691571Y-142997819D02*
X134596333Y-143045438D01*
X134596333Y-143045438D02*
X134548714Y-143093057D01*
X134548714Y-143093057D02*
X134501095Y-143188295D01*
X134501095Y-143188295D02*
X134501095Y-143235914D01*
X134501095Y-143235914D02*
X134548714Y-143331152D01*
X134548714Y-143331152D02*
X134596333Y-143378771D01*
X134596333Y-143378771D02*
X134691571Y-143426390D01*
X134691571Y-143426390D02*
X134882047Y-143426390D01*
X134882047Y-143426390D02*
X134977285Y-143474009D01*
X134977285Y-143474009D02*
X135024904Y-143521628D01*
X135024904Y-143521628D02*
X135072523Y-143616866D01*
X135072523Y-143616866D02*
X135072523Y-143807342D01*
X135072523Y-143807342D02*
X135024904Y-143902580D01*
X135024904Y-143902580D02*
X134977285Y-143950200D01*
X134977285Y-143950200D02*
X134882047Y-143997819D01*
X134882047Y-143997819D02*
X134691571Y-143997819D01*
X134691571Y-143997819D02*
X134596333Y-143950200D01*
X134596333Y-143950200D02*
X134548714Y-143902580D01*
X134548714Y-143902580D02*
X134501095Y-143807342D01*
X134501095Y-143807342D02*
X134501095Y-143616866D01*
X134501095Y-143616866D02*
X134548714Y-143521628D01*
X134548714Y-143521628D02*
X134596333Y-143474009D01*
X134596333Y-143474009D02*
X134691571Y-143426390D01*
X99899647Y-158855580D02*
X99947266Y-158903200D01*
X99947266Y-158903200D02*
X100090123Y-158950819D01*
X100090123Y-158950819D02*
X100185361Y-158950819D01*
X100185361Y-158950819D02*
X100328218Y-158903200D01*
X100328218Y-158903200D02*
X100423456Y-158807961D01*
X100423456Y-158807961D02*
X100471075Y-158712723D01*
X100471075Y-158712723D02*
X100518694Y-158522247D01*
X100518694Y-158522247D02*
X100518694Y-158379390D01*
X100518694Y-158379390D02*
X100471075Y-158188914D01*
X100471075Y-158188914D02*
X100423456Y-158093676D01*
X100423456Y-158093676D02*
X100328218Y-157998438D01*
X100328218Y-157998438D02*
X100185361Y-157950819D01*
X100185361Y-157950819D02*
X100090123Y-157950819D01*
X100090123Y-157950819D02*
X99947266Y-157998438D01*
X99947266Y-157998438D02*
X99899647Y-158046057D01*
X99518694Y-158046057D02*
X99471075Y-157998438D01*
X99471075Y-157998438D02*
X99375837Y-157950819D01*
X99375837Y-157950819D02*
X99137742Y-157950819D01*
X99137742Y-157950819D02*
X99042504Y-157998438D01*
X99042504Y-157998438D02*
X98994885Y-158046057D01*
X98994885Y-158046057D02*
X98947266Y-158141295D01*
X98947266Y-158141295D02*
X98947266Y-158236533D01*
X98947266Y-158236533D02*
X98994885Y-158379390D01*
X98994885Y-158379390D02*
X99566313Y-158950819D01*
X99566313Y-158950819D02*
X98947266Y-158950819D01*
X98042504Y-157950819D02*
X98518694Y-157950819D01*
X98518694Y-157950819D02*
X98566313Y-158427009D01*
X98566313Y-158427009D02*
X98518694Y-158379390D01*
X98518694Y-158379390D02*
X98423456Y-158331771D01*
X98423456Y-158331771D02*
X98185361Y-158331771D01*
X98185361Y-158331771D02*
X98090123Y-158379390D01*
X98090123Y-158379390D02*
X98042504Y-158427009D01*
X98042504Y-158427009D02*
X97994885Y-158522247D01*
X97994885Y-158522247D02*
X97994885Y-158760342D01*
X97994885Y-158760342D02*
X98042504Y-158855580D01*
X98042504Y-158855580D02*
X98090123Y-158903200D01*
X98090123Y-158903200D02*
X98185361Y-158950819D01*
X98185361Y-158950819D02*
X98423456Y-158950819D01*
X98423456Y-158950819D02*
X98518694Y-158903200D01*
X98518694Y-158903200D02*
X98566313Y-158855580D01*
X97661551Y-157950819D02*
X96994885Y-157950819D01*
X96994885Y-157950819D02*
X97423456Y-158950819D01*
X141704219Y-152798542D02*
X141228028Y-152465209D01*
X141704219Y-152227114D02*
X140704219Y-152227114D01*
X140704219Y-152227114D02*
X140704219Y-152608066D01*
X140704219Y-152608066D02*
X140751838Y-152703304D01*
X140751838Y-152703304D02*
X140799457Y-152750923D01*
X140799457Y-152750923D02*
X140894695Y-152798542D01*
X140894695Y-152798542D02*
X141037552Y-152798542D01*
X141037552Y-152798542D02*
X141132790Y-152750923D01*
X141132790Y-152750923D02*
X141180409Y-152703304D01*
X141180409Y-152703304D02*
X141228028Y-152608066D01*
X141228028Y-152608066D02*
X141228028Y-152227114D01*
X140799457Y-153179495D02*
X140751838Y-153227114D01*
X140751838Y-153227114D02*
X140704219Y-153322352D01*
X140704219Y-153322352D02*
X140704219Y-153560447D01*
X140704219Y-153560447D02*
X140751838Y-153655685D01*
X140751838Y-153655685D02*
X140799457Y-153703304D01*
X140799457Y-153703304D02*
X140894695Y-153750923D01*
X140894695Y-153750923D02*
X140989933Y-153750923D01*
X140989933Y-153750923D02*
X141132790Y-153703304D01*
X141132790Y-153703304D02*
X141704219Y-153131876D01*
X141704219Y-153131876D02*
X141704219Y-153750923D01*
X140704219Y-154084257D02*
X140704219Y-154750923D01*
X140704219Y-154750923D02*
X141704219Y-154322352D01*
X138303800Y-133413667D02*
X138351419Y-133556524D01*
X138351419Y-133556524D02*
X138351419Y-133794619D01*
X138351419Y-133794619D02*
X138303800Y-133889857D01*
X138303800Y-133889857D02*
X138256180Y-133937476D01*
X138256180Y-133937476D02*
X138160942Y-133985095D01*
X138160942Y-133985095D02*
X138065704Y-133985095D01*
X138065704Y-133985095D02*
X137970466Y-133937476D01*
X137970466Y-133937476D02*
X137922847Y-133889857D01*
X137922847Y-133889857D02*
X137875228Y-133794619D01*
X137875228Y-133794619D02*
X137827609Y-133604143D01*
X137827609Y-133604143D02*
X137779990Y-133508905D01*
X137779990Y-133508905D02*
X137732371Y-133461286D01*
X137732371Y-133461286D02*
X137637133Y-133413667D01*
X137637133Y-133413667D02*
X137541895Y-133413667D01*
X137541895Y-133413667D02*
X137446657Y-133461286D01*
X137446657Y-133461286D02*
X137399038Y-133508905D01*
X137399038Y-133508905D02*
X137351419Y-133604143D01*
X137351419Y-133604143D02*
X137351419Y-133842238D01*
X137351419Y-133842238D02*
X137399038Y-133985095D01*
X137351419Y-134318429D02*
X138351419Y-134556524D01*
X138351419Y-134556524D02*
X137637133Y-134747000D01*
X137637133Y-134747000D02*
X138351419Y-134937476D01*
X138351419Y-134937476D02*
X137351419Y-135175572D01*
X138351419Y-136080333D02*
X138351419Y-135508905D01*
X138351419Y-135794619D02*
X137351419Y-135794619D01*
X137351419Y-135794619D02*
X137494276Y-135699381D01*
X137494276Y-135699381D02*
X137589514Y-135604143D01*
X137589514Y-135604143D02*
X137637133Y-135508905D01*
X56605275Y-147597019D02*
X56605275Y-146597019D01*
X56605275Y-146597019D02*
X56367180Y-146597019D01*
X56367180Y-146597019D02*
X56224323Y-146644638D01*
X56224323Y-146644638D02*
X56129085Y-146739876D01*
X56129085Y-146739876D02*
X56081466Y-146835114D01*
X56081466Y-146835114D02*
X56033847Y-147025590D01*
X56033847Y-147025590D02*
X56033847Y-147168447D01*
X56033847Y-147168447D02*
X56081466Y-147358923D01*
X56081466Y-147358923D02*
X56129085Y-147454161D01*
X56129085Y-147454161D02*
X56224323Y-147549400D01*
X56224323Y-147549400D02*
X56367180Y-147597019D01*
X56367180Y-147597019D02*
X56605275Y-147597019D01*
X55652894Y-146692257D02*
X55605275Y-146644638D01*
X55605275Y-146644638D02*
X55510037Y-146597019D01*
X55510037Y-146597019D02*
X55271942Y-146597019D01*
X55271942Y-146597019D02*
X55176704Y-146644638D01*
X55176704Y-146644638D02*
X55129085Y-146692257D01*
X55129085Y-146692257D02*
X55081466Y-146787495D01*
X55081466Y-146787495D02*
X55081466Y-146882733D01*
X55081466Y-146882733D02*
X55129085Y-147025590D01*
X55129085Y-147025590D02*
X55700513Y-147597019D01*
X55700513Y-147597019D02*
X55081466Y-147597019D01*
X54176704Y-146597019D02*
X54652894Y-146597019D01*
X54652894Y-146597019D02*
X54700513Y-147073209D01*
X54700513Y-147073209D02*
X54652894Y-147025590D01*
X54652894Y-147025590D02*
X54557656Y-146977971D01*
X54557656Y-146977971D02*
X54319561Y-146977971D01*
X54319561Y-146977971D02*
X54224323Y-147025590D01*
X54224323Y-147025590D02*
X54176704Y-147073209D01*
X54176704Y-147073209D02*
X54129085Y-147168447D01*
X54129085Y-147168447D02*
X54129085Y-147406542D01*
X54129085Y-147406542D02*
X54176704Y-147501780D01*
X54176704Y-147501780D02*
X54224323Y-147549400D01*
X54224323Y-147549400D02*
X54319561Y-147597019D01*
X54319561Y-147597019D02*
X54557656Y-147597019D01*
X54557656Y-147597019D02*
X54652894Y-147549400D01*
X54652894Y-147549400D02*
X54700513Y-147501780D01*
X53557656Y-147025590D02*
X53652894Y-146977971D01*
X53652894Y-146977971D02*
X53700513Y-146930352D01*
X53700513Y-146930352D02*
X53748132Y-146835114D01*
X53748132Y-146835114D02*
X53748132Y-146787495D01*
X53748132Y-146787495D02*
X53700513Y-146692257D01*
X53700513Y-146692257D02*
X53652894Y-146644638D01*
X53652894Y-146644638D02*
X53557656Y-146597019D01*
X53557656Y-146597019D02*
X53367180Y-146597019D01*
X53367180Y-146597019D02*
X53271942Y-146644638D01*
X53271942Y-146644638D02*
X53224323Y-146692257D01*
X53224323Y-146692257D02*
X53176704Y-146787495D01*
X53176704Y-146787495D02*
X53176704Y-146835114D01*
X53176704Y-146835114D02*
X53224323Y-146930352D01*
X53224323Y-146930352D02*
X53271942Y-146977971D01*
X53271942Y-146977971D02*
X53367180Y-147025590D01*
X53367180Y-147025590D02*
X53557656Y-147025590D01*
X53557656Y-147025590D02*
X53652894Y-147073209D01*
X53652894Y-147073209D02*
X53700513Y-147120828D01*
X53700513Y-147120828D02*
X53748132Y-147216066D01*
X53748132Y-147216066D02*
X53748132Y-147406542D01*
X53748132Y-147406542D02*
X53700513Y-147501780D01*
X53700513Y-147501780D02*
X53652894Y-147549400D01*
X53652894Y-147549400D02*
X53557656Y-147597019D01*
X53557656Y-147597019D02*
X53367180Y-147597019D01*
X53367180Y-147597019D02*
X53271942Y-147549400D01*
X53271942Y-147549400D02*
X53224323Y-147501780D01*
X53224323Y-147501780D02*
X53176704Y-147406542D01*
X53176704Y-147406542D02*
X53176704Y-147216066D01*
X53176704Y-147216066D02*
X53224323Y-147120828D01*
X53224323Y-147120828D02*
X53271942Y-147073209D01*
X53271942Y-147073209D02*
X53367180Y-147025590D01*
X68238666Y-122915819D02*
X68571999Y-122439628D01*
X68810094Y-122915819D02*
X68810094Y-121915819D01*
X68810094Y-121915819D02*
X68429142Y-121915819D01*
X68429142Y-121915819D02*
X68333904Y-121963438D01*
X68333904Y-121963438D02*
X68286285Y-122011057D01*
X68286285Y-122011057D02*
X68238666Y-122106295D01*
X68238666Y-122106295D02*
X68238666Y-122249152D01*
X68238666Y-122249152D02*
X68286285Y-122344390D01*
X68286285Y-122344390D02*
X68333904Y-122392009D01*
X68333904Y-122392009D02*
X68429142Y-122439628D01*
X68429142Y-122439628D02*
X68810094Y-122439628D01*
X67667237Y-122344390D02*
X67762475Y-122296771D01*
X67762475Y-122296771D02*
X67810094Y-122249152D01*
X67810094Y-122249152D02*
X67857713Y-122153914D01*
X67857713Y-122153914D02*
X67857713Y-122106295D01*
X67857713Y-122106295D02*
X67810094Y-122011057D01*
X67810094Y-122011057D02*
X67762475Y-121963438D01*
X67762475Y-121963438D02*
X67667237Y-121915819D01*
X67667237Y-121915819D02*
X67476761Y-121915819D01*
X67476761Y-121915819D02*
X67381523Y-121963438D01*
X67381523Y-121963438D02*
X67333904Y-122011057D01*
X67333904Y-122011057D02*
X67286285Y-122106295D01*
X67286285Y-122106295D02*
X67286285Y-122153914D01*
X67286285Y-122153914D02*
X67333904Y-122249152D01*
X67333904Y-122249152D02*
X67381523Y-122296771D01*
X67381523Y-122296771D02*
X67476761Y-122344390D01*
X67476761Y-122344390D02*
X67667237Y-122344390D01*
X67667237Y-122344390D02*
X67762475Y-122392009D01*
X67762475Y-122392009D02*
X67810094Y-122439628D01*
X67810094Y-122439628D02*
X67857713Y-122534866D01*
X67857713Y-122534866D02*
X67857713Y-122725342D01*
X67857713Y-122725342D02*
X67810094Y-122820580D01*
X67810094Y-122820580D02*
X67762475Y-122868200D01*
X67762475Y-122868200D02*
X67667237Y-122915819D01*
X67667237Y-122915819D02*
X67476761Y-122915819D01*
X67476761Y-122915819D02*
X67381523Y-122868200D01*
X67381523Y-122868200D02*
X67333904Y-122820580D01*
X67333904Y-122820580D02*
X67286285Y-122725342D01*
X67286285Y-122725342D02*
X67286285Y-122534866D01*
X67286285Y-122534866D02*
X67333904Y-122439628D01*
X67333904Y-122439628D02*
X67381523Y-122392009D01*
X67381523Y-122392009D02*
X67476761Y-122344390D01*
D11*
X118867162Y-158003518D02*
X118867162Y-156733518D01*
X117536685Y-157882565D02*
X117597161Y-157943042D01*
X117597161Y-157943042D02*
X117778590Y-158003518D01*
X117778590Y-158003518D02*
X117899542Y-158003518D01*
X117899542Y-158003518D02*
X118080971Y-157943042D01*
X118080971Y-157943042D02*
X118201923Y-157822089D01*
X118201923Y-157822089D02*
X118262400Y-157701137D01*
X118262400Y-157701137D02*
X118322876Y-157459232D01*
X118322876Y-157459232D02*
X118322876Y-157277803D01*
X118322876Y-157277803D02*
X118262400Y-157035899D01*
X118262400Y-157035899D02*
X118201923Y-156914946D01*
X118201923Y-156914946D02*
X118080971Y-156793994D01*
X118080971Y-156793994D02*
X117899542Y-156733518D01*
X117899542Y-156733518D02*
X117778590Y-156733518D01*
X117778590Y-156733518D02*
X117597161Y-156793994D01*
X117597161Y-156793994D02*
X117536685Y-156854470D01*
X116327161Y-158003518D02*
X117052876Y-158003518D01*
X116690019Y-158003518D02*
X116690019Y-156733518D01*
X116690019Y-156733518D02*
X116810971Y-156914946D01*
X116810971Y-156914946D02*
X116931923Y-157035899D01*
X116931923Y-157035899D02*
X117052876Y-157096375D01*
D12*
X124352351Y-136407734D02*
X124400732Y-136456115D01*
X124400732Y-136456115D02*
X124545875Y-136504495D01*
X124545875Y-136504495D02*
X124642637Y-136504495D01*
X124642637Y-136504495D02*
X124787780Y-136456115D01*
X124787780Y-136456115D02*
X124884542Y-136359353D01*
X124884542Y-136359353D02*
X124932923Y-136262591D01*
X124932923Y-136262591D02*
X124981304Y-136069067D01*
X124981304Y-136069067D02*
X124981304Y-135923924D01*
X124981304Y-135923924D02*
X124932923Y-135730400D01*
X124932923Y-135730400D02*
X124884542Y-135633638D01*
X124884542Y-135633638D02*
X124787780Y-135536876D01*
X124787780Y-135536876D02*
X124642637Y-135488495D01*
X124642637Y-135488495D02*
X124545875Y-135488495D01*
X124545875Y-135488495D02*
X124400732Y-135536876D01*
X124400732Y-135536876D02*
X124352351Y-135585257D01*
X123965304Y-135585257D02*
X123916923Y-135536876D01*
X123916923Y-135536876D02*
X123820161Y-135488495D01*
X123820161Y-135488495D02*
X123578256Y-135488495D01*
X123578256Y-135488495D02*
X123481494Y-135536876D01*
X123481494Y-135536876D02*
X123433113Y-135585257D01*
X123433113Y-135585257D02*
X123384732Y-135682019D01*
X123384732Y-135682019D02*
X123384732Y-135778781D01*
X123384732Y-135778781D02*
X123433113Y-135923924D01*
X123433113Y-135923924D02*
X124013685Y-136504495D01*
X124013685Y-136504495D02*
X123384732Y-136504495D01*
X122465494Y-135488495D02*
X122949304Y-135488495D01*
X122949304Y-135488495D02*
X122997685Y-135972305D01*
X122997685Y-135972305D02*
X122949304Y-135923924D01*
X122949304Y-135923924D02*
X122852542Y-135875543D01*
X122852542Y-135875543D02*
X122610637Y-135875543D01*
X122610637Y-135875543D02*
X122513875Y-135923924D01*
X122513875Y-135923924D02*
X122465494Y-135972305D01*
X122465494Y-135972305D02*
X122417113Y-136069067D01*
X122417113Y-136069067D02*
X122417113Y-136310972D01*
X122417113Y-136310972D02*
X122465494Y-136407734D01*
X122465494Y-136407734D02*
X122513875Y-136456115D01*
X122513875Y-136456115D02*
X122610637Y-136504495D01*
X122610637Y-136504495D02*
X122852542Y-136504495D01*
X122852542Y-136504495D02*
X122949304Y-136456115D01*
X122949304Y-136456115D02*
X122997685Y-136407734D01*
X121933304Y-136504495D02*
X121739780Y-136504495D01*
X121739780Y-136504495D02*
X121643018Y-136456115D01*
X121643018Y-136456115D02*
X121594637Y-136407734D01*
X121594637Y-136407734D02*
X121497875Y-136262591D01*
X121497875Y-136262591D02*
X121449494Y-136069067D01*
X121449494Y-136069067D02*
X121449494Y-135682019D01*
X121449494Y-135682019D02*
X121497875Y-135585257D01*
X121497875Y-135585257D02*
X121546256Y-135536876D01*
X121546256Y-135536876D02*
X121643018Y-135488495D01*
X121643018Y-135488495D02*
X121836542Y-135488495D01*
X121836542Y-135488495D02*
X121933304Y-135536876D01*
X121933304Y-135536876D02*
X121981685Y-135585257D01*
X121981685Y-135585257D02*
X122030066Y-135682019D01*
X122030066Y-135682019D02*
X122030066Y-135923924D01*
X122030066Y-135923924D02*
X121981685Y-136020686D01*
X121981685Y-136020686D02*
X121933304Y-136069067D01*
X121933304Y-136069067D02*
X121836542Y-136117448D01*
X121836542Y-136117448D02*
X121643018Y-136117448D01*
X121643018Y-136117448D02*
X121546256Y-136069067D01*
X121546256Y-136069067D02*
X121497875Y-136020686D01*
X121497875Y-136020686D02*
X121449494Y-135923924D01*
D10*
X128373047Y-135004980D02*
X128420666Y-135052600D01*
X128420666Y-135052600D02*
X128563523Y-135100219D01*
X128563523Y-135100219D02*
X128658761Y-135100219D01*
X128658761Y-135100219D02*
X128801618Y-135052600D01*
X128801618Y-135052600D02*
X128896856Y-134957361D01*
X128896856Y-134957361D02*
X128944475Y-134862123D01*
X128944475Y-134862123D02*
X128992094Y-134671647D01*
X128992094Y-134671647D02*
X128992094Y-134528790D01*
X128992094Y-134528790D02*
X128944475Y-134338314D01*
X128944475Y-134338314D02*
X128896856Y-134243076D01*
X128896856Y-134243076D02*
X128801618Y-134147838D01*
X128801618Y-134147838D02*
X128658761Y-134100219D01*
X128658761Y-134100219D02*
X128563523Y-134100219D01*
X128563523Y-134100219D02*
X128420666Y-134147838D01*
X128420666Y-134147838D02*
X128373047Y-134195457D01*
X127992094Y-134195457D02*
X127944475Y-134147838D01*
X127944475Y-134147838D02*
X127849237Y-134100219D01*
X127849237Y-134100219D02*
X127611142Y-134100219D01*
X127611142Y-134100219D02*
X127515904Y-134147838D01*
X127515904Y-134147838D02*
X127468285Y-134195457D01*
X127468285Y-134195457D02*
X127420666Y-134290695D01*
X127420666Y-134290695D02*
X127420666Y-134385933D01*
X127420666Y-134385933D02*
X127468285Y-134528790D01*
X127468285Y-134528790D02*
X128039713Y-135100219D01*
X128039713Y-135100219D02*
X127420666Y-135100219D01*
X126563523Y-134100219D02*
X126753999Y-134100219D01*
X126753999Y-134100219D02*
X126849237Y-134147838D01*
X126849237Y-134147838D02*
X126896856Y-134195457D01*
X126896856Y-134195457D02*
X126992094Y-134338314D01*
X126992094Y-134338314D02*
X127039713Y-134528790D01*
X127039713Y-134528790D02*
X127039713Y-134909742D01*
X127039713Y-134909742D02*
X126992094Y-135004980D01*
X126992094Y-135004980D02*
X126944475Y-135052600D01*
X126944475Y-135052600D02*
X126849237Y-135100219D01*
X126849237Y-135100219D02*
X126658761Y-135100219D01*
X126658761Y-135100219D02*
X126563523Y-135052600D01*
X126563523Y-135052600D02*
X126515904Y-135004980D01*
X126515904Y-135004980D02*
X126468285Y-134909742D01*
X126468285Y-134909742D02*
X126468285Y-134671647D01*
X126468285Y-134671647D02*
X126515904Y-134576409D01*
X126515904Y-134576409D02*
X126563523Y-134528790D01*
X126563523Y-134528790D02*
X126658761Y-134481171D01*
X126658761Y-134481171D02*
X126849237Y-134481171D01*
X126849237Y-134481171D02*
X126944475Y-134528790D01*
X126944475Y-134528790D02*
X126992094Y-134576409D01*
X126992094Y-134576409D02*
X127039713Y-134671647D01*
X125849237Y-134100219D02*
X125753999Y-134100219D01*
X125753999Y-134100219D02*
X125658761Y-134147838D01*
X125658761Y-134147838D02*
X125611142Y-134195457D01*
X125611142Y-134195457D02*
X125563523Y-134290695D01*
X125563523Y-134290695D02*
X125515904Y-134481171D01*
X125515904Y-134481171D02*
X125515904Y-134719266D01*
X125515904Y-134719266D02*
X125563523Y-134909742D01*
X125563523Y-134909742D02*
X125611142Y-135004980D01*
X125611142Y-135004980D02*
X125658761Y-135052600D01*
X125658761Y-135052600D02*
X125753999Y-135100219D01*
X125753999Y-135100219D02*
X125849237Y-135100219D01*
X125849237Y-135100219D02*
X125944475Y-135052600D01*
X125944475Y-135052600D02*
X125992094Y-135004980D01*
X125992094Y-135004980D02*
X126039713Y-134909742D01*
X126039713Y-134909742D02*
X126087332Y-134719266D01*
X126087332Y-134719266D02*
X126087332Y-134481171D01*
X126087332Y-134481171D02*
X126039713Y-134290695D01*
X126039713Y-134290695D02*
X125992094Y-134195457D01*
X125992094Y-134195457D02*
X125944475Y-134147838D01*
X125944475Y-134147838D02*
X125849237Y-134100219D01*
D12*
X99399934Y-132566848D02*
X99448315Y-132518467D01*
X99448315Y-132518467D02*
X99496695Y-132373324D01*
X99496695Y-132373324D02*
X99496695Y-132276562D01*
X99496695Y-132276562D02*
X99448315Y-132131419D01*
X99448315Y-132131419D02*
X99351553Y-132034657D01*
X99351553Y-132034657D02*
X99254791Y-131986276D01*
X99254791Y-131986276D02*
X99061267Y-131937895D01*
X99061267Y-131937895D02*
X98916124Y-131937895D01*
X98916124Y-131937895D02*
X98722600Y-131986276D01*
X98722600Y-131986276D02*
X98625838Y-132034657D01*
X98625838Y-132034657D02*
X98529076Y-132131419D01*
X98529076Y-132131419D02*
X98480695Y-132276562D01*
X98480695Y-132276562D02*
X98480695Y-132373324D01*
X98480695Y-132373324D02*
X98529076Y-132518467D01*
X98529076Y-132518467D02*
X98577457Y-132566848D01*
X98577457Y-132953895D02*
X98529076Y-133002276D01*
X98529076Y-133002276D02*
X98480695Y-133099038D01*
X98480695Y-133099038D02*
X98480695Y-133340943D01*
X98480695Y-133340943D02*
X98529076Y-133437705D01*
X98529076Y-133437705D02*
X98577457Y-133486086D01*
X98577457Y-133486086D02*
X98674219Y-133534467D01*
X98674219Y-133534467D02*
X98770981Y-133534467D01*
X98770981Y-133534467D02*
X98916124Y-133486086D01*
X98916124Y-133486086D02*
X99496695Y-132905514D01*
X99496695Y-132905514D02*
X99496695Y-133534467D01*
X98480695Y-133873133D02*
X98480695Y-134550467D01*
X98480695Y-134550467D02*
X99496695Y-134115038D01*
X98480695Y-135421324D02*
X98480695Y-134937514D01*
X98480695Y-134937514D02*
X98964505Y-134889133D01*
X98964505Y-134889133D02*
X98916124Y-134937514D01*
X98916124Y-134937514D02*
X98867743Y-135034276D01*
X98867743Y-135034276D02*
X98867743Y-135276181D01*
X98867743Y-135276181D02*
X98916124Y-135372943D01*
X98916124Y-135372943D02*
X98964505Y-135421324D01*
X98964505Y-135421324D02*
X99061267Y-135469705D01*
X99061267Y-135469705D02*
X99303172Y-135469705D01*
X99303172Y-135469705D02*
X99399934Y-135421324D01*
X99399934Y-135421324D02*
X99448315Y-135372943D01*
X99448315Y-135372943D02*
X99496695Y-135276181D01*
X99496695Y-135276181D02*
X99496695Y-135034276D01*
X99496695Y-135034276D02*
X99448315Y-134937514D01*
X99448315Y-134937514D02*
X99399934Y-134889133D01*
D10*
X136217819Y-152848618D02*
X135741628Y-152515285D01*
X136217819Y-152277190D02*
X135217819Y-152277190D01*
X135217819Y-152277190D02*
X135217819Y-152658142D01*
X135217819Y-152658142D02*
X135265438Y-152753380D01*
X135265438Y-152753380D02*
X135313057Y-152800999D01*
X135313057Y-152800999D02*
X135408295Y-152848618D01*
X135408295Y-152848618D02*
X135551152Y-152848618D01*
X135551152Y-152848618D02*
X135646390Y-152800999D01*
X135646390Y-152800999D02*
X135694009Y-152753380D01*
X135694009Y-152753380D02*
X135741628Y-152658142D01*
X135741628Y-152658142D02*
X135741628Y-152277190D01*
X135313057Y-153229571D02*
X135265438Y-153277190D01*
X135265438Y-153277190D02*
X135217819Y-153372428D01*
X135217819Y-153372428D02*
X135217819Y-153610523D01*
X135217819Y-153610523D02*
X135265438Y-153705761D01*
X135265438Y-153705761D02*
X135313057Y-153753380D01*
X135313057Y-153753380D02*
X135408295Y-153800999D01*
X135408295Y-153800999D02*
X135503533Y-153800999D01*
X135503533Y-153800999D02*
X135646390Y-153753380D01*
X135646390Y-153753380D02*
X136217819Y-153181952D01*
X136217819Y-153181952D02*
X136217819Y-153800999D01*
X135217819Y-154658142D02*
X135217819Y-154467666D01*
X135217819Y-154467666D02*
X135265438Y-154372428D01*
X135265438Y-154372428D02*
X135313057Y-154324809D01*
X135313057Y-154324809D02*
X135455914Y-154229571D01*
X135455914Y-154229571D02*
X135646390Y-154181952D01*
X135646390Y-154181952D02*
X136027342Y-154181952D01*
X136027342Y-154181952D02*
X136122580Y-154229571D01*
X136122580Y-154229571D02*
X136170200Y-154277190D01*
X136170200Y-154277190D02*
X136217819Y-154372428D01*
X136217819Y-154372428D02*
X136217819Y-154562904D01*
X136217819Y-154562904D02*
X136170200Y-154658142D01*
X136170200Y-154658142D02*
X136122580Y-154705761D01*
X136122580Y-154705761D02*
X136027342Y-154753380D01*
X136027342Y-154753380D02*
X135789247Y-154753380D01*
X135789247Y-154753380D02*
X135694009Y-154705761D01*
X135694009Y-154705761D02*
X135646390Y-154658142D01*
X135646390Y-154658142D02*
X135598771Y-154562904D01*
X135598771Y-154562904D02*
X135598771Y-154372428D01*
X135598771Y-154372428D02*
X135646390Y-154277190D01*
X135646390Y-154277190D02*
X135694009Y-154229571D01*
X135694009Y-154229571D02*
X135789247Y-154181952D01*
X79732047Y-121466780D02*
X79779666Y-121514400D01*
X79779666Y-121514400D02*
X79922523Y-121562019D01*
X79922523Y-121562019D02*
X80017761Y-121562019D01*
X80017761Y-121562019D02*
X80160618Y-121514400D01*
X80160618Y-121514400D02*
X80255856Y-121419161D01*
X80255856Y-121419161D02*
X80303475Y-121323923D01*
X80303475Y-121323923D02*
X80351094Y-121133447D01*
X80351094Y-121133447D02*
X80351094Y-120990590D01*
X80351094Y-120990590D02*
X80303475Y-120800114D01*
X80303475Y-120800114D02*
X80255856Y-120704876D01*
X80255856Y-120704876D02*
X80160618Y-120609638D01*
X80160618Y-120609638D02*
X80017761Y-120562019D01*
X80017761Y-120562019D02*
X79922523Y-120562019D01*
X79922523Y-120562019D02*
X79779666Y-120609638D01*
X79779666Y-120609638D02*
X79732047Y-120657257D01*
X79351094Y-120657257D02*
X79303475Y-120609638D01*
X79303475Y-120609638D02*
X79208237Y-120562019D01*
X79208237Y-120562019D02*
X78970142Y-120562019D01*
X78970142Y-120562019D02*
X78874904Y-120609638D01*
X78874904Y-120609638D02*
X78827285Y-120657257D01*
X78827285Y-120657257D02*
X78779666Y-120752495D01*
X78779666Y-120752495D02*
X78779666Y-120847733D01*
X78779666Y-120847733D02*
X78827285Y-120990590D01*
X78827285Y-120990590D02*
X79398713Y-121562019D01*
X79398713Y-121562019D02*
X78779666Y-121562019D01*
X77922523Y-120562019D02*
X78112999Y-120562019D01*
X78112999Y-120562019D02*
X78208237Y-120609638D01*
X78208237Y-120609638D02*
X78255856Y-120657257D01*
X78255856Y-120657257D02*
X78351094Y-120800114D01*
X78351094Y-120800114D02*
X78398713Y-120990590D01*
X78398713Y-120990590D02*
X78398713Y-121371542D01*
X78398713Y-121371542D02*
X78351094Y-121466780D01*
X78351094Y-121466780D02*
X78303475Y-121514400D01*
X78303475Y-121514400D02*
X78208237Y-121562019D01*
X78208237Y-121562019D02*
X78017761Y-121562019D01*
X78017761Y-121562019D02*
X77922523Y-121514400D01*
X77922523Y-121514400D02*
X77874904Y-121466780D01*
X77874904Y-121466780D02*
X77827285Y-121371542D01*
X77827285Y-121371542D02*
X77827285Y-121133447D01*
X77827285Y-121133447D02*
X77874904Y-121038209D01*
X77874904Y-121038209D02*
X77922523Y-120990590D01*
X77922523Y-120990590D02*
X78017761Y-120942971D01*
X78017761Y-120942971D02*
X78208237Y-120942971D01*
X78208237Y-120942971D02*
X78303475Y-120990590D01*
X78303475Y-120990590D02*
X78351094Y-121038209D01*
X78351094Y-121038209D02*
X78398713Y-121133447D01*
X77351094Y-121562019D02*
X77160618Y-121562019D01*
X77160618Y-121562019D02*
X77065380Y-121514400D01*
X77065380Y-121514400D02*
X77017761Y-121466780D01*
X77017761Y-121466780D02*
X76922523Y-121323923D01*
X76922523Y-121323923D02*
X76874904Y-121133447D01*
X76874904Y-121133447D02*
X76874904Y-120752495D01*
X76874904Y-120752495D02*
X76922523Y-120657257D01*
X76922523Y-120657257D02*
X76970142Y-120609638D01*
X76970142Y-120609638D02*
X77065380Y-120562019D01*
X77065380Y-120562019D02*
X77255856Y-120562019D01*
X77255856Y-120562019D02*
X77351094Y-120609638D01*
X77351094Y-120609638D02*
X77398713Y-120657257D01*
X77398713Y-120657257D02*
X77446332Y-120752495D01*
X77446332Y-120752495D02*
X77446332Y-120990590D01*
X77446332Y-120990590D02*
X77398713Y-121085828D01*
X77398713Y-121085828D02*
X77351094Y-121133447D01*
X77351094Y-121133447D02*
X77255856Y-121181066D01*
X77255856Y-121181066D02*
X77065380Y-121181066D01*
X77065380Y-121181066D02*
X76970142Y-121133447D01*
X76970142Y-121133447D02*
X76922523Y-121085828D01*
X76922523Y-121085828D02*
X76874904Y-120990590D01*
X58907819Y-118451333D02*
X58431628Y-118118000D01*
X58907819Y-117879905D02*
X57907819Y-117879905D01*
X57907819Y-117879905D02*
X57907819Y-118260857D01*
X57907819Y-118260857D02*
X57955438Y-118356095D01*
X57955438Y-118356095D02*
X58003057Y-118403714D01*
X58003057Y-118403714D02*
X58098295Y-118451333D01*
X58098295Y-118451333D02*
X58241152Y-118451333D01*
X58241152Y-118451333D02*
X58336390Y-118403714D01*
X58336390Y-118403714D02*
X58384009Y-118356095D01*
X58384009Y-118356095D02*
X58431628Y-118260857D01*
X58431628Y-118260857D02*
X58431628Y-117879905D01*
X58241152Y-119308476D02*
X58907819Y-119308476D01*
X57860200Y-119070381D02*
X58574485Y-118832286D01*
X58574485Y-118832286D02*
X58574485Y-119451333D01*
X141932819Y-156259352D02*
X141932819Y-155783162D01*
X141932819Y-155783162D02*
X140932819Y-155783162D01*
X141409009Y-156592686D02*
X141409009Y-156926019D01*
X141932819Y-157068876D02*
X141932819Y-156592686D01*
X141932819Y-156592686D02*
X140932819Y-156592686D01*
X140932819Y-156592686D02*
X140932819Y-157068876D01*
X141932819Y-157497448D02*
X140932819Y-157497448D01*
X140932819Y-157497448D02*
X140932819Y-157735543D01*
X140932819Y-157735543D02*
X140980438Y-157878400D01*
X140980438Y-157878400D02*
X141075676Y-157973638D01*
X141075676Y-157973638D02*
X141170914Y-158021257D01*
X141170914Y-158021257D02*
X141361390Y-158068876D01*
X141361390Y-158068876D02*
X141504247Y-158068876D01*
X141504247Y-158068876D02*
X141694723Y-158021257D01*
X141694723Y-158021257D02*
X141789961Y-157973638D01*
X141789961Y-157973638D02*
X141885200Y-157878400D01*
X141885200Y-157878400D02*
X141932819Y-157735543D01*
X141932819Y-157735543D02*
X141932819Y-157497448D01*
X141028057Y-158449829D02*
X140980438Y-158497448D01*
X140980438Y-158497448D02*
X140932819Y-158592686D01*
X140932819Y-158592686D02*
X140932819Y-158830781D01*
X140932819Y-158830781D02*
X140980438Y-158926019D01*
X140980438Y-158926019D02*
X141028057Y-158973638D01*
X141028057Y-158973638D02*
X141123295Y-159021257D01*
X141123295Y-159021257D02*
X141218533Y-159021257D01*
X141218533Y-159021257D02*
X141361390Y-158973638D01*
X141361390Y-158973638D02*
X141932819Y-158402210D01*
X141932819Y-158402210D02*
X141932819Y-159021257D01*
X123216847Y-138230780D02*
X123264466Y-138278400D01*
X123264466Y-138278400D02*
X123407323Y-138326019D01*
X123407323Y-138326019D02*
X123502561Y-138326019D01*
X123502561Y-138326019D02*
X123645418Y-138278400D01*
X123645418Y-138278400D02*
X123740656Y-138183161D01*
X123740656Y-138183161D02*
X123788275Y-138087923D01*
X123788275Y-138087923D02*
X123835894Y-137897447D01*
X123835894Y-137897447D02*
X123835894Y-137754590D01*
X123835894Y-137754590D02*
X123788275Y-137564114D01*
X123788275Y-137564114D02*
X123740656Y-137468876D01*
X123740656Y-137468876D02*
X123645418Y-137373638D01*
X123645418Y-137373638D02*
X123502561Y-137326019D01*
X123502561Y-137326019D02*
X123407323Y-137326019D01*
X123407323Y-137326019D02*
X123264466Y-137373638D01*
X123264466Y-137373638D02*
X123216847Y-137421257D01*
X122835894Y-137421257D02*
X122788275Y-137373638D01*
X122788275Y-137373638D02*
X122693037Y-137326019D01*
X122693037Y-137326019D02*
X122454942Y-137326019D01*
X122454942Y-137326019D02*
X122359704Y-137373638D01*
X122359704Y-137373638D02*
X122312085Y-137421257D01*
X122312085Y-137421257D02*
X122264466Y-137516495D01*
X122264466Y-137516495D02*
X122264466Y-137611733D01*
X122264466Y-137611733D02*
X122312085Y-137754590D01*
X122312085Y-137754590D02*
X122883513Y-138326019D01*
X122883513Y-138326019D02*
X122264466Y-138326019D01*
X121931132Y-137326019D02*
X121264466Y-137326019D01*
X121264466Y-137326019D02*
X121693037Y-138326019D01*
X120978751Y-137326019D02*
X120359704Y-137326019D01*
X120359704Y-137326019D02*
X120693037Y-137706971D01*
X120693037Y-137706971D02*
X120550180Y-137706971D01*
X120550180Y-137706971D02*
X120454942Y-137754590D01*
X120454942Y-137754590D02*
X120407323Y-137802209D01*
X120407323Y-137802209D02*
X120359704Y-137897447D01*
X120359704Y-137897447D02*
X120359704Y-138135542D01*
X120359704Y-138135542D02*
X120407323Y-138230780D01*
X120407323Y-138230780D02*
X120454942Y-138278400D01*
X120454942Y-138278400D02*
X120550180Y-138326019D01*
X120550180Y-138326019D02*
X120835894Y-138326019D01*
X120835894Y-138326019D02*
X120931132Y-138278400D01*
X120931132Y-138278400D02*
X120978751Y-138230780D01*
X112628819Y-154138333D02*
X112152628Y-153805000D01*
X112628819Y-153566905D02*
X111628819Y-153566905D01*
X111628819Y-153566905D02*
X111628819Y-153947857D01*
X111628819Y-153947857D02*
X111676438Y-154043095D01*
X111676438Y-154043095D02*
X111724057Y-154090714D01*
X111724057Y-154090714D02*
X111819295Y-154138333D01*
X111819295Y-154138333D02*
X111962152Y-154138333D01*
X111962152Y-154138333D02*
X112057390Y-154090714D01*
X112057390Y-154090714D02*
X112105009Y-154043095D01*
X112105009Y-154043095D02*
X112152628Y-153947857D01*
X112152628Y-153947857D02*
X112152628Y-153566905D01*
X112628819Y-155090714D02*
X112628819Y-154519286D01*
X112628819Y-154805000D02*
X111628819Y-154805000D01*
X111628819Y-154805000D02*
X111771676Y-154709762D01*
X111771676Y-154709762D02*
X111866914Y-154614524D01*
X111866914Y-154614524D02*
X111914533Y-154519286D01*
X107536819Y-153162095D02*
X108346342Y-153162095D01*
X108346342Y-153162095D02*
X108441580Y-153209714D01*
X108441580Y-153209714D02*
X108489200Y-153257333D01*
X108489200Y-153257333D02*
X108536819Y-153352571D01*
X108536819Y-153352571D02*
X108536819Y-153543047D01*
X108536819Y-153543047D02*
X108489200Y-153638285D01*
X108489200Y-153638285D02*
X108441580Y-153685904D01*
X108441580Y-153685904D02*
X108346342Y-153733523D01*
X108346342Y-153733523D02*
X107536819Y-153733523D01*
X107536819Y-154685904D02*
X107536819Y-154209714D01*
X107536819Y-154209714D02*
X108013009Y-154162095D01*
X108013009Y-154162095D02*
X107965390Y-154209714D01*
X107965390Y-154209714D02*
X107917771Y-154304952D01*
X107917771Y-154304952D02*
X107917771Y-154543047D01*
X107917771Y-154543047D02*
X107965390Y-154638285D01*
X107965390Y-154638285D02*
X108013009Y-154685904D01*
X108013009Y-154685904D02*
X108108247Y-154733523D01*
X108108247Y-154733523D02*
X108346342Y-154733523D01*
X108346342Y-154733523D02*
X108441580Y-154685904D01*
X108441580Y-154685904D02*
X108489200Y-154638285D01*
X108489200Y-154638285D02*
X108536819Y-154543047D01*
X108536819Y-154543047D02*
X108536819Y-154304952D01*
X108536819Y-154304952D02*
X108489200Y-154209714D01*
X108489200Y-154209714D02*
X108441580Y-154162095D01*
X73667857Y-118404819D02*
X74001190Y-117928628D01*
X74239285Y-118404819D02*
X74239285Y-117404819D01*
X74239285Y-117404819D02*
X73858333Y-117404819D01*
X73858333Y-117404819D02*
X73763095Y-117452438D01*
X73763095Y-117452438D02*
X73715476Y-117500057D01*
X73715476Y-117500057D02*
X73667857Y-117595295D01*
X73667857Y-117595295D02*
X73667857Y-117738152D01*
X73667857Y-117738152D02*
X73715476Y-117833390D01*
X73715476Y-117833390D02*
X73763095Y-117881009D01*
X73763095Y-117881009D02*
X73858333Y-117928628D01*
X73858333Y-117928628D02*
X74239285Y-117928628D01*
X72715476Y-118404819D02*
X73286904Y-118404819D01*
X73001190Y-118404819D02*
X73001190Y-117404819D01*
X73001190Y-117404819D02*
X73096428Y-117547676D01*
X73096428Y-117547676D02*
X73191666Y-117642914D01*
X73191666Y-117642914D02*
X73286904Y-117690533D01*
X71763095Y-118404819D02*
X72334523Y-118404819D01*
X72048809Y-118404819D02*
X72048809Y-117404819D01*
X72048809Y-117404819D02*
X72144047Y-117547676D01*
X72144047Y-117547676D02*
X72239285Y-117642914D01*
X72239285Y-117642914D02*
X72334523Y-117690533D01*
X93962457Y-151864219D02*
X94295790Y-151388028D01*
X94533885Y-151864219D02*
X94533885Y-150864219D01*
X94533885Y-150864219D02*
X94152933Y-150864219D01*
X94152933Y-150864219D02*
X94057695Y-150911838D01*
X94057695Y-150911838D02*
X94010076Y-150959457D01*
X94010076Y-150959457D02*
X93962457Y-151054695D01*
X93962457Y-151054695D02*
X93962457Y-151197552D01*
X93962457Y-151197552D02*
X94010076Y-151292790D01*
X94010076Y-151292790D02*
X94057695Y-151340409D01*
X94057695Y-151340409D02*
X94152933Y-151388028D01*
X94152933Y-151388028D02*
X94533885Y-151388028D01*
X93581504Y-150959457D02*
X93533885Y-150911838D01*
X93533885Y-150911838D02*
X93438647Y-150864219D01*
X93438647Y-150864219D02*
X93200552Y-150864219D01*
X93200552Y-150864219D02*
X93105314Y-150911838D01*
X93105314Y-150911838D02*
X93057695Y-150959457D01*
X93057695Y-150959457D02*
X93010076Y-151054695D01*
X93010076Y-151054695D02*
X93010076Y-151149933D01*
X93010076Y-151149933D02*
X93057695Y-151292790D01*
X93057695Y-151292790D02*
X93629123Y-151864219D01*
X93629123Y-151864219D02*
X93010076Y-151864219D01*
X92676742Y-150864219D02*
X92057695Y-150864219D01*
X92057695Y-150864219D02*
X92391028Y-151245171D01*
X92391028Y-151245171D02*
X92248171Y-151245171D01*
X92248171Y-151245171D02*
X92152933Y-151292790D01*
X92152933Y-151292790D02*
X92105314Y-151340409D01*
X92105314Y-151340409D02*
X92057695Y-151435647D01*
X92057695Y-151435647D02*
X92057695Y-151673742D01*
X92057695Y-151673742D02*
X92105314Y-151768980D01*
X92105314Y-151768980D02*
X92152933Y-151816600D01*
X92152933Y-151816600D02*
X92248171Y-151864219D01*
X92248171Y-151864219D02*
X92533885Y-151864219D01*
X92533885Y-151864219D02*
X92629123Y-151816600D01*
X92629123Y-151816600D02*
X92676742Y-151768980D01*
X60684580Y-127201752D02*
X60732200Y-127154133D01*
X60732200Y-127154133D02*
X60779819Y-127011276D01*
X60779819Y-127011276D02*
X60779819Y-126916038D01*
X60779819Y-126916038D02*
X60732200Y-126773181D01*
X60732200Y-126773181D02*
X60636961Y-126677943D01*
X60636961Y-126677943D02*
X60541723Y-126630324D01*
X60541723Y-126630324D02*
X60351247Y-126582705D01*
X60351247Y-126582705D02*
X60208390Y-126582705D01*
X60208390Y-126582705D02*
X60017914Y-126630324D01*
X60017914Y-126630324D02*
X59922676Y-126677943D01*
X59922676Y-126677943D02*
X59827438Y-126773181D01*
X59827438Y-126773181D02*
X59779819Y-126916038D01*
X59779819Y-126916038D02*
X59779819Y-127011276D01*
X59779819Y-127011276D02*
X59827438Y-127154133D01*
X59827438Y-127154133D02*
X59875057Y-127201752D01*
X59875057Y-127582705D02*
X59827438Y-127630324D01*
X59827438Y-127630324D02*
X59779819Y-127725562D01*
X59779819Y-127725562D02*
X59779819Y-127963657D01*
X59779819Y-127963657D02*
X59827438Y-128058895D01*
X59827438Y-128058895D02*
X59875057Y-128106514D01*
X59875057Y-128106514D02*
X59970295Y-128154133D01*
X59970295Y-128154133D02*
X60065533Y-128154133D01*
X60065533Y-128154133D02*
X60208390Y-128106514D01*
X60208390Y-128106514D02*
X60779819Y-127535086D01*
X60779819Y-127535086D02*
X60779819Y-128154133D01*
X59779819Y-128487467D02*
X59779819Y-129154133D01*
X59779819Y-129154133D02*
X60779819Y-128725562D01*
X59779819Y-129963657D02*
X59779819Y-129773181D01*
X59779819Y-129773181D02*
X59827438Y-129677943D01*
X59827438Y-129677943D02*
X59875057Y-129630324D01*
X59875057Y-129630324D02*
X60017914Y-129535086D01*
X60017914Y-129535086D02*
X60208390Y-129487467D01*
X60208390Y-129487467D02*
X60589342Y-129487467D01*
X60589342Y-129487467D02*
X60684580Y-129535086D01*
X60684580Y-129535086D02*
X60732200Y-129582705D01*
X60732200Y-129582705D02*
X60779819Y-129677943D01*
X60779819Y-129677943D02*
X60779819Y-129868419D01*
X60779819Y-129868419D02*
X60732200Y-129963657D01*
X60732200Y-129963657D02*
X60684580Y-130011276D01*
X60684580Y-130011276D02*
X60589342Y-130058895D01*
X60589342Y-130058895D02*
X60351247Y-130058895D01*
X60351247Y-130058895D02*
X60256009Y-130011276D01*
X60256009Y-130011276D02*
X60208390Y-129963657D01*
X60208390Y-129963657D02*
X60160771Y-129868419D01*
X60160771Y-129868419D02*
X60160771Y-129677943D01*
X60160771Y-129677943D02*
X60208390Y-129582705D01*
X60208390Y-129582705D02*
X60256009Y-129535086D01*
X60256009Y-129535086D02*
X60351247Y-129487467D01*
X113266457Y-147139819D02*
X113599790Y-146663628D01*
X113837885Y-147139819D02*
X113837885Y-146139819D01*
X113837885Y-146139819D02*
X113456933Y-146139819D01*
X113456933Y-146139819D02*
X113361695Y-146187438D01*
X113361695Y-146187438D02*
X113314076Y-146235057D01*
X113314076Y-146235057D02*
X113266457Y-146330295D01*
X113266457Y-146330295D02*
X113266457Y-146473152D01*
X113266457Y-146473152D02*
X113314076Y-146568390D01*
X113314076Y-146568390D02*
X113361695Y-146616009D01*
X113361695Y-146616009D02*
X113456933Y-146663628D01*
X113456933Y-146663628D02*
X113837885Y-146663628D01*
X112885504Y-146235057D02*
X112837885Y-146187438D01*
X112837885Y-146187438D02*
X112742647Y-146139819D01*
X112742647Y-146139819D02*
X112504552Y-146139819D01*
X112504552Y-146139819D02*
X112409314Y-146187438D01*
X112409314Y-146187438D02*
X112361695Y-146235057D01*
X112361695Y-146235057D02*
X112314076Y-146330295D01*
X112314076Y-146330295D02*
X112314076Y-146425533D01*
X112314076Y-146425533D02*
X112361695Y-146568390D01*
X112361695Y-146568390D02*
X112933123Y-147139819D01*
X112933123Y-147139819D02*
X112314076Y-147139819D01*
X111361695Y-147139819D02*
X111933123Y-147139819D01*
X111647409Y-147139819D02*
X111647409Y-146139819D01*
X111647409Y-146139819D02*
X111742647Y-146282676D01*
X111742647Y-146282676D02*
X111837885Y-146377914D01*
X111837885Y-146377914D02*
X111933123Y-146425533D01*
X93962457Y-153362819D02*
X94295790Y-152886628D01*
X94533885Y-153362819D02*
X94533885Y-152362819D01*
X94533885Y-152362819D02*
X94152933Y-152362819D01*
X94152933Y-152362819D02*
X94057695Y-152410438D01*
X94057695Y-152410438D02*
X94010076Y-152458057D01*
X94010076Y-152458057D02*
X93962457Y-152553295D01*
X93962457Y-152553295D02*
X93962457Y-152696152D01*
X93962457Y-152696152D02*
X94010076Y-152791390D01*
X94010076Y-152791390D02*
X94057695Y-152839009D01*
X94057695Y-152839009D02*
X94152933Y-152886628D01*
X94152933Y-152886628D02*
X94533885Y-152886628D01*
X93581504Y-152458057D02*
X93533885Y-152410438D01*
X93533885Y-152410438D02*
X93438647Y-152362819D01*
X93438647Y-152362819D02*
X93200552Y-152362819D01*
X93200552Y-152362819D02*
X93105314Y-152410438D01*
X93105314Y-152410438D02*
X93057695Y-152458057D01*
X93057695Y-152458057D02*
X93010076Y-152553295D01*
X93010076Y-152553295D02*
X93010076Y-152648533D01*
X93010076Y-152648533D02*
X93057695Y-152791390D01*
X93057695Y-152791390D02*
X93629123Y-153362819D01*
X93629123Y-153362819D02*
X93010076Y-153362819D01*
X92629123Y-152458057D02*
X92581504Y-152410438D01*
X92581504Y-152410438D02*
X92486266Y-152362819D01*
X92486266Y-152362819D02*
X92248171Y-152362819D01*
X92248171Y-152362819D02*
X92152933Y-152410438D01*
X92152933Y-152410438D02*
X92105314Y-152458057D01*
X92105314Y-152458057D02*
X92057695Y-152553295D01*
X92057695Y-152553295D02*
X92057695Y-152648533D01*
X92057695Y-152648533D02*
X92105314Y-152791390D01*
X92105314Y-152791390D02*
X92676742Y-153362819D01*
X92676742Y-153362819D02*
X92057695Y-153362819D01*
X110159580Y-129690952D02*
X110207200Y-129643333D01*
X110207200Y-129643333D02*
X110254819Y-129500476D01*
X110254819Y-129500476D02*
X110254819Y-129405238D01*
X110254819Y-129405238D02*
X110207200Y-129262381D01*
X110207200Y-129262381D02*
X110111961Y-129167143D01*
X110111961Y-129167143D02*
X110016723Y-129119524D01*
X110016723Y-129119524D02*
X109826247Y-129071905D01*
X109826247Y-129071905D02*
X109683390Y-129071905D01*
X109683390Y-129071905D02*
X109492914Y-129119524D01*
X109492914Y-129119524D02*
X109397676Y-129167143D01*
X109397676Y-129167143D02*
X109302438Y-129262381D01*
X109302438Y-129262381D02*
X109254819Y-129405238D01*
X109254819Y-129405238D02*
X109254819Y-129500476D01*
X109254819Y-129500476D02*
X109302438Y-129643333D01*
X109302438Y-129643333D02*
X109350057Y-129690952D01*
X109350057Y-130071905D02*
X109302438Y-130119524D01*
X109302438Y-130119524D02*
X109254819Y-130214762D01*
X109254819Y-130214762D02*
X109254819Y-130452857D01*
X109254819Y-130452857D02*
X109302438Y-130548095D01*
X109302438Y-130548095D02*
X109350057Y-130595714D01*
X109350057Y-130595714D02*
X109445295Y-130643333D01*
X109445295Y-130643333D02*
X109540533Y-130643333D01*
X109540533Y-130643333D02*
X109683390Y-130595714D01*
X109683390Y-130595714D02*
X110254819Y-130024286D01*
X110254819Y-130024286D02*
X110254819Y-130643333D01*
X109254819Y-130976667D02*
X109254819Y-131643333D01*
X109254819Y-131643333D02*
X110254819Y-131214762D01*
X109588152Y-132452857D02*
X110254819Y-132452857D01*
X109207200Y-132214762D02*
X109921485Y-131976667D01*
X109921485Y-131976667D02*
X109921485Y-132595714D01*
X76781819Y-123328133D02*
X76305628Y-122994800D01*
X76781819Y-122756705D02*
X75781819Y-122756705D01*
X75781819Y-122756705D02*
X75781819Y-123137657D01*
X75781819Y-123137657D02*
X75829438Y-123232895D01*
X75829438Y-123232895D02*
X75877057Y-123280514D01*
X75877057Y-123280514D02*
X75972295Y-123328133D01*
X75972295Y-123328133D02*
X76115152Y-123328133D01*
X76115152Y-123328133D02*
X76210390Y-123280514D01*
X76210390Y-123280514D02*
X76258009Y-123232895D01*
X76258009Y-123232895D02*
X76305628Y-123137657D01*
X76305628Y-123137657D02*
X76305628Y-122756705D01*
X76781819Y-123804324D02*
X76781819Y-123994800D01*
X76781819Y-123994800D02*
X76734200Y-124090038D01*
X76734200Y-124090038D02*
X76686580Y-124137657D01*
X76686580Y-124137657D02*
X76543723Y-124232895D01*
X76543723Y-124232895D02*
X76353247Y-124280514D01*
X76353247Y-124280514D02*
X75972295Y-124280514D01*
X75972295Y-124280514D02*
X75877057Y-124232895D01*
X75877057Y-124232895D02*
X75829438Y-124185276D01*
X75829438Y-124185276D02*
X75781819Y-124090038D01*
X75781819Y-124090038D02*
X75781819Y-123899562D01*
X75781819Y-123899562D02*
X75829438Y-123804324D01*
X75829438Y-123804324D02*
X75877057Y-123756705D01*
X75877057Y-123756705D02*
X75972295Y-123709086D01*
X75972295Y-123709086D02*
X76210390Y-123709086D01*
X76210390Y-123709086D02*
X76305628Y-123756705D01*
X76305628Y-123756705D02*
X76353247Y-123804324D01*
X76353247Y-123804324D02*
X76400866Y-123899562D01*
X76400866Y-123899562D02*
X76400866Y-124090038D01*
X76400866Y-124090038D02*
X76353247Y-124185276D01*
X76353247Y-124185276D02*
X76305628Y-124232895D01*
X76305628Y-124232895D02*
X76210390Y-124280514D01*
X82653047Y-155879580D02*
X82700666Y-155927200D01*
X82700666Y-155927200D02*
X82843523Y-155974819D01*
X82843523Y-155974819D02*
X82938761Y-155974819D01*
X82938761Y-155974819D02*
X83081618Y-155927200D01*
X83081618Y-155927200D02*
X83176856Y-155831961D01*
X83176856Y-155831961D02*
X83224475Y-155736723D01*
X83224475Y-155736723D02*
X83272094Y-155546247D01*
X83272094Y-155546247D02*
X83272094Y-155403390D01*
X83272094Y-155403390D02*
X83224475Y-155212914D01*
X83224475Y-155212914D02*
X83176856Y-155117676D01*
X83176856Y-155117676D02*
X83081618Y-155022438D01*
X83081618Y-155022438D02*
X82938761Y-154974819D01*
X82938761Y-154974819D02*
X82843523Y-154974819D01*
X82843523Y-154974819D02*
X82700666Y-155022438D01*
X82700666Y-155022438D02*
X82653047Y-155070057D01*
X82272094Y-155070057D02*
X82224475Y-155022438D01*
X82224475Y-155022438D02*
X82129237Y-154974819D01*
X82129237Y-154974819D02*
X81891142Y-154974819D01*
X81891142Y-154974819D02*
X81795904Y-155022438D01*
X81795904Y-155022438D02*
X81748285Y-155070057D01*
X81748285Y-155070057D02*
X81700666Y-155165295D01*
X81700666Y-155165295D02*
X81700666Y-155260533D01*
X81700666Y-155260533D02*
X81748285Y-155403390D01*
X81748285Y-155403390D02*
X82319713Y-155974819D01*
X82319713Y-155974819D02*
X81700666Y-155974819D01*
X81367332Y-154974819D02*
X80700666Y-154974819D01*
X80700666Y-154974819D02*
X81129237Y-155974819D01*
X80129237Y-154974819D02*
X80033999Y-154974819D01*
X80033999Y-154974819D02*
X79938761Y-155022438D01*
X79938761Y-155022438D02*
X79891142Y-155070057D01*
X79891142Y-155070057D02*
X79843523Y-155165295D01*
X79843523Y-155165295D02*
X79795904Y-155355771D01*
X79795904Y-155355771D02*
X79795904Y-155593866D01*
X79795904Y-155593866D02*
X79843523Y-155784342D01*
X79843523Y-155784342D02*
X79891142Y-155879580D01*
X79891142Y-155879580D02*
X79938761Y-155927200D01*
X79938761Y-155927200D02*
X80033999Y-155974819D01*
X80033999Y-155974819D02*
X80129237Y-155974819D01*
X80129237Y-155974819D02*
X80224475Y-155927200D01*
X80224475Y-155927200D02*
X80272094Y-155879580D01*
X80272094Y-155879580D02*
X80319713Y-155784342D01*
X80319713Y-155784342D02*
X80367332Y-155593866D01*
X80367332Y-155593866D02*
X80367332Y-155355771D01*
X80367332Y-155355771D02*
X80319713Y-155165295D01*
X80319713Y-155165295D02*
X80272094Y-155070057D01*
X80272094Y-155070057D02*
X80224475Y-155022438D01*
X80224475Y-155022438D02*
X80129237Y-154974819D01*
X101343619Y-141165342D02*
X100867428Y-140832009D01*
X101343619Y-140593914D02*
X100343619Y-140593914D01*
X100343619Y-140593914D02*
X100343619Y-140974866D01*
X100343619Y-140974866D02*
X100391238Y-141070104D01*
X100391238Y-141070104D02*
X100438857Y-141117723D01*
X100438857Y-141117723D02*
X100534095Y-141165342D01*
X100534095Y-141165342D02*
X100676952Y-141165342D01*
X100676952Y-141165342D02*
X100772190Y-141117723D01*
X100772190Y-141117723D02*
X100819809Y-141070104D01*
X100819809Y-141070104D02*
X100867428Y-140974866D01*
X100867428Y-140974866D02*
X100867428Y-140593914D01*
X101343619Y-142117723D02*
X101343619Y-141546295D01*
X101343619Y-141832009D02*
X100343619Y-141832009D01*
X100343619Y-141832009D02*
X100486476Y-141736771D01*
X100486476Y-141736771D02*
X100581714Y-141641533D01*
X100581714Y-141641533D02*
X100629333Y-141546295D01*
X100343619Y-142451057D02*
X100343619Y-143117723D01*
X100343619Y-143117723D02*
X101343619Y-142689152D01*
X63145847Y-138891180D02*
X63193466Y-138938800D01*
X63193466Y-138938800D02*
X63336323Y-138986419D01*
X63336323Y-138986419D02*
X63431561Y-138986419D01*
X63431561Y-138986419D02*
X63574418Y-138938800D01*
X63574418Y-138938800D02*
X63669656Y-138843561D01*
X63669656Y-138843561D02*
X63717275Y-138748323D01*
X63717275Y-138748323D02*
X63764894Y-138557847D01*
X63764894Y-138557847D02*
X63764894Y-138414990D01*
X63764894Y-138414990D02*
X63717275Y-138224514D01*
X63717275Y-138224514D02*
X63669656Y-138129276D01*
X63669656Y-138129276D02*
X63574418Y-138034038D01*
X63574418Y-138034038D02*
X63431561Y-137986419D01*
X63431561Y-137986419D02*
X63336323Y-137986419D01*
X63336323Y-137986419D02*
X63193466Y-138034038D01*
X63193466Y-138034038D02*
X63145847Y-138081657D01*
X62764894Y-138081657D02*
X62717275Y-138034038D01*
X62717275Y-138034038D02*
X62622037Y-137986419D01*
X62622037Y-137986419D02*
X62383942Y-137986419D01*
X62383942Y-137986419D02*
X62288704Y-138034038D01*
X62288704Y-138034038D02*
X62241085Y-138081657D01*
X62241085Y-138081657D02*
X62193466Y-138176895D01*
X62193466Y-138176895D02*
X62193466Y-138272133D01*
X62193466Y-138272133D02*
X62241085Y-138414990D01*
X62241085Y-138414990D02*
X62812513Y-138986419D01*
X62812513Y-138986419D02*
X62193466Y-138986419D01*
X61336323Y-137986419D02*
X61526799Y-137986419D01*
X61526799Y-137986419D02*
X61622037Y-138034038D01*
X61622037Y-138034038D02*
X61669656Y-138081657D01*
X61669656Y-138081657D02*
X61764894Y-138224514D01*
X61764894Y-138224514D02*
X61812513Y-138414990D01*
X61812513Y-138414990D02*
X61812513Y-138795942D01*
X61812513Y-138795942D02*
X61764894Y-138891180D01*
X61764894Y-138891180D02*
X61717275Y-138938800D01*
X61717275Y-138938800D02*
X61622037Y-138986419D01*
X61622037Y-138986419D02*
X61431561Y-138986419D01*
X61431561Y-138986419D02*
X61336323Y-138938800D01*
X61336323Y-138938800D02*
X61288704Y-138891180D01*
X61288704Y-138891180D02*
X61241085Y-138795942D01*
X61241085Y-138795942D02*
X61241085Y-138557847D01*
X61241085Y-138557847D02*
X61288704Y-138462609D01*
X61288704Y-138462609D02*
X61336323Y-138414990D01*
X61336323Y-138414990D02*
X61431561Y-138367371D01*
X61431561Y-138367371D02*
X61622037Y-138367371D01*
X61622037Y-138367371D02*
X61717275Y-138414990D01*
X61717275Y-138414990D02*
X61764894Y-138462609D01*
X61764894Y-138462609D02*
X61812513Y-138557847D01*
X60383942Y-138319752D02*
X60383942Y-138986419D01*
X60622037Y-137938800D02*
X60860132Y-138653085D01*
X60860132Y-138653085D02*
X60241085Y-138653085D01*
X124334447Y-135131980D02*
X124382066Y-135179600D01*
X124382066Y-135179600D02*
X124524923Y-135227219D01*
X124524923Y-135227219D02*
X124620161Y-135227219D01*
X124620161Y-135227219D02*
X124763018Y-135179600D01*
X124763018Y-135179600D02*
X124858256Y-135084361D01*
X124858256Y-135084361D02*
X124905875Y-134989123D01*
X124905875Y-134989123D02*
X124953494Y-134798647D01*
X124953494Y-134798647D02*
X124953494Y-134655790D01*
X124953494Y-134655790D02*
X124905875Y-134465314D01*
X124905875Y-134465314D02*
X124858256Y-134370076D01*
X124858256Y-134370076D02*
X124763018Y-134274838D01*
X124763018Y-134274838D02*
X124620161Y-134227219D01*
X124620161Y-134227219D02*
X124524923Y-134227219D01*
X124524923Y-134227219D02*
X124382066Y-134274838D01*
X124382066Y-134274838D02*
X124334447Y-134322457D01*
X123953494Y-134322457D02*
X123905875Y-134274838D01*
X123905875Y-134274838D02*
X123810637Y-134227219D01*
X123810637Y-134227219D02*
X123572542Y-134227219D01*
X123572542Y-134227219D02*
X123477304Y-134274838D01*
X123477304Y-134274838D02*
X123429685Y-134322457D01*
X123429685Y-134322457D02*
X123382066Y-134417695D01*
X123382066Y-134417695D02*
X123382066Y-134512933D01*
X123382066Y-134512933D02*
X123429685Y-134655790D01*
X123429685Y-134655790D02*
X124001113Y-135227219D01*
X124001113Y-135227219D02*
X123382066Y-135227219D01*
X122524923Y-134227219D02*
X122715399Y-134227219D01*
X122715399Y-134227219D02*
X122810637Y-134274838D01*
X122810637Y-134274838D02*
X122858256Y-134322457D01*
X122858256Y-134322457D02*
X122953494Y-134465314D01*
X122953494Y-134465314D02*
X123001113Y-134655790D01*
X123001113Y-134655790D02*
X123001113Y-135036742D01*
X123001113Y-135036742D02*
X122953494Y-135131980D01*
X122953494Y-135131980D02*
X122905875Y-135179600D01*
X122905875Y-135179600D02*
X122810637Y-135227219D01*
X122810637Y-135227219D02*
X122620161Y-135227219D01*
X122620161Y-135227219D02*
X122524923Y-135179600D01*
X122524923Y-135179600D02*
X122477304Y-135131980D01*
X122477304Y-135131980D02*
X122429685Y-135036742D01*
X122429685Y-135036742D02*
X122429685Y-134798647D01*
X122429685Y-134798647D02*
X122477304Y-134703409D01*
X122477304Y-134703409D02*
X122524923Y-134655790D01*
X122524923Y-134655790D02*
X122620161Y-134608171D01*
X122620161Y-134608171D02*
X122810637Y-134608171D01*
X122810637Y-134608171D02*
X122905875Y-134655790D01*
X122905875Y-134655790D02*
X122953494Y-134703409D01*
X122953494Y-134703409D02*
X123001113Y-134798647D01*
X121477304Y-135227219D02*
X122048732Y-135227219D01*
X121763018Y-135227219D02*
X121763018Y-134227219D01*
X121763018Y-134227219D02*
X121858256Y-134370076D01*
X121858256Y-134370076D02*
X121953494Y-134465314D01*
X121953494Y-134465314D02*
X122048732Y-134512933D01*
X63878619Y-118527533D02*
X63402428Y-118194200D01*
X63878619Y-117956105D02*
X62878619Y-117956105D01*
X62878619Y-117956105D02*
X62878619Y-118337057D01*
X62878619Y-118337057D02*
X62926238Y-118432295D01*
X62926238Y-118432295D02*
X62973857Y-118479914D01*
X62973857Y-118479914D02*
X63069095Y-118527533D01*
X63069095Y-118527533D02*
X63211952Y-118527533D01*
X63211952Y-118527533D02*
X63307190Y-118479914D01*
X63307190Y-118479914D02*
X63354809Y-118432295D01*
X63354809Y-118432295D02*
X63402428Y-118337057D01*
X63402428Y-118337057D02*
X63402428Y-117956105D01*
X62878619Y-118860867D02*
X62878619Y-119527533D01*
X62878619Y-119527533D02*
X63878619Y-119098962D01*
X65504219Y-117994133D02*
X65028028Y-117660800D01*
X65504219Y-117422705D02*
X64504219Y-117422705D01*
X64504219Y-117422705D02*
X64504219Y-117803657D01*
X64504219Y-117803657D02*
X64551838Y-117898895D01*
X64551838Y-117898895D02*
X64599457Y-117946514D01*
X64599457Y-117946514D02*
X64694695Y-117994133D01*
X64694695Y-117994133D02*
X64837552Y-117994133D01*
X64837552Y-117994133D02*
X64932790Y-117946514D01*
X64932790Y-117946514D02*
X64980409Y-117898895D01*
X64980409Y-117898895D02*
X65028028Y-117803657D01*
X65028028Y-117803657D02*
X65028028Y-117422705D01*
X64504219Y-118851276D02*
X64504219Y-118660800D01*
X64504219Y-118660800D02*
X64551838Y-118565562D01*
X64551838Y-118565562D02*
X64599457Y-118517943D01*
X64599457Y-118517943D02*
X64742314Y-118422705D01*
X64742314Y-118422705D02*
X64932790Y-118375086D01*
X64932790Y-118375086D02*
X65313742Y-118375086D01*
X65313742Y-118375086D02*
X65408980Y-118422705D01*
X65408980Y-118422705D02*
X65456600Y-118470324D01*
X65456600Y-118470324D02*
X65504219Y-118565562D01*
X65504219Y-118565562D02*
X65504219Y-118756038D01*
X65504219Y-118756038D02*
X65456600Y-118851276D01*
X65456600Y-118851276D02*
X65408980Y-118898895D01*
X65408980Y-118898895D02*
X65313742Y-118946514D01*
X65313742Y-118946514D02*
X65075647Y-118946514D01*
X65075647Y-118946514D02*
X64980409Y-118898895D01*
X64980409Y-118898895D02*
X64932790Y-118851276D01*
X64932790Y-118851276D02*
X64885171Y-118756038D01*
X64885171Y-118756038D02*
X64885171Y-118565562D01*
X64885171Y-118565562D02*
X64932790Y-118470324D01*
X64932790Y-118470324D02*
X64980409Y-118422705D01*
X64980409Y-118422705D02*
X65075647Y-118375086D01*
X52544094Y-141278319D02*
X52544094Y-140278319D01*
X52544094Y-140278319D02*
X52305999Y-140278319D01*
X52305999Y-140278319D02*
X52163142Y-140325938D01*
X52163142Y-140325938D02*
X52067904Y-140421176D01*
X52067904Y-140421176D02*
X52020285Y-140516414D01*
X52020285Y-140516414D02*
X51972666Y-140706890D01*
X51972666Y-140706890D02*
X51972666Y-140849747D01*
X51972666Y-140849747D02*
X52020285Y-141040223D01*
X52020285Y-141040223D02*
X52067904Y-141135461D01*
X52067904Y-141135461D02*
X52163142Y-141230700D01*
X52163142Y-141230700D02*
X52305999Y-141278319D01*
X52305999Y-141278319D02*
X52544094Y-141278319D01*
X50972666Y-141183080D02*
X51020285Y-141230700D01*
X51020285Y-141230700D02*
X51163142Y-141278319D01*
X51163142Y-141278319D02*
X51258380Y-141278319D01*
X51258380Y-141278319D02*
X51401237Y-141230700D01*
X51401237Y-141230700D02*
X51496475Y-141135461D01*
X51496475Y-141135461D02*
X51544094Y-141040223D01*
X51544094Y-141040223D02*
X51591713Y-140849747D01*
X51591713Y-140849747D02*
X51591713Y-140706890D01*
X51591713Y-140706890D02*
X51544094Y-140516414D01*
X51544094Y-140516414D02*
X51496475Y-140421176D01*
X51496475Y-140421176D02*
X51401237Y-140325938D01*
X51401237Y-140325938D02*
X51258380Y-140278319D01*
X51258380Y-140278319D02*
X51163142Y-140278319D01*
X51163142Y-140278319D02*
X51020285Y-140325938D01*
X51020285Y-140325938D02*
X50972666Y-140373557D01*
X50020285Y-141278319D02*
X50591713Y-141278319D01*
X50305999Y-141278319D02*
X50305999Y-140278319D01*
X50305999Y-140278319D02*
X50401237Y-140421176D01*
X50401237Y-140421176D02*
X50496475Y-140516414D01*
X50496475Y-140516414D02*
X50591713Y-140564033D01*
X118190180Y-149350552D02*
X118237800Y-149302933D01*
X118237800Y-149302933D02*
X118285419Y-149160076D01*
X118285419Y-149160076D02*
X118285419Y-149064838D01*
X118285419Y-149064838D02*
X118237800Y-148921981D01*
X118237800Y-148921981D02*
X118142561Y-148826743D01*
X118142561Y-148826743D02*
X118047323Y-148779124D01*
X118047323Y-148779124D02*
X117856847Y-148731505D01*
X117856847Y-148731505D02*
X117713990Y-148731505D01*
X117713990Y-148731505D02*
X117523514Y-148779124D01*
X117523514Y-148779124D02*
X117428276Y-148826743D01*
X117428276Y-148826743D02*
X117333038Y-148921981D01*
X117333038Y-148921981D02*
X117285419Y-149064838D01*
X117285419Y-149064838D02*
X117285419Y-149160076D01*
X117285419Y-149160076D02*
X117333038Y-149302933D01*
X117333038Y-149302933D02*
X117380657Y-149350552D01*
X117380657Y-149731505D02*
X117333038Y-149779124D01*
X117333038Y-149779124D02*
X117285419Y-149874362D01*
X117285419Y-149874362D02*
X117285419Y-150112457D01*
X117285419Y-150112457D02*
X117333038Y-150207695D01*
X117333038Y-150207695D02*
X117380657Y-150255314D01*
X117380657Y-150255314D02*
X117475895Y-150302933D01*
X117475895Y-150302933D02*
X117571133Y-150302933D01*
X117571133Y-150302933D02*
X117713990Y-150255314D01*
X117713990Y-150255314D02*
X118285419Y-149683886D01*
X118285419Y-149683886D02*
X118285419Y-150302933D01*
X117285419Y-151207695D02*
X117285419Y-150731505D01*
X117285419Y-150731505D02*
X117761609Y-150683886D01*
X117761609Y-150683886D02*
X117713990Y-150731505D01*
X117713990Y-150731505D02*
X117666371Y-150826743D01*
X117666371Y-150826743D02*
X117666371Y-151064838D01*
X117666371Y-151064838D02*
X117713990Y-151160076D01*
X117713990Y-151160076D02*
X117761609Y-151207695D01*
X117761609Y-151207695D02*
X117856847Y-151255314D01*
X117856847Y-151255314D02*
X118094942Y-151255314D01*
X118094942Y-151255314D02*
X118190180Y-151207695D01*
X118190180Y-151207695D02*
X118237800Y-151160076D01*
X118237800Y-151160076D02*
X118285419Y-151064838D01*
X118285419Y-151064838D02*
X118285419Y-150826743D01*
X118285419Y-150826743D02*
X118237800Y-150731505D01*
X118237800Y-150731505D02*
X118190180Y-150683886D01*
X117713990Y-151826743D02*
X117666371Y-151731505D01*
X117666371Y-151731505D02*
X117618752Y-151683886D01*
X117618752Y-151683886D02*
X117523514Y-151636267D01*
X117523514Y-151636267D02*
X117475895Y-151636267D01*
X117475895Y-151636267D02*
X117380657Y-151683886D01*
X117380657Y-151683886D02*
X117333038Y-151731505D01*
X117333038Y-151731505D02*
X117285419Y-151826743D01*
X117285419Y-151826743D02*
X117285419Y-152017219D01*
X117285419Y-152017219D02*
X117333038Y-152112457D01*
X117333038Y-152112457D02*
X117380657Y-152160076D01*
X117380657Y-152160076D02*
X117475895Y-152207695D01*
X117475895Y-152207695D02*
X117523514Y-152207695D01*
X117523514Y-152207695D02*
X117618752Y-152160076D01*
X117618752Y-152160076D02*
X117666371Y-152112457D01*
X117666371Y-152112457D02*
X117713990Y-152017219D01*
X117713990Y-152017219D02*
X117713990Y-151826743D01*
X117713990Y-151826743D02*
X117761609Y-151731505D01*
X117761609Y-151731505D02*
X117809228Y-151683886D01*
X117809228Y-151683886D02*
X117904466Y-151636267D01*
X117904466Y-151636267D02*
X118094942Y-151636267D01*
X118094942Y-151636267D02*
X118190180Y-151683886D01*
X118190180Y-151683886D02*
X118237800Y-151731505D01*
X118237800Y-151731505D02*
X118285419Y-151826743D01*
X118285419Y-151826743D02*
X118285419Y-152017219D01*
X118285419Y-152017219D02*
X118237800Y-152112457D01*
X118237800Y-152112457D02*
X118190180Y-152160076D01*
X118190180Y-152160076D02*
X118094942Y-152207695D01*
X118094942Y-152207695D02*
X117904466Y-152207695D01*
X117904466Y-152207695D02*
X117809228Y-152160076D01*
X117809228Y-152160076D02*
X117761609Y-152112457D01*
X117761609Y-152112457D02*
X117713990Y-152017219D01*
X68492666Y-118410819D02*
X68825999Y-117934628D01*
X69064094Y-118410819D02*
X69064094Y-117410819D01*
X69064094Y-117410819D02*
X68683142Y-117410819D01*
X68683142Y-117410819D02*
X68587904Y-117458438D01*
X68587904Y-117458438D02*
X68540285Y-117506057D01*
X68540285Y-117506057D02*
X68492666Y-117601295D01*
X68492666Y-117601295D02*
X68492666Y-117744152D01*
X68492666Y-117744152D02*
X68540285Y-117839390D01*
X68540285Y-117839390D02*
X68587904Y-117887009D01*
X68587904Y-117887009D02*
X68683142Y-117934628D01*
X68683142Y-117934628D02*
X69064094Y-117934628D01*
X67587904Y-117410819D02*
X68064094Y-117410819D01*
X68064094Y-117410819D02*
X68111713Y-117887009D01*
X68111713Y-117887009D02*
X68064094Y-117839390D01*
X68064094Y-117839390D02*
X67968856Y-117791771D01*
X67968856Y-117791771D02*
X67730761Y-117791771D01*
X67730761Y-117791771D02*
X67635523Y-117839390D01*
X67635523Y-117839390D02*
X67587904Y-117887009D01*
X67587904Y-117887009D02*
X67540285Y-117982247D01*
X67540285Y-117982247D02*
X67540285Y-118220342D01*
X67540285Y-118220342D02*
X67587904Y-118315580D01*
X67587904Y-118315580D02*
X67635523Y-118363200D01*
X67635523Y-118363200D02*
X67730761Y-118410819D01*
X67730761Y-118410819D02*
X67968856Y-118410819D01*
X67968856Y-118410819D02*
X68064094Y-118363200D01*
X68064094Y-118363200D02*
X68111713Y-118315580D01*
X172973133Y-147468219D02*
X172973133Y-148182504D01*
X172973133Y-148182504D02*
X173020752Y-148325361D01*
X173020752Y-148325361D02*
X173115990Y-148420600D01*
X173115990Y-148420600D02*
X173258847Y-148468219D01*
X173258847Y-148468219D02*
X173354085Y-148468219D01*
X172592180Y-147468219D02*
X171973133Y-147468219D01*
X171973133Y-147468219D02*
X172306466Y-147849171D01*
X172306466Y-147849171D02*
X172163609Y-147849171D01*
X172163609Y-147849171D02*
X172068371Y-147896790D01*
X172068371Y-147896790D02*
X172020752Y-147944409D01*
X172020752Y-147944409D02*
X171973133Y-148039647D01*
X171973133Y-148039647D02*
X171973133Y-148277742D01*
X171973133Y-148277742D02*
X172020752Y-148372980D01*
X172020752Y-148372980D02*
X172068371Y-148420600D01*
X172068371Y-148420600D02*
X172163609Y-148468219D01*
X172163609Y-148468219D02*
X172449323Y-148468219D01*
X172449323Y-148468219D02*
X172544561Y-148420600D01*
X172544561Y-148420600D02*
X172592180Y-148372980D01*
X114053857Y-145819019D02*
X114387190Y-145342828D01*
X114625285Y-145819019D02*
X114625285Y-144819019D01*
X114625285Y-144819019D02*
X114244333Y-144819019D01*
X114244333Y-144819019D02*
X114149095Y-144866638D01*
X114149095Y-144866638D02*
X114101476Y-144914257D01*
X114101476Y-144914257D02*
X114053857Y-145009495D01*
X114053857Y-145009495D02*
X114053857Y-145152352D01*
X114053857Y-145152352D02*
X114101476Y-145247590D01*
X114101476Y-145247590D02*
X114149095Y-145295209D01*
X114149095Y-145295209D02*
X114244333Y-145342828D01*
X114244333Y-145342828D02*
X114625285Y-145342828D01*
X113672904Y-144914257D02*
X113625285Y-144866638D01*
X113625285Y-144866638D02*
X113530047Y-144819019D01*
X113530047Y-144819019D02*
X113291952Y-144819019D01*
X113291952Y-144819019D02*
X113196714Y-144866638D01*
X113196714Y-144866638D02*
X113149095Y-144914257D01*
X113149095Y-144914257D02*
X113101476Y-145009495D01*
X113101476Y-145009495D02*
X113101476Y-145104733D01*
X113101476Y-145104733D02*
X113149095Y-145247590D01*
X113149095Y-145247590D02*
X113720523Y-145819019D01*
X113720523Y-145819019D02*
X113101476Y-145819019D01*
X112244333Y-145152352D02*
X112244333Y-145819019D01*
X112482428Y-144771400D02*
X112720523Y-145485685D01*
X112720523Y-145485685D02*
X112101476Y-145485685D01*
X79157652Y-144420419D02*
X79110033Y-144372800D01*
X79110033Y-144372800D02*
X78967176Y-144325180D01*
X78967176Y-144325180D02*
X78871938Y-144325180D01*
X78871938Y-144325180D02*
X78729081Y-144372800D01*
X78729081Y-144372800D02*
X78633843Y-144468038D01*
X78633843Y-144468038D02*
X78586224Y-144563276D01*
X78586224Y-144563276D02*
X78538605Y-144753752D01*
X78538605Y-144753752D02*
X78538605Y-144896609D01*
X78538605Y-144896609D02*
X78586224Y-145087085D01*
X78586224Y-145087085D02*
X78633843Y-145182323D01*
X78633843Y-145182323D02*
X78729081Y-145277561D01*
X78729081Y-145277561D02*
X78871938Y-145325180D01*
X78871938Y-145325180D02*
X78967176Y-145325180D01*
X78967176Y-145325180D02*
X79110033Y-145277561D01*
X79110033Y-145277561D02*
X79157652Y-145229942D01*
X79538605Y-145229942D02*
X79586224Y-145277561D01*
X79586224Y-145277561D02*
X79681462Y-145325180D01*
X79681462Y-145325180D02*
X79919557Y-145325180D01*
X79919557Y-145325180D02*
X80014795Y-145277561D01*
X80014795Y-145277561D02*
X80062414Y-145229942D01*
X80062414Y-145229942D02*
X80110033Y-145134704D01*
X80110033Y-145134704D02*
X80110033Y-145039466D01*
X80110033Y-145039466D02*
X80062414Y-144896609D01*
X80062414Y-144896609D02*
X79490986Y-144325180D01*
X79490986Y-144325180D02*
X80110033Y-144325180D01*
X80443367Y-145325180D02*
X81110033Y-145325180D01*
X81110033Y-145325180D02*
X80681462Y-144325180D01*
X81395748Y-145325180D02*
X82062414Y-145325180D01*
X82062414Y-145325180D02*
X81633843Y-144325180D01*
X56047819Y-123912333D02*
X55571628Y-123579000D01*
X56047819Y-123340905D02*
X55047819Y-123340905D01*
X55047819Y-123340905D02*
X55047819Y-123721857D01*
X55047819Y-123721857D02*
X55095438Y-123817095D01*
X55095438Y-123817095D02*
X55143057Y-123864714D01*
X55143057Y-123864714D02*
X55238295Y-123912333D01*
X55238295Y-123912333D02*
X55381152Y-123912333D01*
X55381152Y-123912333D02*
X55476390Y-123864714D01*
X55476390Y-123864714D02*
X55524009Y-123817095D01*
X55524009Y-123817095D02*
X55571628Y-123721857D01*
X55571628Y-123721857D02*
X55571628Y-123340905D01*
X55047819Y-124245667D02*
X55047819Y-124864714D01*
X55047819Y-124864714D02*
X55428771Y-124531381D01*
X55428771Y-124531381D02*
X55428771Y-124674238D01*
X55428771Y-124674238D02*
X55476390Y-124769476D01*
X55476390Y-124769476D02*
X55524009Y-124817095D01*
X55524009Y-124817095D02*
X55619247Y-124864714D01*
X55619247Y-124864714D02*
X55857342Y-124864714D01*
X55857342Y-124864714D02*
X55952580Y-124817095D01*
X55952580Y-124817095D02*
X56000200Y-124769476D01*
X56000200Y-124769476D02*
X56047819Y-124674238D01*
X56047819Y-124674238D02*
X56047819Y-124388524D01*
X56047819Y-124388524D02*
X56000200Y-124293286D01*
X56000200Y-124293286D02*
X55952580Y-124245667D01*
X116611304Y-136792619D02*
X116611304Y-137602142D01*
X116611304Y-137602142D02*
X116563685Y-137697380D01*
X116563685Y-137697380D02*
X116516066Y-137745000D01*
X116516066Y-137745000D02*
X116420828Y-137792619D01*
X116420828Y-137792619D02*
X116230352Y-137792619D01*
X116230352Y-137792619D02*
X116135114Y-137745000D01*
X116135114Y-137745000D02*
X116087495Y-137697380D01*
X116087495Y-137697380D02*
X116039876Y-137602142D01*
X116039876Y-137602142D02*
X116039876Y-136792619D01*
X115135114Y-136792619D02*
X115325590Y-136792619D01*
X115325590Y-136792619D02*
X115420828Y-136840238D01*
X115420828Y-136840238D02*
X115468447Y-136887857D01*
X115468447Y-136887857D02*
X115563685Y-137030714D01*
X115563685Y-137030714D02*
X115611304Y-137221190D01*
X115611304Y-137221190D02*
X115611304Y-137602142D01*
X115611304Y-137602142D02*
X115563685Y-137697380D01*
X115563685Y-137697380D02*
X115516066Y-137745000D01*
X115516066Y-137745000D02*
X115420828Y-137792619D01*
X115420828Y-137792619D02*
X115230352Y-137792619D01*
X115230352Y-137792619D02*
X115135114Y-137745000D01*
X115135114Y-137745000D02*
X115087495Y-137697380D01*
X115087495Y-137697380D02*
X115039876Y-137602142D01*
X115039876Y-137602142D02*
X115039876Y-137364047D01*
X115039876Y-137364047D02*
X115087495Y-137268809D01*
X115087495Y-137268809D02*
X115135114Y-137221190D01*
X115135114Y-137221190D02*
X115230352Y-137173571D01*
X115230352Y-137173571D02*
X115420828Y-137173571D01*
X115420828Y-137173571D02*
X115516066Y-137221190D01*
X115516066Y-137221190D02*
X115563685Y-137268809D01*
X115563685Y-137268809D02*
X115611304Y-137364047D01*
X105595657Y-146733419D02*
X105928990Y-146257228D01*
X106167085Y-146733419D02*
X106167085Y-145733419D01*
X106167085Y-145733419D02*
X105786133Y-145733419D01*
X105786133Y-145733419D02*
X105690895Y-145781038D01*
X105690895Y-145781038D02*
X105643276Y-145828657D01*
X105643276Y-145828657D02*
X105595657Y-145923895D01*
X105595657Y-145923895D02*
X105595657Y-146066752D01*
X105595657Y-146066752D02*
X105643276Y-146161990D01*
X105643276Y-146161990D02*
X105690895Y-146209609D01*
X105690895Y-146209609D02*
X105786133Y-146257228D01*
X105786133Y-146257228D02*
X106167085Y-146257228D01*
X104643276Y-146733419D02*
X105214704Y-146733419D01*
X104928990Y-146733419D02*
X104928990Y-145733419D01*
X104928990Y-145733419D02*
X105024228Y-145876276D01*
X105024228Y-145876276D02*
X105119466Y-145971514D01*
X105119466Y-145971514D02*
X105214704Y-146019133D01*
X103786133Y-146066752D02*
X103786133Y-146733419D01*
X104024228Y-145685800D02*
X104262323Y-146400085D01*
X104262323Y-146400085D02*
X103643276Y-146400085D01*
X79157652Y-149500419D02*
X79110033Y-149452800D01*
X79110033Y-149452800D02*
X78967176Y-149405180D01*
X78967176Y-149405180D02*
X78871938Y-149405180D01*
X78871938Y-149405180D02*
X78729081Y-149452800D01*
X78729081Y-149452800D02*
X78633843Y-149548038D01*
X78633843Y-149548038D02*
X78586224Y-149643276D01*
X78586224Y-149643276D02*
X78538605Y-149833752D01*
X78538605Y-149833752D02*
X78538605Y-149976609D01*
X78538605Y-149976609D02*
X78586224Y-150167085D01*
X78586224Y-150167085D02*
X78633843Y-150262323D01*
X78633843Y-150262323D02*
X78729081Y-150357561D01*
X78729081Y-150357561D02*
X78871938Y-150405180D01*
X78871938Y-150405180D02*
X78967176Y-150405180D01*
X78967176Y-150405180D02*
X79110033Y-150357561D01*
X79110033Y-150357561D02*
X79157652Y-150309942D01*
X79538605Y-150309942D02*
X79586224Y-150357561D01*
X79586224Y-150357561D02*
X79681462Y-150405180D01*
X79681462Y-150405180D02*
X79919557Y-150405180D01*
X79919557Y-150405180D02*
X80014795Y-150357561D01*
X80014795Y-150357561D02*
X80062414Y-150309942D01*
X80062414Y-150309942D02*
X80110033Y-150214704D01*
X80110033Y-150214704D02*
X80110033Y-150119466D01*
X80110033Y-150119466D02*
X80062414Y-149976609D01*
X80062414Y-149976609D02*
X79490986Y-149405180D01*
X79490986Y-149405180D02*
X80110033Y-149405180D01*
X80443367Y-150405180D02*
X81110033Y-150405180D01*
X81110033Y-150405180D02*
X80681462Y-149405180D01*
X81633843Y-149976609D02*
X81538605Y-150024228D01*
X81538605Y-150024228D02*
X81490986Y-150071847D01*
X81490986Y-150071847D02*
X81443367Y-150167085D01*
X81443367Y-150167085D02*
X81443367Y-150214704D01*
X81443367Y-150214704D02*
X81490986Y-150309942D01*
X81490986Y-150309942D02*
X81538605Y-150357561D01*
X81538605Y-150357561D02*
X81633843Y-150405180D01*
X81633843Y-150405180D02*
X81824319Y-150405180D01*
X81824319Y-150405180D02*
X81919557Y-150357561D01*
X81919557Y-150357561D02*
X81967176Y-150309942D01*
X81967176Y-150309942D02*
X82014795Y-150214704D01*
X82014795Y-150214704D02*
X82014795Y-150167085D01*
X82014795Y-150167085D02*
X81967176Y-150071847D01*
X81967176Y-150071847D02*
X81919557Y-150024228D01*
X81919557Y-150024228D02*
X81824319Y-149976609D01*
X81824319Y-149976609D02*
X81633843Y-149976609D01*
X81633843Y-149976609D02*
X81538605Y-149928990D01*
X81538605Y-149928990D02*
X81490986Y-149881371D01*
X81490986Y-149881371D02*
X81443367Y-149786133D01*
X81443367Y-149786133D02*
X81443367Y-149595657D01*
X81443367Y-149595657D02*
X81490986Y-149500419D01*
X81490986Y-149500419D02*
X81538605Y-149452800D01*
X81538605Y-149452800D02*
X81633843Y-149405180D01*
X81633843Y-149405180D02*
X81824319Y-149405180D01*
X81824319Y-149405180D02*
X81919557Y-149452800D01*
X81919557Y-149452800D02*
X81967176Y-149500419D01*
X81967176Y-149500419D02*
X82014795Y-149595657D01*
X82014795Y-149595657D02*
X82014795Y-149786133D01*
X82014795Y-149786133D02*
X81967176Y-149881371D01*
X81967176Y-149881371D02*
X81919557Y-149928990D01*
X81919557Y-149928990D02*
X81824319Y-149976609D01*
X81541580Y-123721952D02*
X81589200Y-123674333D01*
X81589200Y-123674333D02*
X81636819Y-123531476D01*
X81636819Y-123531476D02*
X81636819Y-123436238D01*
X81636819Y-123436238D02*
X81589200Y-123293381D01*
X81589200Y-123293381D02*
X81493961Y-123198143D01*
X81493961Y-123198143D02*
X81398723Y-123150524D01*
X81398723Y-123150524D02*
X81208247Y-123102905D01*
X81208247Y-123102905D02*
X81065390Y-123102905D01*
X81065390Y-123102905D02*
X80874914Y-123150524D01*
X80874914Y-123150524D02*
X80779676Y-123198143D01*
X80779676Y-123198143D02*
X80684438Y-123293381D01*
X80684438Y-123293381D02*
X80636819Y-123436238D01*
X80636819Y-123436238D02*
X80636819Y-123531476D01*
X80636819Y-123531476D02*
X80684438Y-123674333D01*
X80684438Y-123674333D02*
X80732057Y-123721952D01*
X80732057Y-124102905D02*
X80684438Y-124150524D01*
X80684438Y-124150524D02*
X80636819Y-124245762D01*
X80636819Y-124245762D02*
X80636819Y-124483857D01*
X80636819Y-124483857D02*
X80684438Y-124579095D01*
X80684438Y-124579095D02*
X80732057Y-124626714D01*
X80732057Y-124626714D02*
X80827295Y-124674333D01*
X80827295Y-124674333D02*
X80922533Y-124674333D01*
X80922533Y-124674333D02*
X81065390Y-124626714D01*
X81065390Y-124626714D02*
X81636819Y-124055286D01*
X81636819Y-124055286D02*
X81636819Y-124674333D01*
X80636819Y-125531476D02*
X80636819Y-125341000D01*
X80636819Y-125341000D02*
X80684438Y-125245762D01*
X80684438Y-125245762D02*
X80732057Y-125198143D01*
X80732057Y-125198143D02*
X80874914Y-125102905D01*
X80874914Y-125102905D02*
X81065390Y-125055286D01*
X81065390Y-125055286D02*
X81446342Y-125055286D01*
X81446342Y-125055286D02*
X81541580Y-125102905D01*
X81541580Y-125102905D02*
X81589200Y-125150524D01*
X81589200Y-125150524D02*
X81636819Y-125245762D01*
X81636819Y-125245762D02*
X81636819Y-125436238D01*
X81636819Y-125436238D02*
X81589200Y-125531476D01*
X81589200Y-125531476D02*
X81541580Y-125579095D01*
X81541580Y-125579095D02*
X81446342Y-125626714D01*
X81446342Y-125626714D02*
X81208247Y-125626714D01*
X81208247Y-125626714D02*
X81113009Y-125579095D01*
X81113009Y-125579095D02*
X81065390Y-125531476D01*
X81065390Y-125531476D02*
X81017771Y-125436238D01*
X81017771Y-125436238D02*
X81017771Y-125245762D01*
X81017771Y-125245762D02*
X81065390Y-125150524D01*
X81065390Y-125150524D02*
X81113009Y-125102905D01*
X81113009Y-125102905D02*
X81208247Y-125055286D01*
X81065390Y-126198143D02*
X81017771Y-126102905D01*
X81017771Y-126102905D02*
X80970152Y-126055286D01*
X80970152Y-126055286D02*
X80874914Y-126007667D01*
X80874914Y-126007667D02*
X80827295Y-126007667D01*
X80827295Y-126007667D02*
X80732057Y-126055286D01*
X80732057Y-126055286D02*
X80684438Y-126102905D01*
X80684438Y-126102905D02*
X80636819Y-126198143D01*
X80636819Y-126198143D02*
X80636819Y-126388619D01*
X80636819Y-126388619D02*
X80684438Y-126483857D01*
X80684438Y-126483857D02*
X80732057Y-126531476D01*
X80732057Y-126531476D02*
X80827295Y-126579095D01*
X80827295Y-126579095D02*
X80874914Y-126579095D01*
X80874914Y-126579095D02*
X80970152Y-126531476D01*
X80970152Y-126531476D02*
X81017771Y-126483857D01*
X81017771Y-126483857D02*
X81065390Y-126388619D01*
X81065390Y-126388619D02*
X81065390Y-126198143D01*
X81065390Y-126198143D02*
X81113009Y-126102905D01*
X81113009Y-126102905D02*
X81160628Y-126055286D01*
X81160628Y-126055286D02*
X81255866Y-126007667D01*
X81255866Y-126007667D02*
X81446342Y-126007667D01*
X81446342Y-126007667D02*
X81541580Y-126055286D01*
X81541580Y-126055286D02*
X81589200Y-126102905D01*
X81589200Y-126102905D02*
X81636819Y-126198143D01*
X81636819Y-126198143D02*
X81636819Y-126388619D01*
X81636819Y-126388619D02*
X81589200Y-126483857D01*
X81589200Y-126483857D02*
X81541580Y-126531476D01*
X81541580Y-126531476D02*
X81446342Y-126579095D01*
X81446342Y-126579095D02*
X81255866Y-126579095D01*
X81255866Y-126579095D02*
X81160628Y-126531476D01*
X81160628Y-126531476D02*
X81113009Y-126483857D01*
X81113009Y-126483857D02*
X81065390Y-126388619D01*
X75787795Y-127588180D02*
X75835414Y-127635800D01*
X75835414Y-127635800D02*
X75978271Y-127683419D01*
X75978271Y-127683419D02*
X76073509Y-127683419D01*
X76073509Y-127683419D02*
X76216366Y-127635800D01*
X76216366Y-127635800D02*
X76311604Y-127540561D01*
X76311604Y-127540561D02*
X76359223Y-127445323D01*
X76359223Y-127445323D02*
X76406842Y-127254847D01*
X76406842Y-127254847D02*
X76406842Y-127111990D01*
X76406842Y-127111990D02*
X76359223Y-126921514D01*
X76359223Y-126921514D02*
X76311604Y-126826276D01*
X76311604Y-126826276D02*
X76216366Y-126731038D01*
X76216366Y-126731038D02*
X76073509Y-126683419D01*
X76073509Y-126683419D02*
X75978271Y-126683419D01*
X75978271Y-126683419D02*
X75835414Y-126731038D01*
X75835414Y-126731038D02*
X75787795Y-126778657D01*
X75406842Y-126778657D02*
X75359223Y-126731038D01*
X75359223Y-126731038D02*
X75263985Y-126683419D01*
X75263985Y-126683419D02*
X75025890Y-126683419D01*
X75025890Y-126683419D02*
X74930652Y-126731038D01*
X74930652Y-126731038D02*
X74883033Y-126778657D01*
X74883033Y-126778657D02*
X74835414Y-126873895D01*
X74835414Y-126873895D02*
X74835414Y-126969133D01*
X74835414Y-126969133D02*
X74883033Y-127111990D01*
X74883033Y-127111990D02*
X75454461Y-127683419D01*
X75454461Y-127683419D02*
X74835414Y-127683419D01*
X73978271Y-126683419D02*
X74168747Y-126683419D01*
X74168747Y-126683419D02*
X74263985Y-126731038D01*
X74263985Y-126731038D02*
X74311604Y-126778657D01*
X74311604Y-126778657D02*
X74406842Y-126921514D01*
X74406842Y-126921514D02*
X74454461Y-127111990D01*
X74454461Y-127111990D02*
X74454461Y-127492942D01*
X74454461Y-127492942D02*
X74406842Y-127588180D01*
X74406842Y-127588180D02*
X74359223Y-127635800D01*
X74359223Y-127635800D02*
X74263985Y-127683419D01*
X74263985Y-127683419D02*
X74073509Y-127683419D01*
X74073509Y-127683419D02*
X73978271Y-127635800D01*
X73978271Y-127635800D02*
X73930652Y-127588180D01*
X73930652Y-127588180D02*
X73883033Y-127492942D01*
X73883033Y-127492942D02*
X73883033Y-127254847D01*
X73883033Y-127254847D02*
X73930652Y-127159609D01*
X73930652Y-127159609D02*
X73978271Y-127111990D01*
X73978271Y-127111990D02*
X74073509Y-127064371D01*
X74073509Y-127064371D02*
X74263985Y-127064371D01*
X74263985Y-127064371D02*
X74359223Y-127111990D01*
X74359223Y-127111990D02*
X74406842Y-127159609D01*
X74406842Y-127159609D02*
X74454461Y-127254847D01*
X73549699Y-126683419D02*
X72883033Y-126683419D01*
X72883033Y-126683419D02*
X73311604Y-127683419D01*
X99619569Y-134836095D02*
X100429092Y-134836095D01*
X100429092Y-134836095D02*
X100524330Y-134883714D01*
X100524330Y-134883714D02*
X100571950Y-134931333D01*
X100571950Y-134931333D02*
X100619569Y-135026571D01*
X100619569Y-135026571D02*
X100619569Y-135217047D01*
X100619569Y-135217047D02*
X100571950Y-135312285D01*
X100571950Y-135312285D02*
X100524330Y-135359904D01*
X100524330Y-135359904D02*
X100429092Y-135407523D01*
X100429092Y-135407523D02*
X99619569Y-135407523D01*
X100619569Y-136407523D02*
X100619569Y-135836095D01*
X100619569Y-136121809D02*
X99619569Y-136121809D01*
X99619569Y-136121809D02*
X99762426Y-136026571D01*
X99762426Y-136026571D02*
X99857664Y-135931333D01*
X99857664Y-135931333D02*
X99905283Y-135836095D01*
X49286894Y-156452219D02*
X49286894Y-157261742D01*
X49286894Y-157261742D02*
X49239275Y-157356980D01*
X49239275Y-157356980D02*
X49191656Y-157404600D01*
X49191656Y-157404600D02*
X49096418Y-157452219D01*
X49096418Y-157452219D02*
X48905942Y-157452219D01*
X48905942Y-157452219D02*
X48810704Y-157404600D01*
X48810704Y-157404600D02*
X48763085Y-157356980D01*
X48763085Y-157356980D02*
X48715466Y-157261742D01*
X48715466Y-157261742D02*
X48715466Y-156452219D01*
X48286894Y-157404600D02*
X48144037Y-157452219D01*
X48144037Y-157452219D02*
X47905942Y-157452219D01*
X47905942Y-157452219D02*
X47810704Y-157404600D01*
X47810704Y-157404600D02*
X47763085Y-157356980D01*
X47763085Y-157356980D02*
X47715466Y-157261742D01*
X47715466Y-157261742D02*
X47715466Y-157166504D01*
X47715466Y-157166504D02*
X47763085Y-157071266D01*
X47763085Y-157071266D02*
X47810704Y-157023647D01*
X47810704Y-157023647D02*
X47905942Y-156976028D01*
X47905942Y-156976028D02*
X48096418Y-156928409D01*
X48096418Y-156928409D02*
X48191656Y-156880790D01*
X48191656Y-156880790D02*
X48239275Y-156833171D01*
X48239275Y-156833171D02*
X48286894Y-156737933D01*
X48286894Y-156737933D02*
X48286894Y-156642695D01*
X48286894Y-156642695D02*
X48239275Y-156547457D01*
X48239275Y-156547457D02*
X48191656Y-156499838D01*
X48191656Y-156499838D02*
X48096418Y-156452219D01*
X48096418Y-156452219D02*
X47858323Y-156452219D01*
X47858323Y-156452219D02*
X47715466Y-156499838D01*
X46953561Y-156928409D02*
X46810704Y-156976028D01*
X46810704Y-156976028D02*
X46763085Y-157023647D01*
X46763085Y-157023647D02*
X46715466Y-157118885D01*
X46715466Y-157118885D02*
X46715466Y-157261742D01*
X46715466Y-157261742D02*
X46763085Y-157356980D01*
X46763085Y-157356980D02*
X46810704Y-157404600D01*
X46810704Y-157404600D02*
X46905942Y-157452219D01*
X46905942Y-157452219D02*
X47286894Y-157452219D01*
X47286894Y-157452219D02*
X47286894Y-156452219D01*
X47286894Y-156452219D02*
X46953561Y-156452219D01*
X46953561Y-156452219D02*
X46858323Y-156499838D01*
X46858323Y-156499838D02*
X46810704Y-156547457D01*
X46810704Y-156547457D02*
X46763085Y-156642695D01*
X46763085Y-156642695D02*
X46763085Y-156737933D01*
X46763085Y-156737933D02*
X46810704Y-156833171D01*
X46810704Y-156833171D02*
X46858323Y-156880790D01*
X46858323Y-156880790D02*
X46953561Y-156928409D01*
X46953561Y-156928409D02*
X47286894Y-156928409D01*
X45763085Y-157452219D02*
X46334513Y-157452219D01*
X46048799Y-157452219D02*
X46048799Y-156452219D01*
X46048799Y-156452219D02*
X46144037Y-156595076D01*
X46144037Y-156595076D02*
X46239275Y-156690314D01*
X46239275Y-156690314D02*
X46334513Y-156737933D01*
X120194247Y-136478180D02*
X120241866Y-136525800D01*
X120241866Y-136525800D02*
X120384723Y-136573419D01*
X120384723Y-136573419D02*
X120479961Y-136573419D01*
X120479961Y-136573419D02*
X120622818Y-136525800D01*
X120622818Y-136525800D02*
X120718056Y-136430561D01*
X120718056Y-136430561D02*
X120765675Y-136335323D01*
X120765675Y-136335323D02*
X120813294Y-136144847D01*
X120813294Y-136144847D02*
X120813294Y-136001990D01*
X120813294Y-136001990D02*
X120765675Y-135811514D01*
X120765675Y-135811514D02*
X120718056Y-135716276D01*
X120718056Y-135716276D02*
X120622818Y-135621038D01*
X120622818Y-135621038D02*
X120479961Y-135573419D01*
X120479961Y-135573419D02*
X120384723Y-135573419D01*
X120384723Y-135573419D02*
X120241866Y-135621038D01*
X120241866Y-135621038D02*
X120194247Y-135668657D01*
X119813294Y-135668657D02*
X119765675Y-135621038D01*
X119765675Y-135621038D02*
X119670437Y-135573419D01*
X119670437Y-135573419D02*
X119432342Y-135573419D01*
X119432342Y-135573419D02*
X119337104Y-135621038D01*
X119337104Y-135621038D02*
X119289485Y-135668657D01*
X119289485Y-135668657D02*
X119241866Y-135763895D01*
X119241866Y-135763895D02*
X119241866Y-135859133D01*
X119241866Y-135859133D02*
X119289485Y-136001990D01*
X119289485Y-136001990D02*
X119860913Y-136573419D01*
X119860913Y-136573419D02*
X119241866Y-136573419D01*
X118908532Y-135573419D02*
X118241866Y-135573419D01*
X118241866Y-135573419D02*
X118670437Y-136573419D01*
X117908532Y-135668657D02*
X117860913Y-135621038D01*
X117860913Y-135621038D02*
X117765675Y-135573419D01*
X117765675Y-135573419D02*
X117527580Y-135573419D01*
X117527580Y-135573419D02*
X117432342Y-135621038D01*
X117432342Y-135621038D02*
X117384723Y-135668657D01*
X117384723Y-135668657D02*
X117337104Y-135763895D01*
X117337104Y-135763895D02*
X117337104Y-135859133D01*
X117337104Y-135859133D02*
X117384723Y-136001990D01*
X117384723Y-136001990D02*
X117956151Y-136573419D01*
X117956151Y-136573419D02*
X117337104Y-136573419D01*
X95816657Y-147978019D02*
X96149990Y-147501828D01*
X96388085Y-147978019D02*
X96388085Y-146978019D01*
X96388085Y-146978019D02*
X96007133Y-146978019D01*
X96007133Y-146978019D02*
X95911895Y-147025638D01*
X95911895Y-147025638D02*
X95864276Y-147073257D01*
X95864276Y-147073257D02*
X95816657Y-147168495D01*
X95816657Y-147168495D02*
X95816657Y-147311352D01*
X95816657Y-147311352D02*
X95864276Y-147406590D01*
X95864276Y-147406590D02*
X95911895Y-147454209D01*
X95911895Y-147454209D02*
X96007133Y-147501828D01*
X96007133Y-147501828D02*
X96388085Y-147501828D01*
X94864276Y-147978019D02*
X95435704Y-147978019D01*
X95149990Y-147978019D02*
X95149990Y-146978019D01*
X95149990Y-146978019D02*
X95245228Y-147120876D01*
X95245228Y-147120876D02*
X95340466Y-147216114D01*
X95340466Y-147216114D02*
X95435704Y-147263733D01*
X94483323Y-147073257D02*
X94435704Y-147025638D01*
X94435704Y-147025638D02*
X94340466Y-146978019D01*
X94340466Y-146978019D02*
X94102371Y-146978019D01*
X94102371Y-146978019D02*
X94007133Y-147025638D01*
X94007133Y-147025638D02*
X93959514Y-147073257D01*
X93959514Y-147073257D02*
X93911895Y-147168495D01*
X93911895Y-147168495D02*
X93911895Y-147263733D01*
X93911895Y-147263733D02*
X93959514Y-147406590D01*
X93959514Y-147406590D02*
X94530942Y-147978019D01*
X94530942Y-147978019D02*
X93911895Y-147978019D01*
X82653047Y-119176580D02*
X82700666Y-119224200D01*
X82700666Y-119224200D02*
X82843523Y-119271819D01*
X82843523Y-119271819D02*
X82938761Y-119271819D01*
X82938761Y-119271819D02*
X83081618Y-119224200D01*
X83081618Y-119224200D02*
X83176856Y-119128961D01*
X83176856Y-119128961D02*
X83224475Y-119033723D01*
X83224475Y-119033723D02*
X83272094Y-118843247D01*
X83272094Y-118843247D02*
X83272094Y-118700390D01*
X83272094Y-118700390D02*
X83224475Y-118509914D01*
X83224475Y-118509914D02*
X83176856Y-118414676D01*
X83176856Y-118414676D02*
X83081618Y-118319438D01*
X83081618Y-118319438D02*
X82938761Y-118271819D01*
X82938761Y-118271819D02*
X82843523Y-118271819D01*
X82843523Y-118271819D02*
X82700666Y-118319438D01*
X82700666Y-118319438D02*
X82653047Y-118367057D01*
X82272094Y-118367057D02*
X82224475Y-118319438D01*
X82224475Y-118319438D02*
X82129237Y-118271819D01*
X82129237Y-118271819D02*
X81891142Y-118271819D01*
X81891142Y-118271819D02*
X81795904Y-118319438D01*
X81795904Y-118319438D02*
X81748285Y-118367057D01*
X81748285Y-118367057D02*
X81700666Y-118462295D01*
X81700666Y-118462295D02*
X81700666Y-118557533D01*
X81700666Y-118557533D02*
X81748285Y-118700390D01*
X81748285Y-118700390D02*
X82319713Y-119271819D01*
X82319713Y-119271819D02*
X81700666Y-119271819D01*
X81367332Y-118271819D02*
X80700666Y-118271819D01*
X80700666Y-118271819D02*
X81129237Y-119271819D01*
X79795904Y-119271819D02*
X80367332Y-119271819D01*
X80081618Y-119271819D02*
X80081618Y-118271819D01*
X80081618Y-118271819D02*
X80176856Y-118414676D01*
X80176856Y-118414676D02*
X80272094Y-118509914D01*
X80272094Y-118509914D02*
X80367332Y-118557533D01*
D13*
%TO.C,D257*%
X53616000Y-150082000D02*
X54916000Y-150082000D01*
X53616000Y-151082000D02*
X54916000Y-151082000D01*
D14*
X54266000Y-150810500D02*
X54266000Y-150328000D01*
D15*
G36*
X54266000Y-150582000D02*
G01*
X54037500Y-150861500D01*
X54037500Y-150302500D01*
X54266000Y-150582000D01*
G37*
G36*
X54494500Y-150861500D02*
G01*
X54266000Y-150582000D01*
X54494500Y-150302500D01*
X54494500Y-150861500D01*
G37*
D16*
%TO.C,U4*%
X65628500Y-124169000D02*
X65628500Y-124397000D01*
X65628500Y-129937000D02*
X65628500Y-130169000D01*
X65628500Y-130169000D02*
X66649500Y-130169000D01*
X66649500Y-124169000D02*
X65628500Y-124169000D01*
X67259500Y-130169000D02*
X68949500Y-130169000D01*
X68097500Y-124169000D02*
X67259500Y-124169000D01*
X68949500Y-124169000D02*
X68041500Y-124169000D01*
X69559500Y-130169000D02*
X70597500Y-130169000D01*
X70597500Y-124169000D02*
X69559500Y-124169000D01*
X70597500Y-124392500D02*
X70597500Y-124169000D01*
X70597500Y-130169000D02*
X70597500Y-129933000D01*
D14*
X70897500Y-124419000D02*
G75*
G02*
X70797500Y-124419000I-50000J0D01*
G01*
X70797500Y-124419000D02*
G75*
G02*
X70897500Y-124419000I50000J0D01*
G01*
D17*
%TO.C,R20*%
X129398500Y-139192724D02*
X129398500Y-138683276D01*
X130443500Y-139192724D02*
X130443500Y-138683276D01*
D11*
%TO.C,X1*%
X121305000Y-140335000D02*
X122321000Y-140335000D01*
X122321000Y-138811000D02*
X121305000Y-138811000D01*
D17*
%TO.C,R13*%
X96622324Y-149210500D02*
X96112876Y-149210500D01*
X96622324Y-150255500D02*
X96112876Y-150255500D01*
D10*
%TO.C,LED1*%
X136464800Y-157441700D02*
X136464800Y-158491700D01*
X136467300Y-157061700D02*
X136467300Y-155911700D01*
X136764800Y-158791700D02*
X136464800Y-158491700D01*
X136864800Y-158791700D02*
X136764800Y-158791700D01*
X136887300Y-157081700D02*
X136887300Y-157091700D01*
X136887300Y-157091700D02*
X137217300Y-157421700D01*
X137217300Y-157081700D02*
X137217300Y-157421700D01*
X137557300Y-157081700D02*
X137217300Y-157421700D01*
X137564800Y-158791700D02*
X136864800Y-158791700D01*
X137564800Y-158791700D02*
X137665300Y-158791700D01*
X137567300Y-157081700D02*
X136887300Y-157081700D01*
X137567300Y-157081700D02*
X137557300Y-157081700D01*
X137665300Y-158791700D02*
X137965300Y-158491700D01*
X137965300Y-157441700D02*
X137965300Y-158491700D01*
X137967300Y-155911700D02*
X136487300Y-155911700D01*
X137967300Y-157061700D02*
X137967300Y-155911700D01*
D17*
%TO.C,C263*%
X65709748Y-140441000D02*
X67132252Y-140441000D01*
X65709748Y-142261000D02*
X67132252Y-142261000D01*
%TO.C,R10*%
X76962724Y-118857500D02*
X76453276Y-118857500D01*
X76962724Y-119902500D02*
X76453276Y-119902500D01*
%TO.C,J2*%
X141266400Y-138040600D02*
X144026400Y-138040600D01*
X141266400Y-138610600D02*
X141266400Y-138040600D01*
X141266400Y-143690600D02*
X141266400Y-140230600D01*
X141266400Y-147850600D02*
X141266400Y-145310600D01*
X141266400Y-148420600D02*
X141266400Y-145310600D01*
X141266400Y-148420600D02*
X144026400Y-148420600D01*
X144026400Y-141150600D02*
X144026400Y-138040600D01*
X144026400Y-146230600D02*
X144026400Y-142770600D01*
X144026400Y-147850600D02*
X145496400Y-147850600D01*
X144026400Y-148420600D02*
X144026400Y-147850600D01*
%TO.C,R16*%
X98537500Y-144652276D02*
X98537500Y-145161724D01*
X99582500Y-144652276D02*
X99582500Y-145161724D01*
%TO.C,R19*%
X136017724Y-140066500D02*
X135508276Y-140066500D01*
X136017724Y-141111500D02*
X135508276Y-141111500D01*
%TO.C,R15*%
X101839500Y-145161724D02*
X101839500Y-144652276D01*
X102884500Y-145161724D02*
X102884500Y-144652276D01*
%TO.C,R2*%
X102656621Y-156846000D02*
X102321379Y-156846000D01*
X102656621Y-157606000D02*
X102321379Y-157606000D01*
D12*
%TO.C,L1*%
X73317100Y-128130300D02*
X87464900Y-128130300D01*
X73317100Y-132944961D02*
X73317100Y-128130300D01*
X73317100Y-141871700D02*
X73317100Y-137057039D01*
X87464900Y-128130300D02*
X87464900Y-132944961D01*
X87464900Y-137057039D02*
X87464900Y-141871700D01*
X87464900Y-141871700D02*
X73317100Y-141871700D01*
X88671400Y-132105400D02*
G75*
G02*
X88519000Y-132105400I-76200J0D01*
G01*
X88519000Y-132105400D02*
G75*
G02*
X88671400Y-132105400I76200J0D01*
G01*
D17*
%TO.C,R25*%
X116291379Y-143663400D02*
X116626621Y-143663400D01*
X116291379Y-144423400D02*
X116626621Y-144423400D01*
%TO.C,C265*%
X65709748Y-132059000D02*
X67132252Y-132059000D01*
X65709748Y-133879000D02*
X67132252Y-133879000D01*
%TO.C,C266*%
X60733000Y-122562252D02*
X60733000Y-122039748D01*
X62203000Y-122562252D02*
X62203000Y-122039748D01*
%TO.C,C262*%
X65709748Y-134853000D02*
X67132252Y-134853000D01*
X65709748Y-136673000D02*
X67132252Y-136673000D01*
%TO.C,J1*%
X117339600Y-132397200D02*
X117339600Y-129637200D01*
X117909600Y-132397200D02*
X117339600Y-132397200D01*
X120449600Y-129637200D02*
X117339600Y-129637200D01*
X122989600Y-132397200D02*
X119529600Y-132397200D01*
X125529600Y-129637200D02*
X122069600Y-129637200D01*
X127149600Y-129637200D02*
X127149600Y-128167200D01*
X127149600Y-132397200D02*
X124609600Y-132397200D01*
X127719600Y-129637200D02*
X127149600Y-129637200D01*
X127719600Y-132397200D02*
X124609600Y-132397200D01*
X127719600Y-132397200D02*
X127719600Y-129637200D01*
%TO.C,R18*%
X135508276Y-141590500D02*
X136017724Y-141590500D01*
X135508276Y-142635500D02*
X136017724Y-142635500D01*
%TO.C,C257*%
X100064835Y-156866000D02*
X99833165Y-156866000D01*
X100064835Y-157586000D02*
X99833165Y-157586000D01*
%TO.C,R27*%
X139228300Y-154000924D02*
X139228300Y-153491476D01*
X140273300Y-154000924D02*
X140273300Y-153491476D01*
D11*
%TO.C,SW1*%
X131385000Y-133447000D02*
X132064500Y-132767500D01*
X131385000Y-136047000D02*
X131385000Y-133447000D01*
X132064500Y-136726500D02*
X131385000Y-136047000D01*
X132785000Y-132147000D02*
X135204000Y-132147000D01*
X132785000Y-137347000D02*
X135204000Y-137347000D01*
X135905500Y-132767500D02*
X136585000Y-133447000D01*
X136585000Y-133447000D02*
X136585000Y-136047000D01*
X136585000Y-136047000D02*
X135905500Y-136726500D01*
X135382000Y-134746500D02*
G75*
G02*
X132588000Y-134746500I-1397000J0D01*
G01*
X132588000Y-134746500D02*
G75*
G02*
X135382000Y-134746500I1397000J0D01*
G01*
X136017000Y-134746500D02*
G75*
G02*
X131953000Y-134746500I-2032000J0D01*
G01*
X131953000Y-134746500D02*
G75*
G02*
X136017000Y-134746500I2032000J0D01*
G01*
D13*
%TO.C,D258*%
X53616000Y-148050000D02*
X54916000Y-148050000D01*
X53616000Y-149050000D02*
X54916000Y-149050000D01*
D14*
X54266000Y-148778500D02*
X54266000Y-148296000D01*
D15*
G36*
X54266000Y-148550000D02*
G01*
X54037500Y-148829500D01*
X54037500Y-148270500D01*
X54266000Y-148550000D01*
G37*
G36*
X54494500Y-148829500D02*
G01*
X54266000Y-148550000D01*
X54494500Y-148270500D01*
X54494500Y-148829500D01*
G37*
D17*
%TO.C,R8*%
X67817276Y-120508500D02*
X68326724Y-120508500D01*
X67817276Y-121553500D02*
X68326724Y-121553500D01*
D14*
%TO.C,IC1*%
X118995000Y-151758000D02*
X118995000Y-151758000D01*
X119095000Y-151758000D02*
X119095000Y-151758000D01*
D18*
X119695000Y-142158000D02*
X119695000Y-158758000D01*
X119695000Y-158758000D02*
X132895000Y-158758000D01*
X132895000Y-142158000D02*
X119695000Y-142158000D01*
X132895000Y-158758000D02*
X132895000Y-142158000D01*
D14*
X118995000Y-151758000D02*
G75*
G02*
X119095000Y-151758000I50000J0D01*
G01*
X119095000Y-151758000D02*
G75*
G02*
X118995000Y-151758000I-50000J0D01*
G01*
D17*
%TO.C,C259*%
X126972033Y-137962400D02*
X127264567Y-137962400D01*
X126972033Y-138982400D02*
X127264567Y-138982400D01*
%TO.C,C260*%
X127129465Y-135572400D02*
X127361135Y-135572400D01*
X127129465Y-136292400D02*
X127361135Y-136292400D01*
%TO.C,C275*%
X98550000Y-137736267D02*
X98550000Y-137443733D01*
X99570000Y-137736267D02*
X99570000Y-137443733D01*
%TO.C,R26*%
X136688300Y-154000924D02*
X136688300Y-153491476D01*
X137733300Y-154000924D02*
X137733300Y-153491476D01*
%TO.C,C269*%
X75191252Y-120804000D02*
X74668748Y-120804000D01*
X75191252Y-122274000D02*
X74668748Y-122274000D01*
%TO.C,R4*%
X56500500Y-118872724D02*
X56500500Y-118363276D01*
X57545500Y-118872724D02*
X57545500Y-118363276D01*
D10*
%TO.C,LED2*%
X139004800Y-157441700D02*
X139004800Y-158491700D01*
X139007300Y-157061700D02*
X139007300Y-155911700D01*
X139304800Y-158791700D02*
X139004800Y-158491700D01*
X139404800Y-158791700D02*
X139304800Y-158791700D01*
X139427300Y-157081700D02*
X139427300Y-157091700D01*
X139427300Y-157091700D02*
X139757300Y-157421700D01*
X139757300Y-157081700D02*
X139757300Y-157421700D01*
X140097300Y-157081700D02*
X139757300Y-157421700D01*
X140104800Y-158791700D02*
X139404800Y-158791700D01*
X140104800Y-158791700D02*
X140205300Y-158791700D01*
X140107300Y-157081700D02*
X139427300Y-157081700D01*
X140107300Y-157081700D02*
X140097300Y-157081700D01*
X140205300Y-158791700D02*
X140505300Y-158491700D01*
X140505300Y-157441700D02*
X140505300Y-158491700D01*
X140507300Y-155911700D02*
X139027300Y-155911700D01*
X140507300Y-157061700D02*
X140507300Y-155911700D01*
D17*
%TO.C,C273*%
X124100000Y-138672835D02*
X124100000Y-138441165D01*
X124820000Y-138672835D02*
X124820000Y-138441165D01*
%TO.C,R1*%
X110221500Y-154559724D02*
X110221500Y-154050276D01*
X111266500Y-154559724D02*
X111266500Y-154050276D01*
D10*
%TO.C,U5*%
X101682000Y-151424000D02*
X105582000Y-151424000D01*
X101682000Y-156424000D02*
X101682000Y-151424000D01*
X101682000Y-156424000D02*
X103152000Y-156424000D01*
X103152000Y-156424000D02*
X103152000Y-156324000D01*
X104172000Y-156384000D02*
X104212000Y-156424000D01*
X104212000Y-156424000D02*
X104452000Y-156424000D01*
X104452000Y-156424000D02*
X105582000Y-156424000D01*
X105582000Y-156424000D02*
X105582000Y-151424000D01*
X103152000Y-156324000D02*
G75*
G02*
X103632000Y-155844000I480001J-1D01*
G01*
X103632000Y-155844000D02*
G75*
G02*
X104172000Y-156384000I43999J-496001D01*
G01*
X102656500Y-155844000D02*
G75*
G02*
X102087500Y-155844000I-284500J0D01*
G01*
X102087500Y-155844000D02*
G75*
G02*
X102656500Y-155844000I284500J0D01*
G01*
D17*
%TO.C,R11*%
X73279724Y-118857500D02*
X72770276Y-118857500D01*
X73279724Y-119902500D02*
X72770276Y-119902500D01*
%TO.C,R23*%
X96112876Y-150836100D02*
X96622324Y-150836100D01*
X96112876Y-151881100D02*
X96622324Y-151881100D01*
%TO.C,C276*%
X58272000Y-124663252D02*
X58272000Y-123240748D01*
X60092000Y-124663252D02*
X60092000Y-123240748D01*
%TO.C,R21*%
X115824724Y-146035500D02*
X115315276Y-146035500D01*
X115824724Y-147080500D02*
X115315276Y-147080500D01*
%TO.C,R22*%
X96112876Y-152309300D02*
X96622324Y-152309300D01*
X96112876Y-153354300D02*
X96622324Y-153354300D01*
%TO.C,C274*%
X107040000Y-131521252D02*
X107040000Y-130098748D01*
X108860000Y-131521252D02*
X108860000Y-130098748D01*
%TO.C,R9*%
X77074500Y-124459276D02*
X77074500Y-124968724D01*
X78119500Y-124459276D02*
X78119500Y-124968724D01*
%TO.C,C270*%
X80822748Y-152760000D02*
X82245252Y-152760000D01*
X80822748Y-154580000D02*
X82245252Y-154580000D01*
%TO.C,R17*%
X100188500Y-144652276D02*
X100188500Y-145161724D01*
X101233500Y-144652276D02*
X101233500Y-145161724D01*
%TO.C,C264*%
X65709748Y-137647000D02*
X67132252Y-137647000D01*
X65709748Y-139467000D02*
X67132252Y-139467000D01*
%TO.C,C261*%
X127129465Y-136715400D02*
X127361135Y-136715400D01*
X127129465Y-137435400D02*
X127361135Y-137435400D01*
%TO.C,R7*%
X62850500Y-121793724D02*
X62850500Y-121284276D01*
X63895500Y-121793724D02*
X63895500Y-121284276D01*
%TO.C,R6*%
X64501500Y-121793724D02*
X64501500Y-121284276D01*
X65546500Y-121793724D02*
X65546500Y-121284276D01*
D11*
%TO.C,DC1*%
X43686000Y-128143500D02*
X46988000Y-128143500D01*
X43686000Y-138303500D02*
X43686000Y-128143500D01*
X44448000Y-138303500D02*
X44448000Y-128143500D01*
X46988000Y-138303500D02*
X43686000Y-138303500D01*
X50544000Y-128143500D02*
X53084000Y-128143500D01*
X50544000Y-138303500D02*
X53084000Y-138303500D01*
X56640000Y-128143500D02*
X58926000Y-128143500D01*
X58926000Y-128143500D02*
X58926000Y-138303500D01*
X58926000Y-138303500D02*
X56640000Y-138303500D01*
D17*
%TO.C,C258*%
X117496000Y-147077165D02*
X117496000Y-147308835D01*
X118216000Y-147077165D02*
X118216000Y-147308835D01*
%TO.C,R5*%
X68493621Y-118746000D02*
X68158379Y-118746000D01*
X68493621Y-119506000D02*
X68158379Y-119506000D01*
%TO.C,J3*%
X171259800Y-149013400D02*
X171259800Y-149583400D01*
X171259800Y-149583400D02*
X169789800Y-149583400D01*
X171259800Y-151203400D02*
X171259800Y-154663400D01*
X174019800Y-149013400D02*
X171259800Y-149013400D01*
X174019800Y-149013400D02*
X174019800Y-152123400D01*
X174019800Y-149583400D02*
X174019800Y-152123400D01*
X174019800Y-153743400D02*
X174019800Y-156853400D01*
X174019800Y-156283400D02*
X174019800Y-156853400D01*
X174019800Y-156853400D02*
X171259800Y-156853400D01*
%TO.C,R24*%
X116626621Y-144831800D02*
X116291379Y-144831800D01*
X116626621Y-145591800D02*
X116291379Y-145591800D01*
D12*
%TO.C,C277*%
X76352400Y-142341600D02*
X84201000Y-142341600D01*
X76352400Y-143219261D02*
X76352400Y-142341600D01*
X76352400Y-147218400D02*
X76352400Y-146340739D01*
X84201000Y-142341600D02*
X84201000Y-143219261D01*
X84201000Y-146340739D02*
X84201000Y-147218400D01*
X84201000Y-147218400D02*
X76352400Y-147218400D01*
D17*
%TO.C,R3*%
X56500500Y-123824276D02*
X56500500Y-124333724D01*
X57545500Y-123824276D02*
X57545500Y-124333724D01*
D11*
%TO.C,U6*%
X116724000Y-138531000D02*
X114924000Y-138531000D01*
X116724000Y-141631000D02*
X114924000Y-141631000D01*
X114554000Y-141732000D02*
G75*
G02*
X114300000Y-141732000I-127000J0D01*
G01*
X114300000Y-141732000D02*
G75*
G02*
X114554000Y-141732000I127000J0D01*
G01*
D17*
%TO.C,R14*%
X104521724Y-147051500D02*
X104012276Y-147051500D01*
X104521724Y-148096500D02*
X104012276Y-148096500D01*
D12*
%TO.C,C278*%
X76352400Y-147421600D02*
X84201000Y-147421600D01*
X76352400Y-148299261D02*
X76352400Y-147421600D01*
X76352400Y-152298400D02*
X76352400Y-151420739D01*
X84201000Y-147421600D02*
X84201000Y-148299261D01*
X84201000Y-151420739D02*
X84201000Y-152298400D01*
X84201000Y-152298400D02*
X76352400Y-152298400D01*
D17*
%TO.C,C268*%
X78767000Y-125102252D02*
X78767000Y-124579748D01*
X80237000Y-125102252D02*
X80237000Y-124579748D01*
%TO.C,C267*%
X75191252Y-124868000D02*
X74668748Y-124868000D01*
X75191252Y-126338000D02*
X74668748Y-126338000D01*
D19*
%TO.C,U1*%
X100941000Y-133986500D02*
X100941000Y-136929500D01*
X100941000Y-136929500D02*
X107593000Y-136929500D01*
X107593000Y-133986500D02*
X100941000Y-133986500D01*
X107593000Y-136929500D02*
X107593000Y-133986500D01*
D11*
%TO.C,USB1*%
X44130000Y-145340000D02*
X45849000Y-145340000D01*
X44130000Y-154340000D02*
X44130000Y-145340000D01*
X44130000Y-154340000D02*
X45849000Y-154340000D01*
X48311000Y-145340000D02*
X49830000Y-145340000D01*
X48311000Y-154340000D02*
X49630000Y-154340000D01*
D17*
%TO.C,C272*%
X118766000Y-138672835D02*
X118766000Y-138441165D01*
X119486000Y-138672835D02*
X119486000Y-138441165D01*
%TO.C,R12*%
X97916276Y-146924500D02*
X98425724Y-146924500D01*
X97916276Y-147969500D02*
X98425724Y-147969500D01*
%TO.C,C271*%
X80822748Y-116057000D02*
X82245252Y-116057000D01*
X80822748Y-117877000D02*
X82245252Y-117877000D01*
%TD*%
%LPC*%
D20*
%TO.C,D257*%
X53516000Y-150582000D03*
X55016000Y-150582000D03*
%TD*%
D21*
%TO.C,U4*%
X70607000Y-124663000D03*
X70607000Y-125162500D03*
X70607000Y-125663000D03*
X70607000Y-126162500D03*
X70607000Y-126663000D03*
X70607000Y-127162500D03*
X70607000Y-127663000D03*
X70613500Y-128161000D03*
X70610000Y-128664500D03*
X70612000Y-129163000D03*
X70612000Y-129663500D03*
X65595500Y-129667000D03*
X65599500Y-129166000D03*
X65600500Y-128666000D03*
X65600500Y-128167000D03*
X65600500Y-127666000D03*
X65599500Y-127167000D03*
X65599500Y-126667000D03*
X65599500Y-126167000D03*
X65602500Y-125665000D03*
X65601500Y-125167000D03*
X65599500Y-124667000D03*
D22*
X68104500Y-127169500D03*
%TD*%
D23*
%TO.C,R20*%
X129921000Y-139850500D03*
X129921000Y-138025500D03*
%TD*%
D24*
%TO.C,X1*%
X120563000Y-139573000D03*
X123063000Y-139573000D03*
%TD*%
D25*
%TO.C,R13*%
X97280100Y-149733000D03*
X95455100Y-149733000D03*
%TD*%
D26*
%TO.C,LED1*%
X137210800Y-158101700D03*
X137210800Y-156502700D03*
%TD*%
D27*
%TO.C,C263*%
X64858500Y-141351000D03*
X67983500Y-141351000D03*
%TD*%
D25*
%TO.C,R10*%
X77620500Y-119380000D03*
X75795500Y-119380000D03*
%TD*%
D28*
%TO.C,J2*%
X144301400Y-147040600D03*
X140991400Y-144500600D03*
X144301400Y-141960600D03*
X140991400Y-139420600D03*
%TD*%
D29*
%TO.C,R16*%
X99060000Y-143994500D03*
X99060000Y-145819500D03*
%TD*%
D25*
%TO.C,R19*%
X136675500Y-140589000D03*
X134850500Y-140589000D03*
%TD*%
D23*
%TO.C,R15*%
X102362000Y-145819500D03*
X102362000Y-143994500D03*
%TD*%
D30*
%TO.C,R2*%
X103086500Y-157226000D03*
X101891500Y-157226000D03*
%TD*%
D31*
%TO.C,L1*%
X86544150Y-135001000D03*
D32*
X74199750Y-135001000D03*
%TD*%
D33*
%TO.C,R25*%
X115861500Y-144043400D03*
X117056500Y-144043400D03*
%TD*%
D27*
%TO.C,C265*%
X64858500Y-132969000D03*
X67983500Y-132969000D03*
%TD*%
D34*
%TO.C,C266*%
X61468000Y-123338500D03*
X61468000Y-121263500D03*
%TD*%
D27*
%TO.C,C262*%
X64858500Y-135763000D03*
X67983500Y-135763000D03*
%TD*%
D35*
%TO.C,J1*%
X126339600Y-129362200D03*
X123799600Y-132672200D03*
X121259600Y-129362200D03*
X118719600Y-132672200D03*
%TD*%
D36*
%TO.C,R18*%
X134850500Y-142113000D03*
X136675500Y-142113000D03*
%TD*%
D37*
%TO.C,C257*%
X100516500Y-157226000D03*
X99381500Y-157226000D03*
%TD*%
D23*
%TO.C,R27*%
X139750800Y-154658700D03*
X139750800Y-152833700D03*
%TD*%
D38*
%TO.C,SW1*%
X132135000Y-131747000D03*
X132135000Y-137747000D03*
X135835000Y-131747000D03*
X135835000Y-137747000D03*
%TD*%
D20*
%TO.C,D258*%
X53516000Y-148550000D03*
X55016000Y-148550000D03*
%TD*%
D36*
%TO.C,R8*%
X67159500Y-121031000D03*
X68984500Y-121031000D03*
%TD*%
D39*
%TO.C,IC1*%
X120395000Y-151758000D03*
X120395000Y-150958000D03*
X120395000Y-150158000D03*
X120395000Y-149358000D03*
X120395000Y-148558000D03*
X120395000Y-147758000D03*
X120395000Y-146958000D03*
X120395000Y-146158000D03*
X120395000Y-145358000D03*
X120395000Y-144558000D03*
X120395000Y-143758000D03*
D40*
X121495000Y-142858000D03*
X122295000Y-142858000D03*
X123095000Y-142858000D03*
X123895000Y-142858000D03*
X124695000Y-142858000D03*
X125495000Y-142858000D03*
X126295000Y-142858000D03*
X127095000Y-142858000D03*
X127895000Y-142858000D03*
X128695000Y-142858000D03*
X129495000Y-142858000D03*
X130295000Y-142858000D03*
X131095000Y-142858000D03*
D39*
X132195000Y-143758000D03*
X132195000Y-144558000D03*
X132195000Y-145358000D03*
X132195000Y-146158000D03*
X132195000Y-146958000D03*
X132195000Y-147758000D03*
X132195000Y-148558000D03*
X132195000Y-149358000D03*
X132195000Y-150158000D03*
X132195000Y-150958000D03*
X132195000Y-151758000D03*
D40*
X131095000Y-152658000D03*
X130295000Y-152658000D03*
X129495000Y-152658000D03*
X128695000Y-152658000D03*
X127895000Y-152658000D03*
X127095000Y-152658000D03*
X126295000Y-152658000D03*
X125495000Y-152658000D03*
X124695000Y-152658000D03*
X123895000Y-152658000D03*
X123095000Y-152658000D03*
X122295000Y-152658000D03*
X121495000Y-152658000D03*
D41*
X126295000Y-147758000D03*
D42*
X132245000Y-152708000D03*
X132245000Y-142808000D03*
X120345000Y-142808000D03*
X120345000Y-152708000D03*
D41*
X124320000Y-147758000D03*
X124320000Y-145783000D03*
X126295000Y-145783000D03*
X128270000Y-145783000D03*
X128270000Y-147758000D03*
X128270000Y-149733000D03*
X126295000Y-149733000D03*
X124320000Y-149733000D03*
%TD*%
D43*
%TO.C,C259*%
X126255800Y-138472400D03*
X127980800Y-138472400D03*
%TD*%
D44*
%TO.C,C260*%
X126677800Y-135932400D03*
X127812800Y-135932400D03*
%TD*%
D45*
%TO.C,C275*%
X99060000Y-138452500D03*
X99060000Y-136727500D03*
%TD*%
D23*
%TO.C,R26*%
X137210800Y-154658700D03*
X137210800Y-152833700D03*
%TD*%
D46*
%TO.C,C269*%
X75967500Y-121539000D03*
X73892500Y-121539000D03*
%TD*%
D23*
%TO.C,R4*%
X57023000Y-119530500D03*
X57023000Y-117705500D03*
%TD*%
D26*
%TO.C,LED2*%
X139750800Y-158101700D03*
X139750800Y-156502700D03*
%TD*%
D47*
%TO.C,C273*%
X124460000Y-139124500D03*
X124460000Y-137989500D03*
%TD*%
D23*
%TO.C,R1*%
X110744000Y-155217500D03*
X110744000Y-153392500D03*
%TD*%
D48*
%TO.C,U5*%
X100632000Y-155924000D03*
X100632000Y-154924000D03*
X100632000Y-153924000D03*
X100632000Y-152924000D03*
X100632000Y-151924000D03*
X106632000Y-151924000D03*
X106632000Y-152924000D03*
X106632000Y-153924000D03*
X106632000Y-154924000D03*
X106632000Y-155924000D03*
D49*
X103632000Y-153924000D03*
%TD*%
D25*
%TO.C,R11*%
X73937500Y-119380000D03*
X72112500Y-119380000D03*
%TD*%
D36*
%TO.C,R23*%
X95455100Y-151358600D03*
X97280100Y-151358600D03*
%TD*%
D50*
%TO.C,C276*%
X59182000Y-125514500D03*
X59182000Y-122389500D03*
%TD*%
D25*
%TO.C,R21*%
X116482500Y-146558000D03*
X114657500Y-146558000D03*
%TD*%
D36*
%TO.C,R22*%
X95455100Y-152831800D03*
X97280100Y-152831800D03*
%TD*%
D50*
%TO.C,C274*%
X107950000Y-132372500D03*
X107950000Y-129247500D03*
%TD*%
D29*
%TO.C,R9*%
X77597000Y-123801500D03*
X77597000Y-125626500D03*
%TD*%
D27*
%TO.C,C270*%
X79971500Y-153670000D03*
X83096500Y-153670000D03*
%TD*%
D29*
%TO.C,R17*%
X100711000Y-143994500D03*
X100711000Y-145819500D03*
%TD*%
D27*
%TO.C,C264*%
X64858500Y-138557000D03*
X67983500Y-138557000D03*
%TD*%
D44*
%TO.C,C261*%
X126677800Y-137075400D03*
X127812800Y-137075400D03*
%TD*%
D23*
%TO.C,R7*%
X63373000Y-122451500D03*
X63373000Y-120626500D03*
%TD*%
%TO.C,R6*%
X65024000Y-122451500D03*
X65024000Y-120626500D03*
%TD*%
D51*
%TO.C,DC1*%
X48764000Y-138723500D03*
X54864000Y-138723500D03*
X48764000Y-127722500D03*
X54864000Y-127722500D03*
%TD*%
D52*
%TO.C,C258*%
X117856000Y-146625500D03*
X117856000Y-147760500D03*
%TD*%
D30*
%TO.C,R5*%
X68923500Y-119126000D03*
X67728500Y-119126000D03*
%TD*%
D28*
%TO.C,J3*%
X170984800Y-150393400D03*
X174294800Y-152933400D03*
X170984800Y-155473400D03*
%TD*%
D30*
%TO.C,R24*%
X117056500Y-145211800D03*
X115861500Y-145211800D03*
%TD*%
D53*
%TO.C,C277*%
X77343000Y-144780000D03*
X83210400Y-144780000D03*
%TD*%
D29*
%TO.C,R3*%
X57023000Y-123166500D03*
X57023000Y-124991500D03*
%TD*%
D54*
%TO.C,U6*%
X114474000Y-141031000D03*
X114474000Y-140081000D03*
X114474000Y-139131000D03*
X117174000Y-139131000D03*
X117174000Y-140081000D03*
X117174000Y-141031000D03*
%TD*%
D25*
%TO.C,R14*%
X105179500Y-147574000D03*
X103354500Y-147574000D03*
%TD*%
D53*
%TO.C,C278*%
X77343000Y-149860000D03*
X83210400Y-149860000D03*
%TD*%
D34*
%TO.C,C268*%
X79502000Y-125878500D03*
X79502000Y-123803500D03*
%TD*%
D46*
%TO.C,C267*%
X75967500Y-125603000D03*
X73892500Y-125603000D03*
%TD*%
D55*
%TO.C,U1*%
X106567000Y-138528000D03*
X104267000Y-138528000D03*
X101967000Y-138528000D03*
D56*
X104267000Y-132588000D03*
%TD*%
D57*
%TO.C,USB1*%
X50980000Y-154940000D03*
X50980000Y-144740000D03*
X47080000Y-144740000D03*
X47080000Y-154940000D03*
D58*
X51980000Y-153040000D03*
X51980000Y-152240000D03*
D59*
X51980000Y-151090000D03*
X51980000Y-150090000D03*
X51980000Y-149590000D03*
X51980000Y-148590000D03*
D58*
X51980000Y-146640000D03*
X51980000Y-147440000D03*
D59*
X51980000Y-148090000D03*
X51980000Y-149090000D03*
X51980000Y-150590000D03*
X51980000Y-151590000D03*
%TD*%
D47*
%TO.C,C272*%
X119126000Y-139124500D03*
X119126000Y-137989500D03*
%TD*%
D36*
%TO.C,R12*%
X97258500Y-147447000D03*
X99083500Y-147447000D03*
%TD*%
D27*
%TO.C,C271*%
X79971500Y-116967000D03*
X83096500Y-116967000D03*
%TD*%
%LPD*%
M02*
