%TF.GenerationSoftware,KiCad,Pcbnew,9.0.2*%
%TF.CreationDate,2025-08-09T15:17:57-05:00*%
%TF.ProjectId,led_matrix,6c65645f-6d61-4747-9269-782e6b696361,rev?*%
%TF.SameCoordinates,Original*%
%TF.FileFunction,Soldermask,Bot*%
%TF.FilePolarity,Negative*%
%FSLAX46Y46*%
G04 Gerber Fmt 4.6, Leading zero omitted, Abs format (unit mm)*
G04 Created by KiCad (PCBNEW 9.0.2) date 2025-08-09 15:17:57*
%MOMM*%
%LPD*%
G01*
G04 APERTURE LIST*
G04 Aperture macros list*
%AMRoundRect*
0 Rectangle with rounded corners*
0 $1 Rounding radius*
0 $2 $3 $4 $5 $6 $7 $8 $9 X,Y pos of 4 corners*
0 Add a 4 corners polygon primitive as box body*
4,1,4,$2,$3,$4,$5,$6,$7,$8,$9,$2,$3,0*
0 Add four circle primitives for the rounded corners*
1,1,$1+$1,$2,$3*
1,1,$1+$1,$4,$5*
1,1,$1+$1,$6,$7*
1,1,$1+$1,$8,$9*
0 Add four rect primitives between the rounded corners*
20,1,$1+$1,$2,$3,$4,$5,0*
20,1,$1+$1,$4,$5,$6,$7,0*
20,1,$1+$1,$6,$7,$8,$9,0*
20,1,$1+$1,$8,$9,$2,$3,0*%
%AMFreePoly0*
4,1,21,2.800000,1.300000,3.200000,1.300000,3.200000,1.000000,2.800000,1.000000,2.800000,-1.000000,3.200000,-1.000000,3.200000,-1.300000,2.800000,-1.300000,2.800000,-1.700000,-2.800000,-1.700000,-2.800000,-1.300000,-3.200000,-1.300000,-3.200000,-1.000000,-2.800000,-1.000000,-2.800000,1.000000,-3.200000,1.000000,-3.200000,1.300000,-2.800000,1.300000,-2.800000,1.700000,2.800000,1.700000,
2.800000,1.300000,2.800000,1.300000,$1*%
G04 Aperture macros list end*
%ADD10R,0.600000X0.400000*%
%ADD11R,1.000000X0.250000*%
%ADD12FreePoly0,270.000000*%
%ADD13R,1.800000X1.000000*%
%ADD14RoundRect,0.237500X0.250000X0.237500X-0.250000X0.237500X-0.250000X-0.237500X0.250000X-0.237500X0*%
%ADD15RoundRect,0.237500X-0.237500X0.250000X-0.237500X-0.250000X0.237500X-0.250000X0.237500X0.250000X0*%
%ADD16R,0.800000X0.800000*%
%ADD17RoundRect,0.250000X-0.412500X-0.650000X0.412500X-0.650000X0.412500X0.650000X-0.412500X0.650000X0*%
%ADD18R,2.510000X1.000000*%
%ADD19RoundRect,0.237500X0.237500X-0.250000X0.237500X0.250000X-0.237500X0.250000X-0.237500X-0.250000X0*%
%ADD20RoundRect,0.160000X0.197500X0.160000X-0.197500X0.160000X-0.197500X-0.160000X0.197500X-0.160000X0*%
%ADD21R,4.813300X3.454400*%
%ADD22R,4.889500X3.454400*%
%ADD23RoundRect,0.160000X0.160000X-0.197500X0.160000X0.197500X-0.160000X0.197500X-0.160000X-0.197500X0*%
%ADD24RoundRect,0.250000X0.475000X-0.337500X0.475000X0.337500X-0.475000X0.337500X-0.475000X-0.337500X0*%
%ADD25R,1.498600X0.889000*%
%ADD26R,0.812800X0.812800*%
%ADD27R,1.000000X2.510000*%
%ADD28RoundRect,0.155000X0.212500X0.155000X-0.212500X0.155000X-0.212500X-0.155000X0.212500X-0.155000X0*%
%ADD29R,0.800000X1.580000*%
%ADD30RoundRect,0.237500X-0.250000X-0.237500X0.250000X-0.237500X0.250000X0.237500X-0.250000X0.237500X0*%
%ADD31RoundRect,0.237500X-0.237500X0.300000X-0.237500X-0.300000X0.237500X-0.300000X0.237500X0.300000X0*%
%ADD32RoundRect,0.155000X-0.155000X0.212500X-0.155000X-0.212500X0.155000X-0.212500X0.155000X0.212500X0*%
%ADD33RoundRect,0.237500X0.237500X-0.300000X0.237500X0.300000X-0.237500X0.300000X-0.237500X-0.300000X0*%
%ADD34RoundRect,0.250000X0.337500X0.475000X-0.337500X0.475000X-0.337500X-0.475000X0.337500X-0.475000X0*%
%ADD35R,1.500000X0.600000*%
%ADD36R,2.100000X3.300000*%
%ADD37RoundRect,0.250000X0.650000X-0.412500X0.650000X0.412500X-0.650000X0.412500X-0.650000X-0.412500X0*%
%ADD38R,2.800000X2.800000*%
%ADD39RoundRect,0.160000X-0.197500X-0.160000X0.197500X-0.160000X0.197500X0.160000X-0.197500X0.160000X0*%
%ADD40R,1.879600X2.463800*%
%ADD41R,0.600000X1.100000*%
%ADD42R,1.100000X2.500000*%
%ADD43R,3.600000X2.340000*%
%ADD44R,2.000000X2.000000*%
%ADD45R,1.300000X0.600000*%
%ADD46R,1.300000X0.300000*%
G04 APERTURE END LIST*
D10*
%TO.C,D257*%
X53516000Y-150582000D03*
X55016000Y-150582000D03*
%TD*%
D11*
%TO.C,U4*%
X70607000Y-124663000D03*
X70607000Y-125162500D03*
X70607000Y-125663000D03*
X70607000Y-126162500D03*
X70607000Y-126663000D03*
X70607000Y-127162500D03*
X70607000Y-127663000D03*
X70613500Y-128161000D03*
X70610000Y-128664500D03*
X70612000Y-129163000D03*
X70612000Y-129663500D03*
X65595500Y-129667000D03*
X65599500Y-129166000D03*
X65600500Y-128666000D03*
X65600500Y-128167000D03*
X65600500Y-127666000D03*
X65599500Y-127167000D03*
X65599500Y-126667000D03*
X65599500Y-126167000D03*
X65602500Y-125665000D03*
X65601500Y-125167000D03*
X65599500Y-124667000D03*
D12*
X68104500Y-127169500D03*
%TD*%
D13*
%TO.C,X1*%
X114350800Y-143941800D03*
X114350800Y-141441800D03*
%TD*%
D14*
%TO.C,R13*%
X97280100Y-149733000D03*
X95455100Y-149733000D03*
%TD*%
D15*
%TO.C,R29*%
X137363200Y-143562700D03*
X137363200Y-145387700D03*
%TD*%
D16*
%TO.C,LED1*%
X147822950Y-157925350D03*
X147822950Y-156326350D03*
%TD*%
D17*
%TO.C,C263*%
X64858500Y-141351000D03*
X67983500Y-141351000D03*
%TD*%
D14*
%TO.C,R10*%
X77620500Y-119380000D03*
X75795500Y-119380000D03*
%TD*%
D18*
%TO.C,J2*%
X145338800Y-148920200D03*
X142028800Y-146380200D03*
X145338800Y-143840200D03*
X142028800Y-141300200D03*
%TD*%
D15*
%TO.C,R16*%
X99060000Y-143994500D03*
X99060000Y-145819500D03*
%TD*%
D19*
%TO.C,R15*%
X102362000Y-145819500D03*
X102362000Y-143994500D03*
%TD*%
D20*
%TO.C,R2*%
X103086500Y-157226000D03*
X101891500Y-157226000D03*
%TD*%
D21*
%TO.C,L1*%
X86544150Y-135001000D03*
D22*
X74199750Y-135001000D03*
%TD*%
D23*
%TO.C,R25*%
X136423400Y-153480100D03*
X136423400Y-152285100D03*
%TD*%
D17*
%TO.C,C265*%
X64858500Y-132969000D03*
X67983500Y-132969000D03*
%TD*%
D24*
%TO.C,C266*%
X61468000Y-123338500D03*
X61468000Y-121263500D03*
%TD*%
D17*
%TO.C,C262*%
X64858500Y-135763000D03*
X67983500Y-135763000D03*
%TD*%
D25*
%TO.C,U2*%
X116751400Y-152224400D03*
X116751400Y-150954400D03*
X116751400Y-149684400D03*
X116751400Y-148414400D03*
X116751400Y-147144400D03*
X116751400Y-145874400D03*
X116751400Y-144604400D03*
X116751400Y-143334400D03*
X116751400Y-142064400D03*
X116751400Y-140794400D03*
X116751400Y-139524400D03*
X116751400Y-138254400D03*
X116751400Y-136984400D03*
X116751400Y-135714400D03*
X134251400Y-135714400D03*
X134251400Y-136984400D03*
X134251400Y-138254400D03*
X134251400Y-139524400D03*
X134251400Y-140794400D03*
X134251400Y-142064400D03*
X134251400Y-143334400D03*
X134251400Y-144604400D03*
X134251400Y-145874400D03*
X134251400Y-147144400D03*
X134251400Y-148414400D03*
X134251400Y-149684400D03*
X134251400Y-150954400D03*
X134251400Y-152224400D03*
D26*
X123996400Y-146504400D03*
X122746400Y-147754400D03*
X122746400Y-146504400D03*
X122746400Y-145254400D03*
X123996400Y-145254400D03*
X125246400Y-145254400D03*
X125246400Y-146504400D03*
X125246400Y-147754400D03*
X123996400Y-147754400D03*
%TD*%
D27*
%TO.C,J1*%
X128092200Y-127965200D03*
X125552200Y-131275200D03*
X123012200Y-127965200D03*
X120472200Y-131275200D03*
%TD*%
D28*
%TO.C,C257*%
X100516500Y-157226000D03*
X99381500Y-157226000D03*
%TD*%
D19*
%TO.C,R27*%
X150362950Y-154482350D03*
X150362950Y-152657350D03*
%TD*%
D29*
%TO.C,SW1*%
X134450600Y-126638800D03*
X134450600Y-132638800D03*
X138150600Y-126638800D03*
X138150600Y-132638800D03*
%TD*%
D10*
%TO.C,D258*%
X53516000Y-148550000D03*
X55016000Y-148550000D03*
%TD*%
D30*
%TO.C,R8*%
X67159500Y-121031000D03*
X68984500Y-121031000D03*
%TD*%
D14*
%TO.C,R28*%
X114120300Y-138480800D03*
X112295300Y-138480800D03*
%TD*%
D31*
%TO.C,C259*%
X112623600Y-153925100D03*
X112623600Y-155650100D03*
%TD*%
D32*
%TO.C,C260*%
X113868200Y-154059000D03*
X113868200Y-155194000D03*
%TD*%
D33*
%TO.C,C275*%
X99060000Y-138452500D03*
X99060000Y-136727500D03*
%TD*%
D19*
%TO.C,R26*%
X147822950Y-154482350D03*
X147822950Y-152657350D03*
%TD*%
D34*
%TO.C,C269*%
X75967500Y-121539000D03*
X73892500Y-121539000D03*
%TD*%
D19*
%TO.C,R4*%
X57023000Y-119530500D03*
X57023000Y-117705500D03*
%TD*%
D16*
%TO.C,LED2*%
X150362950Y-157925350D03*
X150362950Y-156326350D03*
%TD*%
D28*
%TO.C,C273*%
X113902300Y-140044800D03*
X112767300Y-140044800D03*
%TD*%
D30*
%TO.C,R1*%
X104624500Y-157378400D03*
X106449500Y-157378400D03*
%TD*%
D35*
%TO.C,U5*%
X100632000Y-155924000D03*
X100632000Y-154924000D03*
X100632000Y-153924000D03*
X100632000Y-152924000D03*
X100632000Y-151924000D03*
X106632000Y-151924000D03*
X106632000Y-152924000D03*
X106632000Y-153924000D03*
X106632000Y-154924000D03*
X106632000Y-155924000D03*
D36*
X103632000Y-153924000D03*
%TD*%
D14*
%TO.C,R11*%
X73937500Y-119380000D03*
X72112500Y-119380000D03*
%TD*%
D30*
%TO.C,R23*%
X95455100Y-151358600D03*
X97280100Y-151358600D03*
%TD*%
D37*
%TO.C,C276*%
X59182000Y-125514500D03*
X59182000Y-122389500D03*
%TD*%
D19*
%TO.C,R21*%
X113157000Y-151890100D03*
X113157000Y-150065100D03*
%TD*%
D30*
%TO.C,R22*%
X95455100Y-152831800D03*
X97280100Y-152831800D03*
%TD*%
D37*
%TO.C,C274*%
X107950000Y-132372500D03*
X107950000Y-129247500D03*
%TD*%
D15*
%TO.C,R9*%
X77597000Y-123801500D03*
X77597000Y-125626500D03*
%TD*%
D17*
%TO.C,C270*%
X79971500Y-153670000D03*
X83096500Y-153670000D03*
%TD*%
D15*
%TO.C,R17*%
X100711000Y-143994500D03*
X100711000Y-145819500D03*
%TD*%
D17*
%TO.C,C264*%
X64858500Y-138557000D03*
X67983500Y-138557000D03*
%TD*%
D32*
%TO.C,C261*%
X115011200Y-154042300D03*
X115011200Y-155177300D03*
%TD*%
D19*
%TO.C,R7*%
X63373000Y-122451500D03*
X63373000Y-120626500D03*
%TD*%
%TO.C,R6*%
X65024000Y-122451500D03*
X65024000Y-120626500D03*
%TD*%
D38*
%TO.C,DC1*%
X48764000Y-138723500D03*
X54864000Y-138723500D03*
X48764000Y-127722500D03*
X54864000Y-127722500D03*
%TD*%
D32*
%TO.C,C258*%
X114528600Y-150105300D03*
X114528600Y-151240300D03*
%TD*%
D20*
%TO.C,R5*%
X68923500Y-119126000D03*
X67728500Y-119126000D03*
%TD*%
D18*
%TO.C,J3*%
X170984800Y-150393400D03*
X174294800Y-152933400D03*
X170984800Y-155473400D03*
%TD*%
D39*
%TO.C,R24*%
X136460900Y-151003000D03*
X137655900Y-151003000D03*
%TD*%
D40*
%TO.C,C277*%
X77343000Y-144780000D03*
X83210400Y-144780000D03*
%TD*%
D15*
%TO.C,R3*%
X57023000Y-123166500D03*
X57023000Y-124991500D03*
%TD*%
D41*
%TO.C,U6*%
X117269600Y-132871200D03*
X116319600Y-132871200D03*
X115369600Y-132871200D03*
X115369600Y-130171200D03*
X116319600Y-130171200D03*
X117269600Y-130171200D03*
%TD*%
D14*
%TO.C,R14*%
X105179500Y-147574000D03*
X103354500Y-147574000D03*
%TD*%
D40*
%TO.C,C278*%
X77343000Y-149860000D03*
X83210400Y-149860000D03*
%TD*%
D24*
%TO.C,C268*%
X79502000Y-125878500D03*
X79502000Y-123803500D03*
%TD*%
D34*
%TO.C,C267*%
X75967500Y-125603000D03*
X73892500Y-125603000D03*
%TD*%
D42*
%TO.C,U1*%
X106567000Y-138528000D03*
X104267000Y-138528000D03*
X101967000Y-138528000D03*
D43*
X104267000Y-132588000D03*
%TD*%
D44*
%TO.C,USB1*%
X50980000Y-154940000D03*
X50980000Y-144740000D03*
X47080000Y-144740000D03*
X47080000Y-154940000D03*
D45*
X51980000Y-153040000D03*
X51980000Y-152240000D03*
D46*
X51980000Y-151090000D03*
X51980000Y-150090000D03*
X51980000Y-149590000D03*
X51980000Y-148590000D03*
D45*
X51980000Y-146640000D03*
X51980000Y-147440000D03*
D46*
X51980000Y-148090000D03*
X51980000Y-149090000D03*
X51980000Y-150590000D03*
X51980000Y-151590000D03*
%TD*%
D28*
%TO.C,C272*%
X113826100Y-145288000D03*
X112691100Y-145288000D03*
%TD*%
D30*
%TO.C,R12*%
X97258500Y-147447000D03*
X99083500Y-147447000D03*
%TD*%
D17*
%TO.C,C271*%
X79971500Y-116967000D03*
X83096500Y-116967000D03*
%TD*%
D19*
%TO.C,R30*%
X138938000Y-145438500D03*
X138938000Y-143613500D03*
%TD*%
M02*
