M48
; DRILL file {KiCad 9.0.2} date 2025-08-05T20:22:49-0500
; FORMAT={-:-/ absolute / inch / decimal}
; #@! TF.CreationDate,2025-08-05T20:22:49-05:00
; #@! TF.GenerationSoftware,Kicad,Pcbnew,9.0.2
; #@! TF.FileFunction,Plated,1,2,PTH
FMAT,2
INCH
; #@! TA.AperFunction,Plated,PTH,ViaDrill
T1C0.0118
; #@! TA.AperFunction,Plated,PTH,ViaDrill
T2C0.0120
%
G90
G05
T1
X1.815Y-6.245
X1.82Y-5.77
X1.855Y-5.69
X1.855Y-6.255
X1.86Y-1.525
X1.86Y-1.835
X1.86Y-1.915
X1.86Y-2.185
X1.86Y-2.495
X1.86Y-2.545
X1.86Y-2.805
X1.86Y-3.125
X1.86Y-3.175
X1.86Y-3.445
X1.86Y-3.755
X1.86Y-4.075
X1.86Y-4.385
X1.86Y-4.705
X1.8635Y-1.597
X1.87Y-2.235
X1.87Y-2.865
X1.87Y-3.495
X1.87Y-3.805
X1.87Y-5.905
X1.87Y-6.005
X1.9173Y-3.4403
X1.92Y-1.615
X1.92Y-1.925
X1.92Y-2.245
X1.92Y-2.555
X1.92Y-2.875
X1.92Y-3.185
X1.92Y-3.505
X1.92Y-3.815
X1.92Y-4.135
X1.92Y-4.445
X1.92Y-4.755
X1.9213Y-1.237
X1.9213Y-1.363
X1.9213Y-5.7724
X1.9223Y-1.5503
X1.9223Y-1.8653
X1.9223Y-2.1803
X1.9223Y-2.4953
X1.9223Y-2.8103
X1.9223Y-3.1253
X1.9223Y-3.7553
X1.9223Y-4.0703
X1.9223Y-4.3853
X1.9223Y-4.7003
X1.9223Y-5.0153
X1.9223Y-5.3303
X1.9223Y-5.6453
X1.93Y-5.7
X1.97Y-3.66
X1.97Y-5.915
X1.9739Y-1.4567
X1.9739Y-5.8661
X1.975Y-1.77
X1.975Y-2.085
X1.975Y-2.4
X1.975Y-2.715
X1.975Y-3.03
X1.975Y-3.345
X1.975Y-3.975
X1.975Y-4.29
X1.975Y-4.605
X1.975Y-4.92
X1.975Y-6.185
X2.005Y-5.7
X2.102Y-6.161
X2.102Y-6.191
X2.12Y-5.89
X2.16Y-3.435
X2.16Y-4.375
X2.16Y-5.89
X2.162Y-4.683
X2.17Y-1.235
X2.17Y-1.545
X2.17Y-1.865
X2.17Y-2.175
X2.17Y-2.485
X2.17Y-2.805
X2.17Y-3.125
X2.17Y-3.745
X2.17Y-4.075
X2.17Y-5.645
X2.22Y-5.86
X2.22Y-5.895
X2.23Y-4.135
X2.23Y-4.455
X2.23Y-5.705
X2.23Y-6.025
X2.232Y-6.159
X2.232Y-6.189
X2.2323Y-3.4403
X2.2362Y-1.237
X2.2373Y-1.5503
X2.2373Y-1.8653
X2.2373Y-2.1803
X2.2373Y-2.4953
X2.2373Y-2.8103
X2.2373Y-3.1253
X2.2373Y-3.7553
X2.2373Y-4.3853
X2.2373Y-5.3303
X2.2373Y-5.6453
X2.245Y-5.025
X2.2729Y-5.0525
X2.28Y-6.017
X2.285Y-3.66
X2.2889Y-1.4567
X2.2889Y-3.9764
X2.2889Y-5.5512
X2.29Y-1.77
X2.29Y-2.085
X2.29Y-2.4
X2.29Y-2.715
X2.29Y-3.03
X2.29Y-3.345
X2.29Y-4.29
X2.29Y-4.605
X2.29Y-5.865
X2.29Y-6.185
X2.291Y-5.26
X2.298Y-4.743
X2.304Y-4.663
X2.31Y-1.225
X2.31Y-1.265
X2.31Y-3.435
X2.31Y-3.485
X2.31Y-4.375
X2.31Y-4.425
X2.32Y-1.545
X2.32Y-1.595
X2.32Y-1.865
X2.32Y-1.915
X2.32Y-2.175
X2.32Y-2.225
X2.32Y-2.485
X2.32Y-2.535
X2.32Y-2.805
X2.32Y-2.855
X2.32Y-3.125
X2.32Y-3.175
X2.32Y-3.745
X2.32Y-3.795
X2.32Y-4.065
X2.32Y-4.105
X2.33Y-4.875
X2.35Y-4.743
X2.352Y-4.663
X2.388Y-6.025
X2.4Y-3.505
X2.41Y-1.615
X2.41Y-1.935
X2.41Y-2.245
X2.41Y-2.555
X2.41Y-2.875
X2.41Y-3.195
X2.41Y-3.815
X2.41Y-4.135
X2.42Y-4.455
X2.42Y-4.9153
X2.42Y-4.965
X2.426Y-6.027
X2.4498Y-5.0902
X2.48Y-1.235
X2.48Y-1.545
X2.48Y-1.865
X2.48Y-2.175
X2.48Y-2.485
X2.48Y-2.805
X2.48Y-3.745
X2.48Y-4.385
X2.49Y-3.125
X2.49Y-3.435
X2.49Y-4.075
X2.49Y-5.05
X2.5Y-6.18
X2.54Y-4.445
X2.54Y-4.9031
X2.5473Y-3.4403
X2.55Y-4.135
X2.5512Y-1.237
X2.5523Y-1.5503
X2.5523Y-1.8653
X2.5523Y-2.1803
X2.5523Y-2.4953
X2.5523Y-2.8103
X2.5523Y-3.1253
X2.5523Y-3.7553
X2.5523Y-4.0703
X2.5523Y-4.3853
X2.5523Y-4.7003
X2.5999Y-3.66
X2.6038Y-1.4567
X2.6049Y-1.77
X2.6049Y-2.085
X2.6049Y-2.4
X2.6049Y-2.715
X2.6049Y-3.03
X2.6049Y-3.345
X2.6049Y-3.975
X2.6049Y-4.29
X2.6049Y-4.605
X2.6049Y-5.55
X2.6049Y-5.865
X2.6049Y-6.185
X2.614Y-4.717
X2.614Y-5.235
X2.63Y-1.545
X2.63Y-1.595
X2.63Y-1.865
X2.63Y-1.915
X2.63Y-2.175
X2.63Y-2.225
X2.63Y-2.485
X2.63Y-2.535
X2.63Y-2.805
X2.63Y-2.855
X2.63Y-3.745
X2.63Y-3.795
X2.63Y-4.375
X2.63Y-4.415
X2.63Y-5.35
X2.64Y-1.225
X2.64Y-1.265
X2.64Y-3.125
X2.64Y-3.175
X2.64Y-3.435
X2.64Y-3.485
X2.64Y-4.065
X2.64Y-4.105
X2.64Y-5.005
X2.64Y-5.045
X2.64Y-5.085
X2.646Y-4.9213
X2.65Y-5.635
X2.65Y-5.695
X2.65Y-5.935
X2.65Y-5.995
X2.675Y-5.005
X2.675Y-5.045
X2.68Y-5.085
X2.71Y-6.025
X2.72Y-1.615
X2.72Y-1.935
X2.72Y-2.245
X2.72Y-2.555
X2.72Y-2.875
X2.72Y-3.815
X2.72Y-4.445
X2.72Y-5.085
X2.72Y-5.395
X2.72Y-5.705
X2.73Y-3.195
X2.73Y-3.505
X2.73Y-4.135
X2.75Y-6.025
X2.765Y-4.765
X2.78Y-4.73
X2.79Y-5.315
X2.79Y-5.635
X2.8Y-1.225
X2.8Y-1.545
X2.8Y-1.865
X2.8Y-2.175
X2.8Y-2.485
X2.8Y-2.805
X2.8Y-3.125
X2.8Y-3.435
X2.8Y-3.745
X2.8Y-4.075
X2.8Y-4.385
X2.8Y-5.945
X2.8101Y-4.8151
X2.8447Y-4.885
X2.86Y-4.135
X2.86Y-4.445
X2.86Y-5.715
X2.8622Y-3.4403
X2.8661Y-1.237
X2.8672Y-1.5503
X2.8672Y-1.8653
X2.8672Y-2.1803
X2.8672Y-2.4953
X2.8672Y-2.8103
X2.8672Y-3.1253
X2.8672Y-3.7553
X2.8672Y-4.0703
X2.8672Y-4.3853
X2.8672Y-4.7003
X2.8672Y-5.6453
X2.8672Y-5.9653
X2.87Y-6.025
X2.9149Y-3.66
X2.9188Y-1.4567
X2.9199Y-1.77
X2.9199Y-2.085
X2.9199Y-2.4
X2.9199Y-2.715
X2.9199Y-3.03
X2.9199Y-3.345
X2.9199Y-3.975
X2.9199Y-4.29
X2.9199Y-4.605
X2.9199Y-5.55
X2.9199Y-5.865
X2.9199Y-6.185
X2.92Y-4.88
X2.94Y-5.635
X2.94Y-5.685
X2.95Y-1.225
X2.95Y-1.265
X2.95Y-1.545
X2.95Y-1.595
X2.95Y-1.865
X2.95Y-1.915
X2.95Y-2.175
X2.95Y-2.225
X2.95Y-2.485
X2.95Y-2.535
X2.95Y-2.805
X2.95Y-2.855
X2.95Y-3.125
X2.95Y-3.175
X2.95Y-3.435
X2.95Y-3.485
X2.95Y-3.745
X2.95Y-3.795
X2.95Y-4.065
X2.95Y-4.105
X2.95Y-4.375
X2.95Y-4.415
X2.95Y-5.945
X2.95Y-5.995
X2.955Y-5.005
X3.04Y-1.615
X3.04Y-1.935
X3.04Y-2.245
X3.04Y-2.555
X3.04Y-2.875
X3.04Y-3.195
X3.04Y-3.505
X3.04Y-3.815
X3.04Y-4.135
X3.04Y-4.445
X3.05Y-5.395
X3.05Y-5.715
X3.06Y-6.025
X3.1Y-5.03
X3.105Y-4.815
X3.11Y-1.865
X3.11Y-2.175
X3.11Y-2.495
X3.11Y-3.125
X3.11Y-3.755
X3.11Y-4.385
X3.112Y-1.543
X3.119Y-3.436
X3.12Y-1.225
X3.12Y-2.805
X3.12Y-4.075
X3.12Y-5.325
X3.12Y-5.935
X3.12Y-5.975
X3.13Y-5.01
X3.1485Y-4.605
X3.17Y-2.245
X3.17Y-2.555
X3.17Y-4.135
X3.17Y-4.445
X3.17Y-5.075
X3.17Y-5.395
X3.176Y-3.501
X3.1772Y-3.4403
X3.18Y-1.925
X3.18Y-2.875
X3.18Y-3.185
X3.18Y-3.815
X3.1811Y-1.237
X3.1811Y-1.6081
X3.1822Y-1.5503
X3.1822Y-1.8653
X3.1822Y-2.1803
X3.1822Y-2.4953
X3.1822Y-2.8103
X3.1822Y-3.1253
X3.1822Y-3.7553
X3.1822Y-4.0703
X3.1822Y-4.3853
X3.1822Y-4.7003
X3.1822Y-5.0153
X3.1822Y-5.3303
X3.1822Y-5.6453
X3.2298Y-3.66
X3.2338Y-1.4567
X3.2338Y-4.2913
X3.2338Y-6.1811
X3.2348Y-1.77
X3.2348Y-2.085
X3.2348Y-2.4
X3.2348Y-2.715
X3.2348Y-3.03
X3.2348Y-3.345
X3.2348Y-3.975
X3.2348Y-4.92
X3.2348Y-5.235
X3.2348Y-5.55
X3.24Y-3.865
X3.24Y-3.915
X3.24Y-4.495
X3.24Y-4.545
X3.25Y-4.2
X3.25Y-4.245
X3.26Y-1.265
X3.265Y-1.355
X3.265Y-1.67
X3.265Y-4.865
X3.265Y-5.775
X3.265Y-5.805
X3.2657Y-1.987
X3.2657Y-2.302
X3.2657Y-2.617
X3.2657Y-2.927
X3.2657Y-3.242
X3.2657Y-3.562
X3.2657Y-4.817
X3.27Y-1.225
X3.27Y-5.45
X3.27Y-5.49
X3.2715Y-6.07
X3.275Y-5.135
X3.275Y-5.175
X3.275Y-6.12
X3.28Y-4.495
X3.28Y-4.545
X3.29Y-3.865
X3.29Y-3.915
X3.295Y-5.87
X3.3Y-4.2
X3.3Y-4.245
X3.3017Y-1.4567
X3.3017Y-1.7717
X3.3017Y-3.9764
X3.3017Y-4.2913
X3.3023Y-2.0887
X3.3023Y-2.4037
X3.3023Y-2.7187
X3.3023Y-3.0287
X3.3023Y-3.3437
X3.3023Y-3.6637
X3.3023Y-4.9187
X3.3543Y-1.363
X3.3543Y-1.678
X3.3543Y-4.1976
X3.355Y-1.995
X3.355Y-2.31
X3.355Y-2.625
X3.355Y-2.935
X3.355Y-3.25
X3.355Y-3.57
X3.355Y-4.825
X3.355Y-5.775
X3.355Y-6.09
X3.365Y-1.455
X3.365Y-1.77
X3.365Y-3.94
X3.365Y-3.985
X3.365Y-4.29
X3.3657Y-2.087
X3.3657Y-2.402
X3.3657Y-2.717
X3.3657Y-3.027
X3.3657Y-3.342
X3.3657Y-3.662
X3.3657Y-4.917
X3.3657Y-5.867
X3.37Y-4.595
X3.37Y-5.545
X3.375Y-5.215
X3.425Y-3.89
X3.425Y-3.94
X3.425Y-3.985
X3.425Y-5.15
X3.425Y-5.455
X3.425Y-5.505
X3.425Y-5.545
X3.43Y-1.225
X3.43Y-1.355
X3.43Y-1.67
X3.43Y-4.2
X3.43Y-4.245
X3.43Y-4.29
X3.43Y-4.505
X3.43Y-4.545
X3.43Y-4.595
X3.43Y-4.87
X3.43Y-4.915
X3.43Y-5.775
X3.43Y-5.825
X3.43Y-5.865
X3.43Y-6.125
X3.4307Y-1.987
X3.4307Y-2.302
X3.4307Y-2.617
X3.4307Y-2.927
X3.4307Y-3.242
X3.4307Y-3.562
X3.4307Y-4.817
X3.4307Y-6.082
X3.455Y-5.205
X3.465Y-1.455
X3.465Y-1.77
X3.4657Y-2.087
X3.4657Y-2.402
X3.4657Y-2.717
X3.4657Y-3.027
X3.4657Y-3.342
X3.4657Y-3.662
X3.48Y-3.94
X3.48Y-3.985
X3.48Y-5.545
X3.488Y-4.273
X3.49Y-4.595
X3.49Y-4.915
X3.49Y-5.865
X3.4961Y-1.237
X3.5Y-5.205
X3.5448Y-3.66
X3.5487Y-1.4567
X3.5487Y-4.2913
X3.5487Y-5.2362
X3.5487Y-5.5512
X3.5487Y-5.8661
X3.5487Y-6.1811
X3.5498Y-1.77
X3.5498Y-2.085
X3.5498Y-2.4
X3.5498Y-2.715
X3.5498Y-3.03
X3.5498Y-3.345
X3.5498Y-3.975
X3.5498Y-4.605
X3.5498Y-4.92
X3.55Y-4.2
X3.55Y-4.245
X3.55Y-4.505
X3.55Y-4.545
X3.55Y-5.125
X3.55Y-5.18
X3.55Y-5.44
X3.55Y-5.49
X3.555Y-5.77
X3.555Y-5.815
X3.56Y-2.035
X3.56Y-3.865
X3.56Y-3.915
X3.565Y-1.355
X3.565Y-1.67
X3.565Y-4.86
X3.565Y-6.125
X3.5657Y-1.987
X3.5657Y-2.302
X3.5657Y-2.617
X3.5657Y-2.927
X3.5657Y-3.242
X3.5657Y-3.562
X3.5657Y-4.817
X3.5657Y-6.075
X3.58Y-1.215
X3.58Y-1.265
X3.595Y-4.2
X3.595Y-4.245
X3.595Y-4.505
X3.595Y-4.545
X3.595Y-5.77
X3.595Y-5.815
X3.6Y-3.865
X3.6Y-3.915
X3.6Y-5.125
X3.6Y-5.18
X3.6Y-5.44
X3.6Y-5.49
X3.65Y-4.445
X3.656Y-5.393
X3.66Y-1.615
X3.66Y-1.925
X3.66Y-2.245
X3.66Y-2.555
X3.66Y-2.875
X3.66Y-3.195
X3.66Y-3.505
X3.66Y-3.815
X3.66Y-4.135
X3.66Y-4.765
X3.66Y-5.075
X3.66Y-5.715
X3.66Y-6.025
X3.68Y-4.445
X3.6814Y-6.176
X3.69Y-1.615
X3.69Y-1.925
X3.69Y-2.245
X3.69Y-2.555
X3.69Y-2.875
X3.69Y-3.195
X3.69Y-3.505
X3.69Y-3.815
X3.69Y-4.135
X3.69Y-4.765
X3.69Y-5.075
X3.69Y-5.715
X3.692Y-5.393
X3.694Y-6.021
X3.718Y-5.947
X3.74Y-1.235
X3.74Y-2.175
X3.74Y-2.485
X3.74Y-2.805
X3.74Y-3.115
X3.74Y-3.435
X3.74Y-3.745
X3.74Y-4.065
X3.74Y-4.385
X3.74Y-4.685
X3.74Y-5.015
X3.74Y-5.325
X3.746Y-5.663
X3.75Y-1.545
X3.75Y-1.855
X3.7581Y-5.895
X3.7672Y-6.2069
X3.8Y-3.815
X3.8Y-5.395
X3.81Y-4.445
X3.81Y-4.765
X3.81Y-5.075
X3.811Y-1.237
X3.811Y-1.552
X3.811Y-1.8669
X3.811Y-2.1819
X3.811Y-2.4969
X3.811Y-2.8118
X3.811Y-3.1268
X3.811Y-3.4417
X3.811Y-3.7567
X3.811Y-4.0717
X3.811Y-4.3866
X3.811Y-4.7016
X3.811Y-5.0165
X3.811Y-5.3315
X3.811Y-5.6465
X3.826Y-5.705
X3.8637Y-1.4567
X3.8637Y-1.7717
X3.8637Y-2.0866
X3.8637Y-2.4016
X3.8637Y-2.7165
X3.8637Y-3.0315
X3.8637Y-3.3465
X3.8637Y-3.6614
X3.8637Y-3.9764
X3.8637Y-4.2913
X3.8637Y-4.6063
X3.8637Y-4.9213
X3.8637Y-5.2362
X3.8637Y-5.5512
X3.8637Y-5.8661
X3.8637Y-6.1811
X3.89Y-2.175
X3.89Y-2.225
X3.89Y-2.485
X3.89Y-2.535
X3.89Y-2.805
X3.89Y-2.855
X3.89Y-3.115
X3.89Y-3.165
X3.89Y-3.435
X3.89Y-3.485
X3.89Y-3.745
X3.898Y-4.385
X3.898Y-4.431
X3.9Y-1.225
X3.9Y-1.265
X3.9Y-1.545
X3.9Y-1.595
X3.9Y-1.855
X3.9Y-1.905
X3.9Y-3.795
X3.9Y-4.075
X3.9Y-4.115
X3.9Y-5.383
X3.9Y-5.4509
X3.91Y-4.9802
X3.92Y-4.6602
X3.924Y-5.335
X3.928Y-4.3547
X3.96Y-4.761
X3.962Y-5.075
X3.962Y-5.395
X3.98Y-2.245
X3.98Y-2.555
X3.98Y-2.875
X3.98Y-3.185
X3.98Y-3.505
X3.98Y-4.135
X3.99Y-1.615
X3.99Y-1.925
X3.99Y-3.825
X3.996Y-4.453
X3.998Y-5.705
X4.002Y-5.085
X4.004Y-4.763
X4.05Y-2.175
X4.05Y-5.325
X4.05Y-5.965
X4.055Y-6.015
X4.0585Y-6.19
X4.06Y-1.235
X4.06Y-1.545
X4.06Y-1.855
X4.06Y-2.485
X4.06Y-2.805
X4.06Y-3.115
X4.06Y-3.435
X4.06Y-4.395
X4.06Y-4.689
X4.06Y-5.015
X4.06Y-5.355
X4.0628Y-5.9238
X4.068Y-4.067
X4.088Y-5.897
X4.105Y-6.015
X4.116Y-5.963
X4.12Y-5.075
X4.1221Y-3.4403
X4.126Y-1.237
X4.126Y-3.819
X4.126Y-5.711
X4.1271Y-1.5503
X4.1271Y-1.8653
X4.1271Y-2.1803
X4.1271Y-2.4953
X4.1271Y-2.8103
X4.1271Y-3.1253
X4.1271Y-3.7553
X4.1271Y-4.0703
X4.1271Y-4.3853
X4.1271Y-4.7003
X4.1271Y-5.0153
X4.1271Y-5.6453
X4.13Y-4.445
X4.1747Y-3.66
X4.1786Y-1.4567
X4.1797Y-1.77
X4.1797Y-2.085
X4.1797Y-2.4
X4.1797Y-2.715
X4.1797Y-3.03
X4.1797Y-3.345
X4.1797Y-3.975
X4.1797Y-4.29
X4.1797Y-4.605
X4.1797Y-4.92
X4.1797Y-5.55
X4.1797Y-5.865
X4.1797Y-6.185
X4.18Y-5.3303
X4.1915Y-5.3691
X4.192Y-5.641
X4.192Y-5.695
X4.2Y-2.175
X4.2Y-2.225
X4.2Y-5.015
X4.202Y-4.437
X4.206Y-4.387
X4.206Y-4.691
X4.206Y-4.749
X4.21Y-1.225
X4.21Y-1.265
X4.21Y-1.545
X4.21Y-1.595
X4.21Y-1.855
X4.21Y-1.905
X4.21Y-2.485
X4.21Y-2.535
X4.21Y-2.805
X4.21Y-2.855
X4.21Y-3.115
X4.21Y-3.165
X4.21Y-3.435
X4.21Y-3.485
X4.21Y-3.797
X4.214Y-3.749
X4.215Y-5.295
X4.22Y-4.075
X4.22Y-4.115
X4.24Y-6.06
X4.244Y-5.345
X4.25Y-5.075
X4.268Y-4.445
X4.272Y-4.763
X4.28Y-5.395
X4.282Y-5.709
X4.29Y-2.245
X4.3Y-1.615
X4.3Y-1.925
X4.3Y-2.555
X4.3Y-2.875
X4.3Y-3.185
X4.3Y-3.505
X4.3Y-4.135
X4.302Y-3.821
X4.31Y-5.395
X4.314Y-5.711
X4.316Y-4.455
X4.316Y-4.765
X4.32Y-5.085
X4.36Y-6.0391
X4.36Y-6.193
X4.37Y-1.215
X4.37Y-2.805
X4.37Y-3.125
X4.37Y-5.625
X4.372Y-3.747
X4.3723Y-4.6988
X4.374Y-2.175
X4.374Y-4.065
X4.375Y-5.665
X4.376Y-3.439
X4.38Y-1.545
X4.38Y-1.865
X4.38Y-2.495
X4.38Y-5.955
X4.382Y-5.371
X4.3988Y-5.3977
X4.434Y-3.501
X4.436Y-5.711
X4.437Y-3.4403
X4.438Y-1.615
X4.438Y-1.931
X4.438Y-2.559
X4.438Y-3.189
X4.438Y-5.079
X4.44Y-2.871
X4.44Y-4.449
X4.4409Y-1.237
X4.442Y-3.817
X4.442Y-4.135
X4.442Y-4.763
X4.442Y-1.5503
X4.442Y-1.8653
X4.442Y-2.1803
X4.442Y-2.4953
X4.442Y-2.8103
X4.442Y-3.1253
X4.442Y-3.7553
X4.442Y-4.0703
X4.442Y-4.3853
X4.442Y-4.7003
X4.442Y-5.0153
X4.442Y-5.3303
X4.442Y-5.6453
X4.442Y-5.9653
X4.4432Y-5.4102
X4.444Y-2.241
X4.446Y-6.025
X4.452Y-5.55
X4.488Y-5.6233
X4.4897Y-3.66
X4.49Y-1.925
X4.49Y-2.235
X4.492Y-5.355
X4.4936Y-1.4567
X4.4947Y-1.77
X4.4947Y-2.085
X4.4947Y-2.4
X4.4947Y-2.715
X4.4947Y-3.03
X4.4947Y-3.345
X4.4947Y-3.975
X4.4947Y-4.29
X4.4947Y-4.605
X4.4947Y-4.92
X4.4947Y-5.235
X4.4947Y-5.865
X4.4947Y-6.185
X4.51Y-5.965
X4.516Y-5.705
X4.5195Y-5.6233
X4.52Y-1.225
X4.52Y-1.265
X4.524Y-5.673
X4.5255Y-5.91
X4.578Y-3.185
X4.58Y-4.445
X4.584Y-2.555
X4.586Y-2.871
X4.586Y-3.819
X4.586Y-5.077
X4.588Y-2.243
X4.588Y-3.501
X4.588Y-4.763
X4.59Y-4.131
X4.59Y-6.023
X4.592Y-1.297
X4.592Y-1.929
X4.594Y-1.615
X4.6131Y-5.5524
X4.622Y-3.507
X4.622Y-4.451
X4.626Y-2.247
X4.626Y-3.189
X4.628Y-2.561
X4.63Y-3.819
X4.634Y-1.615
X4.636Y-1.927
X4.636Y-2.871
X4.636Y-6.025
X4.638Y-1.299
X4.638Y-4.133
X4.638Y-5.081
X4.64Y-4.763
X4.666Y-5.3584
X4.6773Y-5.6747
X4.68Y-1.545
X4.68Y-2.495
X4.68Y-3.435
X4.68Y-3.755
X4.68Y-4.385
X4.68Y-4.705
X4.68Y-5.015
X4.6805Y-5.8256
X4.685Y-5.91
X4.685Y-5.96
X4.6879Y-5.795
X4.6883Y-5.3807
X4.69Y-1.225
X4.69Y-1.865
X4.69Y-2.175
X4.69Y-2.805
X4.69Y-3.115
X4.696Y-4.067
X4.7Y-5.6075
X4.752Y-3.4403
X4.7559Y-1.237
X4.757Y-1.5503
X4.757Y-1.8653
X4.757Y-2.1803
X4.757Y-2.4953
X4.757Y-2.8103
X4.757Y-3.1253
X4.757Y-3.7553
X4.757Y-4.0703
X4.757Y-4.3853
X4.757Y-4.7003
X4.757Y-5.0153
X4.757Y-5.3303
X4.782Y-5.391
X4.8046Y-3.66
X4.807Y-5.5496
X4.8086Y-1.4567
X4.8086Y-6.1811
X4.8096Y-1.77
X4.8096Y-2.085
X4.8096Y-2.4
X4.8096Y-2.715
X4.8096Y-3.03
X4.8096Y-3.345
X4.8096Y-3.975
X4.8096Y-4.29
X4.8096Y-4.605
X4.8096Y-4.92
X4.8096Y-5.235
X4.8096Y-5.865
X4.815Y-5.69
X4.816Y-5.927
X4.828Y-4.073
X4.83Y-1.545
X4.83Y-1.595
X4.83Y-2.495
X4.83Y-2.545
X4.83Y-3.435
X4.83Y-3.485
X4.838Y-5.321
X4.84Y-1.225
X4.84Y-1.275
X4.84Y-1.865
X4.84Y-1.915
X4.84Y-2.175
X4.84Y-2.225
X4.84Y-2.805
X4.84Y-2.855
X4.84Y-3.115
X4.84Y-3.165
X4.84Y-3.745
X4.84Y-3.795
X4.84Y-4.375
X4.84Y-4.425
X4.84Y-4.695
X4.84Y-4.745
X4.84Y-5.005
X4.84Y-5.055
X4.84Y-5.961
X4.85Y-4.115
X4.8699Y-5.323
X4.874Y-5.685
X4.895Y-5.91
X4.92Y-1.615
X4.92Y-2.565
X4.92Y-3.505
X4.93Y-1.305
X4.93Y-1.935
X4.93Y-2.245
X4.93Y-2.875
X4.93Y-3.185
X4.93Y-3.815
X4.93Y-4.135
X4.93Y-4.445
X4.93Y-4.765
X4.93Y-5.075
X4.945Y-5.58
X4.9611Y-5.5107
X4.97Y-5.695
X4.975Y-5.905
X4.994Y-5.2962
X5.0Y-1.225
X5.0Y-1.545
X5.0Y-1.855
X5.0Y-2.175
X5.0Y-2.495
X5.0Y-2.805
X5.0Y-3.125
X5.0Y-3.435
X5.0Y-3.745
X5.0Y-4.375
X5.0Y-4.695
X5.0Y-5.005
X5.0Y-5.96
X5.0007Y-5.4839
X5.01Y-4.065
X5.0285Y-5.6885
X5.03Y-5.501
X5.05Y-5.081
X5.05Y-5.91
X5.06Y-4.765
X5.06Y-4.925
X5.06Y-5.235
X5.0669Y-3.4403
X5.0709Y-1.237
X5.0709Y-5.3315
X5.0719Y-1.5503
X5.0719Y-1.8653
X5.0719Y-2.1803
X5.0719Y-2.4953
X5.0719Y-2.8103
X5.0719Y-3.1253
X5.0719Y-3.7553
X5.0719Y-4.0703
X5.0719Y-4.3853
X5.0719Y-4.7003
X5.0719Y-5.0153
X5.0719Y-5.9653
X5.1114Y-5.2962
X5.114Y-5.703
X5.1196Y-3.66
X5.12Y-4.3547
X5.1235Y-1.4567
X5.1235Y-6.1811
X5.1246Y-1.77
X5.1246Y-2.085
X5.1246Y-2.4
X5.1246Y-2.715
X5.1246Y-3.03
X5.1246Y-3.345
X5.1246Y-3.975
X5.1246Y-4.29
X5.1246Y-4.605
X5.1246Y-5.55
X5.1246Y-5.865
X5.138Y-4.6602
X5.146Y-5.675
X5.15Y-1.225
X5.15Y-1.275
X5.15Y-1.545
X5.15Y-1.595
X5.15Y-1.855
X5.15Y-1.905
X5.15Y-2.175
X5.15Y-2.225
X5.15Y-2.495
X5.15Y-2.545
X5.15Y-2.805
X5.15Y-2.855
X5.15Y-3.125
X5.15Y-3.175
X5.15Y-3.435
X5.15Y-3.485
X5.15Y-3.745
X5.15Y-3.795
X5.15Y-4.065
X5.15Y-4.125
X5.15Y-4.425
X5.15Y-5.955
X5.16Y-4.385
X5.18Y-5.351
X5.188Y-4.9802
X5.19Y-5.325
X5.2Y-4.755
X5.21Y-5.075
X5.24Y-1.305
X5.24Y-1.615
X5.24Y-1.925
X5.24Y-2.245
X5.24Y-2.565
X5.24Y-2.875
X5.24Y-3.195
X5.24Y-3.505
X5.24Y-3.815
X5.24Y-4.135
X5.24Y-4.445
X5.26Y-4.765
X5.26Y-6.025
X5.295Y-5.2962
X5.296Y-5.947
X5.2962Y-6.193
X5.2995Y-6.2245
X5.3Y-5.645
X5.3078Y-5.911
X5.31Y-2.175
X5.31Y-3.115
X5.318Y-4.067
X5.32Y-1.225
X5.32Y-1.545
X5.32Y-1.865
X5.32Y-2.485
X5.32Y-2.805
X5.32Y-3.435
X5.32Y-3.745
X5.32Y-4.375
X5.32Y-4.695
X5.32Y-5.005
X5.3205Y-6.2455
X5.322Y-5.975
X5.33Y-5.345
X5.352Y-6.245
X5.378Y-4.133
X5.3819Y-3.4403
X5.3858Y-1.237
X5.386Y-5.703
X5.3869Y-1.5503
X5.3869Y-1.8653
X5.3869Y-2.1803
X5.3869Y-2.4953
X5.3869Y-2.8103
X5.3869Y-3.1253
X5.3869Y-3.7553
X5.3869Y-4.0703
X5.3869Y-4.3853
X5.3869Y-4.7003
X5.3869Y-5.0153
X5.3869Y-5.3303
X5.3869Y-5.6453
X5.39Y-5.385
X5.4Y-5.955
X5.402Y-6.259
X5.4346Y-3.66
X5.4385Y-1.4567
X5.4396Y-1.77
X5.4396Y-2.085
X5.4396Y-2.4
X5.4396Y-2.715
X5.4396Y-3.03
X5.4396Y-3.345
X5.4396Y-3.975
X5.4396Y-4.29
X5.4396Y-4.605
X5.4396Y-4.92
X5.4396Y-5.235
X5.4396Y-5.55
X5.4396Y-5.865
X5.4396Y-6.185
X5.45Y-6.005
X5.452Y-6.091
X5.46Y-2.175
X5.46Y-2.225
X5.46Y-3.115
X5.46Y-3.165
X5.46Y-5.695
X5.466Y-5.637
X5.47Y-1.225
X5.47Y-1.275
X5.47Y-1.545
X5.47Y-1.595
X5.47Y-1.865
X5.47Y-1.915
X5.47Y-2.485
X5.47Y-2.535
X5.47Y-2.805
X5.47Y-2.855
X5.47Y-3.435
X5.47Y-3.485
X5.47Y-3.745
X5.47Y-3.795
X5.47Y-4.113
X5.47Y-4.375
X5.47Y-4.425
X5.47Y-4.695
X5.47Y-4.745
X5.47Y-5.005
X5.47Y-5.055
X5.47Y-5.325
X5.47Y-5.375
X5.472Y-4.065
X5.49Y-5.961
X5.504Y-6.259
X5.5064Y-5.8661
X5.55Y-2.245
X5.55Y-3.185
X5.558Y-4.139
X5.56Y-1.305
X5.56Y-1.615
X5.56Y-1.935
X5.56Y-2.555
X5.56Y-2.875
X5.56Y-3.505
X5.56Y-3.815
X5.56Y-4.445
X5.56Y-4.765
X5.56Y-5.075
X5.57Y-5.395
X5.59Y-6.025
X5.6244Y-5.9273
X5.63Y-1.225
X5.63Y-1.545
X5.63Y-1.855
X5.63Y-3.115
X5.63Y-3.435
X5.63Y-3.745
X5.63Y-4.375
X5.63Y-4.695
X5.63Y-5.005
X5.638Y-4.071
X5.64Y-2.175
X5.64Y-2.485
X5.64Y-2.805
X5.64Y-5.325
X5.64Y-5.645
X5.65Y-5.909
X5.65Y-5.975
X5.6969Y-3.4403
X5.7Y-5.705
X5.7008Y-1.237
X5.7019Y-1.5503
X5.7019Y-1.8653
X5.7019Y-2.1803
X5.7019Y-2.4953
X5.7019Y-2.8103
X5.7019Y-3.1253
X5.7019Y-3.7553
X5.7019Y-4.0703
X5.7019Y-4.3853
X5.7019Y-4.7003
X5.7019Y-5.0153
X5.7019Y-5.3303
X5.7019Y-5.6453
X5.7019Y-5.9653
X5.7495Y-3.66
X5.7534Y-1.4567
X5.7545Y-1.77
X5.7545Y-2.085
X5.7545Y-2.4
X5.7545Y-2.715
X5.7545Y-3.03
X5.7545Y-3.345
X5.7545Y-3.975
X5.7545Y-4.29
X5.7545Y-4.605
X5.7545Y-4.92
X5.7545Y-5.235
X5.7545Y-5.55
X5.7545Y-5.865
X5.7545Y-6.185
X5.78Y-1.225
X5.78Y-1.275
X5.78Y-1.545
X5.78Y-1.595
X5.78Y-1.855
X5.78Y-1.905
X5.78Y-3.115
X5.78Y-3.165
X5.78Y-3.435
X5.78Y-3.485
X5.78Y-3.745
X5.78Y-3.795
X5.78Y-4.375
X5.78Y-4.425
X5.78Y-4.695
X5.78Y-4.745
X5.78Y-5.005
X5.78Y-5.055
X5.78Y-5.325
X5.78Y-5.375
X5.78Y-5.955
X5.78Y-6.005
X5.786Y-4.063
X5.786Y-4.111
X5.79Y-2.175
X5.79Y-2.225
X5.79Y-2.485
X5.79Y-2.535
X5.79Y-2.805
X5.79Y-2.855
X5.81Y-5.645
X5.81Y-5.695
X5.87Y-1.305
X5.87Y-1.615
X5.87Y-1.925
X5.87Y-3.185
X5.87Y-3.505
X5.87Y-3.815
X5.87Y-4.133
X5.87Y-4.445
X5.87Y-4.765
X5.87Y-5.075
X5.87Y-5.395
X5.87Y-5.705
X5.87Y-6.025
X5.88Y-2.245
X5.88Y-2.555
X5.88Y-2.875
X5.94Y-1.545
X5.942Y-5.635
X5.946Y-4.065
X5.95Y-1.225
X5.95Y-1.865
X5.95Y-2.175
X5.95Y-2.495
X5.95Y-2.805
X5.95Y-3.115
X5.95Y-3.435
X5.95Y-3.745
X5.95Y-4.375
X5.95Y-4.695
X5.95Y-5.005
X5.95Y-5.325
X5.95Y-5.955
X6.01Y-4.133
X6.0118Y-3.4403
X6.0157Y-1.237
X6.0168Y-1.5503
X6.0168Y-1.8653
X6.0168Y-2.1803
X6.0168Y-2.4953
X6.0168Y-2.8103
X6.0168Y-3.1253
X6.0168Y-3.7553
X6.0168Y-4.0703
X6.0168Y-4.3853
X6.0168Y-4.7003
X6.0168Y-5.0153
X6.0168Y-5.3303
X6.0168Y-5.6453
X6.0168Y-5.9653
X6.0645Y-3.66
X6.0684Y-1.4567
X6.0695Y-1.77
X6.0695Y-2.085
X6.0695Y-2.4
X6.0695Y-2.715
X6.0695Y-3.03
X6.0695Y-3.345
X6.0695Y-3.975
X6.0695Y-4.29
X6.0695Y-4.605
X6.0695Y-4.92
X6.0695Y-5.235
X6.0695Y-5.55
X6.0695Y-5.865
X6.0695Y-6.185
X6.09Y-1.545
X6.09Y-1.595
X6.09Y-5.695
X6.092Y-5.641
X6.1Y-1.225
X6.1Y-1.275
X6.1Y-1.865
X6.1Y-1.915
X6.1Y-2.175
X6.1Y-2.225
X6.1Y-2.495
X6.1Y-2.545
X6.1Y-2.805
X6.1Y-2.855
X6.1Y-3.115
X6.1Y-3.165
X6.1Y-3.435
X6.1Y-3.485
X6.1Y-3.745
X6.1Y-3.795
X6.1Y-4.065
X6.1Y-4.375
X6.1Y-4.425
X6.1Y-4.695
X6.1Y-4.745
X6.1Y-5.005
X6.1Y-5.055
X6.1Y-5.325
X6.1Y-5.375
X6.1Y-5.955
X6.1Y-6.005
X6.104Y-4.113
X6.18Y-1.615
X6.18Y-5.395
X6.18Y-5.705
X6.19Y-1.305
X6.19Y-1.935
X6.19Y-2.245
X6.19Y-2.565
X6.19Y-2.875
X6.19Y-3.185
X6.19Y-3.505
X6.19Y-3.815
X6.19Y-4.445
X6.19Y-4.765
X6.19Y-5.075
X6.19Y-6.025
X6.192Y-4.133
X6.258Y-4.063
X6.26Y-1.225
X6.26Y-1.545
X6.26Y-1.865
X6.26Y-2.175
X6.26Y-2.485
X6.26Y-2.805
X6.26Y-3.115
X6.26Y-3.435
X6.26Y-3.745
X6.26Y-4.375
X6.26Y-4.695
X6.26Y-5.005
X6.26Y-5.645
X6.26Y-5.955
X6.27Y-5.3315
X6.3268Y-3.4403
X6.3307Y-1.237
X6.3318Y-1.5503
X6.3318Y-1.8653
X6.3318Y-2.1803
X6.3318Y-2.4953
X6.3318Y-2.8103
X6.3318Y-3.1253
X6.3318Y-3.7553
X6.3318Y-4.0703
X6.3318Y-4.3853
X6.3318Y-4.7003
X6.3318Y-5.0153
X6.3318Y-5.3303
X6.3318Y-5.6453
X6.3318Y-5.9653
X6.3794Y-3.66
X6.3834Y-1.4567
X6.3844Y-1.77
X6.3844Y-2.085
X6.3844Y-2.4
X6.3844Y-2.715
X6.3844Y-3.03
X6.3844Y-3.345
X6.3844Y-3.975
X6.3844Y-4.29
X6.3844Y-4.605
X6.3844Y-4.92
X6.3844Y-5.235
X6.3844Y-5.55
X6.3844Y-5.865
X6.3844Y-6.185
X6.41Y-1.225
X6.41Y-1.275
X6.41Y-1.545
X6.41Y-1.595
X6.41Y-1.865
X6.41Y-1.915
X6.41Y-2.175
X6.41Y-2.225
X6.41Y-2.485
X6.41Y-2.535
X6.41Y-2.805
X6.41Y-2.855
X6.41Y-3.115
X6.41Y-3.165
X6.41Y-3.435
X6.41Y-3.485
X6.41Y-3.745
X6.41Y-3.795
X6.41Y-4.375
X6.41Y-4.425
X6.41Y-4.695
X6.41Y-4.745
X6.41Y-5.005
X6.41Y-5.055
X6.41Y-5.645
X6.41Y-5.695
X6.41Y-5.955
X6.41Y-6.005
X6.412Y-4.061
X6.414Y-4.109
X6.42Y-5.335
X6.42Y-5.375
X6.5Y-1.305
X6.5Y-1.615
X6.5Y-1.935
X6.5Y-2.245
X6.5Y-2.555
X6.5Y-2.875
X6.5Y-3.185
X6.5Y-3.505
X6.5Y-3.815
X6.5Y-4.445
X6.5Y-4.765
X6.5Y-5.075
X6.5Y-5.395
X6.5Y-5.705
X6.5Y-6.025
X6.504Y-4.133
X6.57Y-2.175
X6.57Y-2.805
X6.578Y-4.065
X6.58Y-1.225
X6.58Y-1.545
X6.58Y-1.865
X6.58Y-2.485
X6.58Y-3.115
X6.58Y-3.435
X6.58Y-3.745
X6.58Y-4.375
X6.58Y-4.695
X6.58Y-5.005
X6.58Y-5.335
X6.58Y-5.655
X6.58Y-5.955
X6.6418Y-3.4403
X6.6457Y-1.237
X6.6468Y-1.5503
X6.6468Y-1.8653
X6.6468Y-2.1803
X6.6468Y-2.4953
X6.6468Y-2.8103
X6.6468Y-3.1253
X6.6468Y-3.7553
X6.6468Y-4.0703
X6.6468Y-4.3853
X6.6468Y-4.7003
X6.6468Y-5.0153
X6.6468Y-5.3303
X6.6468Y-5.6453
X6.6468Y-5.9653
X6.6944Y-3.66
X6.6983Y-1.4567
X6.6994Y-1.77
X6.6994Y-2.085
X6.6994Y-2.4
X6.6994Y-2.715
X6.6994Y-3.03
X6.6994Y-3.345
X6.6994Y-3.975
X6.6994Y-4.29
X6.6994Y-4.605
X6.6994Y-4.92
X6.6994Y-5.235
X6.6994Y-5.55
X6.6994Y-6.185
X6.72Y-2.175
X6.72Y-2.225
X6.72Y-2.805
X6.72Y-2.855
X6.72Y-5.335
X6.72Y-5.375
X6.73Y-1.225
X6.73Y-1.275
X6.73Y-1.545
X6.73Y-1.595
X6.73Y-1.865
X6.73Y-1.915
X6.73Y-2.485
X6.73Y-2.535
X6.73Y-3.115
X6.73Y-3.165
X6.73Y-3.435
X6.73Y-3.485
X6.73Y-3.745
X6.73Y-3.795
X6.73Y-4.071
X6.73Y-4.375
X6.73Y-4.425
X6.73Y-4.695
X6.73Y-4.745
X6.73Y-5.005
X6.73Y-5.055
X6.73Y-5.645
X6.73Y-5.695
X6.73Y-6.005
X6.732Y-4.113
X6.7662Y-5.8661
X6.77Y-6.015
X6.81Y-2.245
X6.81Y-2.875
X6.81Y-5.395
X6.814Y-4.135
X6.8189Y-5.9614
X6.82Y-1.305
X6.82Y-1.615
X6.82Y-1.935
X6.82Y-2.555
X6.82Y-3.185
X6.82Y-3.505
X6.82Y-3.815
X6.82Y-4.445
X6.82Y-4.765
X6.82Y-5.075
X6.82Y-5.705
X6.89Y-2.795
X6.89Y-2.845
X6.89Y-5.625
X6.89Y-5.685
X6.894Y-4.051
X6.896Y-4.101
X6.9Y-1.845
X6.9Y-1.905
X6.9Y-2.155
X6.9Y-2.225
X6.9Y-2.475
X6.9Y-2.525
X6.9Y-3.105
X6.9Y-3.165
X6.9Y-3.425
X6.9Y-3.485
X6.9Y-3.725
X6.9Y-3.795
X6.9Y-4.355
X6.9Y-4.425
X6.9Y-4.675
X6.9Y-4.745
X6.9Y-4.985
X6.9Y-5.055
X6.9Y-5.305
X6.9Y-5.375
X6.9Y-5.935
X6.9Y-5.965
T2
X3.7136Y-6.1762
X3.735Y-6.2062
X3.875Y-6.09
X3.8984Y-5.9376
X3.9Y-6.06
X3.9338Y-5.9448
X4.1981Y-6.0994
M30
