M48
; DRILL file {KiCad 9.0.2} date 2025-08-09T14:49:01-0500
; FORMAT={-:-/ absolute / metric / decimal}
; #@! TF.CreationDate,2025-08-09T14:49:01-05:00
; #@! TF.GenerationSoftware,Kicad,Pcbnew,9.0.2
; #@! TF.FileFunction,Plated,1,2,PTH
FMAT,2
METRIC
; #@! TA.AperFunction,Plated,PTH,ViaDrill
T1C0.300
; #@! TA.AperFunction,Plated,PTH,ViaDrill
T2C0.305
%
G90
G05
T1
X46.101Y-158.623
X46.228Y-146.558
X47.117Y-144.526
X47.117Y-158.877
X47.244Y-38.735
X47.244Y-46.609
X47.244Y-48.641
X47.244Y-55.499
X47.244Y-63.373
X47.244Y-64.643
X47.244Y-71.247
X47.244Y-79.375
X47.244Y-80.645
X47.244Y-87.503
X47.244Y-95.377
X47.244Y-103.505
X47.244Y-111.379
X47.244Y-119.507
X47.333Y-40.565
X47.498Y-56.769
X47.498Y-72.771
X47.498Y-88.773
X47.498Y-96.647
X47.498Y-149.987
X47.498Y-152.527
X48.7Y-87.384
X48.768Y-41.021
X48.768Y-48.895
X48.768Y-57.023
X48.768Y-64.897
X48.768Y-73.025
X48.768Y-80.899
X48.768Y-89.027
X48.768Y-96.901
X48.768Y-105.029
X48.768Y-112.903
X48.768Y-120.777
X48.8Y-31.42
X48.8Y-34.62
X48.8Y-146.62
X48.828Y-39.378
X48.828Y-47.379
X48.828Y-55.38
X48.828Y-63.381
X48.828Y-71.382
X48.828Y-79.383
X48.828Y-95.385
X48.828Y-103.386
X48.828Y-111.387
X48.828Y-119.388
X48.828Y-127.389
X48.828Y-135.39
X48.828Y-143.391
X49.022Y-144.78
X50.038Y-92.964
X50.038Y-150.241
X50.137Y-37.0
X50.137Y-149.0
X50.165Y-44.958
X50.165Y-52.959
X50.165Y-60.96
X50.165Y-68.961
X50.165Y-76.962
X50.165Y-84.963
X50.165Y-100.965
X50.165Y-108.966
X50.165Y-116.967
X50.165Y-124.968
X50.165Y-157.099
X50.927Y-144.78
X53.391Y-156.489
X53.391Y-157.251
X53.848Y-149.606
X54.864Y-87.249
X54.864Y-111.125
X54.864Y-149.606
X54.915Y-118.948
X55.118Y-31.369
X55.118Y-39.243
X55.118Y-47.371
X55.118Y-55.245
X55.118Y-63.119
X55.118Y-71.247
X55.118Y-79.375
X55.118Y-95.123
X55.118Y-103.505
X55.118Y-143.383
X56.388Y-148.844
X56.388Y-149.733
X56.642Y-105.029
X56.642Y-113.157
X56.642Y-144.907
X56.642Y-153.035
X56.693Y-156.439
X56.693Y-157.201
X56.7Y-87.384
X56.8Y-31.42
X56.828Y-39.378
X56.828Y-47.379
X56.828Y-55.38
X56.828Y-63.381
X56.828Y-71.382
X56.828Y-79.383
X56.828Y-95.385
X56.828Y-111.387
X56.828Y-135.39
X56.828Y-143.391
X57.023Y-127.635
X57.732Y-128.333
X57.912Y-152.832
X58.038Y-92.964
X58.137Y-37.0
X58.137Y-101.0
X58.137Y-141.0
X58.165Y-44.958
X58.165Y-52.959
X58.165Y-60.96
X58.165Y-68.961
X58.165Y-76.962
X58.165Y-84.963
X58.165Y-108.966
X58.165Y-116.967
X58.165Y-148.971
X58.165Y-157.099
X58.192Y-133.604
X58.369Y-120.472
X58.522Y-118.44
X58.674Y-31.115
X58.674Y-32.131
X58.674Y-87.249
X58.674Y-88.519
X58.674Y-111.125
X58.674Y-112.395
X58.928Y-39.243
X58.928Y-40.513
X58.928Y-47.371
X58.928Y-48.641
X58.928Y-55.245
X58.928Y-56.515
X58.928Y-63.119
X58.928Y-64.389
X58.928Y-71.247
X58.928Y-72.517
X58.928Y-79.375
X58.928Y-80.645
X58.928Y-95.123
X58.928Y-96.393
X58.928Y-103.251
X58.928Y-104.267
X59.182Y-123.825
X59.69Y-120.472
X59.741Y-118.44
X60.655Y-153.035
X60.96Y-89.027
X61.214Y-41.021
X61.214Y-49.149
X61.214Y-57.023
X61.214Y-64.897
X61.214Y-73.025
X61.214Y-81.153
X61.214Y-96.901
X61.214Y-105.029
X61.468Y-113.157
X61.468Y-124.849
X61.468Y-126.111
X61.62Y-153.086
X62.224Y-129.292
X62.992Y-31.369
X62.992Y-39.243
X62.992Y-47.371
X62.992Y-55.245
X62.992Y-63.119
X62.992Y-71.247
X62.992Y-95.123
X62.992Y-111.379
X63.246Y-79.375
X63.246Y-87.249
X63.246Y-103.505
X63.246Y-128.27
X63.5Y-156.972
X64.516Y-112.903
X64.516Y-124.54
X64.7Y-87.384
X64.77Y-105.029
X64.8Y-31.42
X64.828Y-39.378
X64.828Y-47.379
X64.828Y-55.38
X64.828Y-63.381
X64.828Y-71.382
X64.828Y-79.383
X64.828Y-95.385
X64.828Y-103.386
X64.828Y-111.387
X64.828Y-119.388
X66.038Y-92.964
X66.138Y-37.0
X66.165Y-44.958
X66.165Y-52.959
X66.165Y-60.96
X66.165Y-68.961
X66.165Y-76.962
X66.165Y-84.963
X66.165Y-100.965
X66.165Y-108.966
X66.165Y-116.967
X66.165Y-140.97
X66.165Y-148.971
X66.165Y-157.099
X66.396Y-119.812
X66.396Y-132.969
X66.802Y-39.243
X66.802Y-40.513
X66.802Y-47.371
X66.802Y-48.641
X66.802Y-55.245
X66.802Y-56.515
X66.802Y-63.119
X66.802Y-64.389
X66.802Y-71.247
X66.802Y-72.517
X66.802Y-95.123
X66.802Y-96.393
X66.802Y-111.125
X66.802Y-112.141
X66.802Y-135.89
X67.056Y-31.115
X67.056Y-32.131
X67.056Y-79.375
X67.056Y-80.645
X67.056Y-87.249
X67.056Y-88.519
X67.056Y-103.251
X67.056Y-104.267
X67.056Y-127.127
X67.056Y-128.143
X67.056Y-129.159
X67.209Y-125.0
X67.31Y-143.129
X67.31Y-144.653
X67.31Y-150.749
X67.31Y-152.273
X67.945Y-127.127
X67.945Y-128.143
X68.072Y-129.159
X68.834Y-153.035
X69.088Y-41.021
X69.088Y-49.149
X69.088Y-57.023
X69.088Y-64.897
X69.088Y-73.025
X69.088Y-96.901
X69.088Y-112.903
X69.088Y-129.159
X69.088Y-137.033
X69.088Y-144.907
X69.342Y-81.153
X69.342Y-89.027
X69.342Y-105.029
X69.85Y-153.035
X70.231Y-121.031
X70.612Y-120.142
X70.866Y-135.001
X70.866Y-143.129
X71.12Y-31.115
X71.12Y-39.243
X71.12Y-47.371
X71.12Y-55.245
X71.12Y-63.119
X71.12Y-71.247
X71.12Y-79.375
X71.12Y-87.249
X71.12Y-95.123
X71.12Y-103.505
X71.12Y-111.379
X71.12Y-151.003
X71.377Y-122.304
X72.255Y-124.079
X72.644Y-105.029
X72.644Y-112.903
X72.644Y-145.161
X72.7Y-87.384
X72.8Y-31.42
X72.828Y-39.378
X72.828Y-47.379
X72.828Y-55.38
X72.828Y-63.381
X72.828Y-71.382
X72.828Y-79.383
X72.828Y-95.385
X72.828Y-103.386
X72.828Y-111.387
X72.828Y-119.388
X72.828Y-143.391
X72.828Y-151.519
X72.898Y-153.035
X74.038Y-92.964
X74.138Y-37.0
X74.165Y-44.958
X74.165Y-52.959
X74.165Y-60.96
X74.165Y-68.961
X74.165Y-76.962
X74.165Y-84.963
X74.165Y-100.965
X74.165Y-108.966
X74.165Y-116.967
X74.165Y-140.97
X74.165Y-148.971
X74.165Y-157.099
X74.168Y-123.952
X74.676Y-143.129
X74.676Y-144.399
X74.93Y-31.115
X74.93Y-32.131
X74.93Y-39.243
X74.93Y-40.513
X74.93Y-47.371
X74.93Y-48.641
X74.93Y-55.245
X74.93Y-56.515
X74.93Y-63.119
X74.93Y-64.389
X74.93Y-71.247
X74.93Y-72.517
X74.93Y-79.375
X74.93Y-80.645
X74.93Y-87.249
X74.93Y-88.519
X74.93Y-95.123
X74.93Y-96.393
X74.93Y-103.251
X74.93Y-104.267
X74.93Y-111.125
X74.93Y-112.141
X74.93Y-151.003
X74.93Y-152.273
X75.057Y-127.127
X77.216Y-41.021
X77.216Y-49.149
X77.216Y-57.023
X77.216Y-64.897
X77.216Y-73.025
X77.216Y-81.153
X77.216Y-89.027
X77.216Y-96.901
X77.216Y-105.029
X77.216Y-112.903
X77.47Y-137.033
X77.47Y-145.161
X77.724Y-153.035
X78.74Y-127.762
X78.867Y-122.301
X78.994Y-47.371
X78.994Y-55.245
X78.994Y-63.373
X78.994Y-79.375
X78.994Y-95.377
X78.994Y-111.379
X79.045Y-39.192
X79.223Y-87.274
X79.248Y-31.115
X79.248Y-71.247
X79.248Y-103.505
X79.248Y-135.255
X79.248Y-150.749
X79.248Y-151.765
X79.502Y-127.254
X79.971Y-116.967
X80.518Y-57.023
X80.518Y-64.897
X80.518Y-105.029
X80.518Y-112.903
X80.518Y-128.905
X80.518Y-137.033
X80.67Y-88.925
X80.7Y-87.384
X80.772Y-48.895
X80.772Y-73.025
X80.772Y-80.899
X80.772Y-96.901
X80.8Y-31.42
X80.8Y-40.846
X80.828Y-39.378
X80.828Y-47.379
X80.828Y-55.38
X80.828Y-63.381
X80.828Y-71.382
X80.828Y-79.383
X80.828Y-95.385
X80.828Y-103.386
X80.828Y-111.387
X80.828Y-119.388
X80.828Y-127.389
X80.828Y-135.39
X80.828Y-143.391
X82.038Y-92.964
X82.138Y-37.0
X82.138Y-109.0
X82.138Y-157.0
X82.165Y-44.958
X82.165Y-52.959
X82.165Y-60.96
X82.165Y-68.961
X82.165Y-76.962
X82.165Y-84.963
X82.165Y-100.965
X82.165Y-124.968
X82.165Y-132.969
X82.165Y-140.97
X82.296Y-98.171
X82.296Y-99.441
X82.296Y-114.173
X82.296Y-115.443
X82.55Y-106.68
X82.55Y-107.823
X82.804Y-32.131
X82.931Y-34.417
X82.931Y-42.418
X82.931Y-123.571
X82.931Y-146.685
X82.931Y-147.447
X82.948Y-50.47
X82.948Y-58.471
X82.948Y-66.472
X82.948Y-74.346
X82.948Y-82.347
X82.948Y-90.475
X82.948Y-122.352
X83.058Y-31.115
X83.058Y-138.43
X83.058Y-139.446
X83.096Y-154.178
X83.185Y-130.429
X83.185Y-131.445
X83.185Y-155.448
X83.312Y-114.173
X83.312Y-115.443
X83.566Y-98.171
X83.566Y-99.441
X83.693Y-149.098
X83.82Y-106.68
X83.82Y-107.823
X83.862Y-37.0
X83.862Y-45.001
X83.862Y-101.0
X83.862Y-109.0
X83.879Y-53.053
X83.879Y-61.054
X83.879Y-69.055
X83.879Y-76.929
X83.879Y-84.93
X83.879Y-93.058
X83.879Y-124.935
X85.2Y-34.62
X85.2Y-42.621
X85.2Y-106.62
X85.217Y-50.673
X85.217Y-58.674
X85.217Y-66.675
X85.217Y-74.549
X85.217Y-82.55
X85.217Y-90.678
X85.217Y-122.555
X85.217Y-146.685
X85.217Y-154.686
X85.471Y-36.957
X85.471Y-44.958
X85.471Y-100.076
X85.471Y-101.219
X85.471Y-108.966
X85.488Y-53.01
X85.488Y-61.011
X85.488Y-69.012
X85.488Y-76.886
X85.488Y-84.887
X85.488Y-93.015
X85.488Y-124.892
X85.488Y-149.022
X85.598Y-116.713
X85.598Y-140.843
X85.725Y-132.461
X86.995Y-98.806
X86.995Y-100.076
X86.995Y-101.219
X86.995Y-130.81
X86.995Y-138.557
X86.995Y-139.827
X86.995Y-140.843
X87.122Y-31.115
X87.122Y-34.417
X87.122Y-42.418
X87.122Y-106.68
X87.122Y-107.823
X87.122Y-108.966
X87.122Y-114.427
X87.122Y-115.443
X87.122Y-116.713
X87.122Y-123.698
X87.122Y-124.841
X87.122Y-146.685
X87.122Y-147.955
X87.122Y-148.971
X87.122Y-155.575
X87.139Y-50.47
X87.139Y-58.471
X87.139Y-66.472
X87.139Y-74.346
X87.139Y-82.347
X87.139Y-90.475
X87.139Y-122.352
X87.139Y-154.483
X87.757Y-132.207
X88.011Y-36.957
X88.011Y-44.958
X88.028Y-53.01
X88.028Y-61.011
X88.028Y-69.012
X88.028Y-76.886
X88.028Y-84.887
X88.028Y-93.015
X88.392Y-100.076
X88.392Y-101.219
X88.392Y-140.843
X88.595Y-108.534
X88.646Y-116.713
X88.646Y-124.841
X88.646Y-148.971
X88.8Y-31.42
X88.9Y-132.207
X90.038Y-92.964
X90.138Y-37.0
X90.138Y-109.0
X90.138Y-133.0
X90.138Y-141.0
X90.138Y-149.0
X90.138Y-157.0
X90.165Y-44.958
X90.165Y-52.959
X90.165Y-60.96
X90.165Y-68.961
X90.165Y-76.962
X90.165Y-84.963
X90.165Y-100.965
X90.165Y-116.967
X90.165Y-124.968
X90.17Y-106.68
X90.17Y-107.823
X90.17Y-114.427
X90.17Y-115.443
X90.17Y-130.175
X90.17Y-131.572
X90.17Y-138.176
X90.17Y-139.446
X90.297Y-146.558
X90.297Y-147.701
X90.424Y-51.689
X90.424Y-98.171
X90.424Y-99.441
X90.551Y-34.417
X90.551Y-42.418
X90.551Y-123.444
X90.551Y-155.575
X90.568Y-50.47
X90.568Y-58.471
X90.568Y-66.472
X90.568Y-74.346
X90.568Y-82.347
X90.568Y-90.475
X90.568Y-122.352
X90.568Y-154.305
X90.932Y-30.861
X90.932Y-32.131
X91.313Y-106.68
X91.313Y-107.823
X91.313Y-114.427
X91.313Y-115.443
X91.313Y-146.558
X91.313Y-147.701
X91.44Y-98.171
X91.44Y-99.441
X91.44Y-130.175
X91.44Y-131.572
X91.44Y-138.176
X91.44Y-139.446
X92.71Y-112.903
X92.862Y-136.982
X92.964Y-41.021
X92.964Y-48.895
X92.964Y-57.023
X92.964Y-64.897
X92.964Y-73.025
X92.964Y-81.153
X92.964Y-89.027
X92.964Y-96.901
X92.964Y-105.029
X92.964Y-121.031
X92.964Y-128.905
X92.964Y-145.161
X92.964Y-153.035
X93.472Y-112.903
X93.507Y-156.872
X93.726Y-41.021
X93.726Y-48.895
X93.726Y-57.023
X93.726Y-64.897
X93.726Y-73.025
X93.726Y-81.153
X93.726Y-89.027
X93.726Y-96.901
X93.726Y-105.029
X93.726Y-121.031
X93.726Y-128.905
X93.726Y-145.161
X93.777Y-136.982
X93.828Y-152.933
X94.437Y-151.054
X94.996Y-31.369
X94.996Y-55.245
X94.996Y-63.119
X94.996Y-71.247
X94.996Y-79.121
X94.996Y-87.249
X94.996Y-95.123
X94.996Y-103.251
X94.996Y-111.379
X94.996Y-118.999
X94.996Y-127.381
X94.996Y-135.255
X95.148Y-143.84
X95.25Y-39.243
X95.25Y-47.117
X95.455Y-149.733
X95.686Y-157.656
X96.52Y-96.901
X96.52Y-137.033
X96.774Y-112.903
X96.774Y-121.031
X96.774Y-128.905
X96.8Y-31.42
X96.8Y-39.42
X96.8Y-47.42
X96.8Y-55.42
X96.8Y-63.42
X96.8Y-71.42
X96.8Y-79.42
X96.8Y-87.42
X96.8Y-95.42
X96.8Y-103.42
X96.8Y-111.42
X96.8Y-119.42
X96.8Y-127.42
X96.8Y-135.42
X96.8Y-143.42
X97.18Y-144.907
X98.137Y-37.0
X98.137Y-45.0
X98.137Y-53.0
X98.137Y-61.0
X98.137Y-69.0
X98.137Y-77.0
X98.137Y-85.0
X98.137Y-93.0
X98.137Y-101.0
X98.137Y-109.0
X98.137Y-117.0
X98.137Y-125.0
X98.137Y-133.0
X98.137Y-141.0
X98.137Y-149.0
X98.137Y-157.0
X98.806Y-55.245
X98.806Y-56.515
X98.806Y-63.119
X98.806Y-64.389
X98.806Y-71.247
X98.806Y-72.517
X98.806Y-79.121
X98.806Y-80.391
X98.806Y-87.249
X98.806Y-88.519
X98.806Y-95.123
X99.009Y-111.379
X99.009Y-112.547
X99.06Y-31.115
X99.06Y-32.131
X99.06Y-39.243
X99.06Y-40.513
X99.06Y-47.117
X99.06Y-48.387
X99.06Y-96.393
X99.06Y-103.505
X99.06Y-104.521
X99.06Y-136.727
X99.06Y-138.452
X99.314Y-126.497
X99.568Y-118.369
X99.67Y-135.509
X99.771Y-110.609
X100.584Y-120.929
X100.635Y-128.905
X100.635Y-137.033
X101.092Y-57.023
X101.092Y-64.897
X101.092Y-73.025
X101.092Y-80.899
X101.092Y-89.027
X101.092Y-105.029
X101.346Y-41.021
X101.346Y-48.895
X101.346Y-97.155
X101.498Y-113.106
X101.549Y-144.907
X101.651Y-129.159
X101.702Y-120.98
X102.87Y-55.245
X102.87Y-135.255
X102.87Y-151.511
X102.997Y-152.781
X103.087Y-157.226
X103.124Y-31.369
X103.124Y-39.243
X103.124Y-47.117
X103.124Y-63.119
X103.124Y-71.247
X103.124Y-79.121
X103.124Y-87.249
X103.124Y-111.633
X103.124Y-119.101
X103.124Y-127.381
X103.124Y-136.017
X103.194Y-150.464
X103.276Y-142.926
X103.327Y-103.302
X103.538Y-144.729
X103.835Y-149.784
X104.267Y-136.703
X104.267Y-152.781
X104.546Y-151.46
X104.648Y-128.905
X104.7Y-87.384
X104.8Y-31.42
X104.8Y-97.003
X104.8Y-145.059
X104.828Y-39.378
X104.828Y-47.379
X104.828Y-55.38
X104.828Y-63.381
X104.828Y-71.382
X104.828Y-79.383
X104.828Y-95.385
X104.828Y-103.386
X104.828Y-111.387
X104.828Y-119.388
X104.828Y-127.389
X104.828Y-143.391
X104.902Y-112.903
X106.038Y-92.964
X106.137Y-37.0
X106.165Y-44.958
X106.165Y-52.959
X106.165Y-60.96
X106.165Y-68.961
X106.165Y-76.962
X106.165Y-84.963
X106.165Y-100.965
X106.165Y-108.966
X106.165Y-116.967
X106.165Y-124.968
X106.165Y-140.97
X106.165Y-148.971
X106.172Y-135.39
X106.465Y-136.375
X106.477Y-143.281
X106.477Y-144.653
X106.68Y-55.245
X106.68Y-56.515
X106.68Y-127.381
X106.731Y-112.7
X106.832Y-111.43
X106.832Y-119.151
X106.832Y-120.625
X106.934Y-31.115
X106.934Y-32.131
X106.934Y-39.243
X106.934Y-40.513
X106.934Y-47.117
X106.934Y-48.387
X106.934Y-63.119
X106.934Y-64.389
X106.934Y-71.247
X106.934Y-72.517
X106.934Y-79.121
X106.934Y-80.391
X106.934Y-87.249
X106.934Y-88.519
X106.934Y-96.444
X107.036Y-95.225
X107.061Y-134.493
X107.188Y-103.505
X107.188Y-104.521
X107.798Y-135.763
X107.95Y-128.905
X108.407Y-112.903
X108.509Y-120.98
X108.712Y-137.033
X108.763Y-145.009
X108.966Y-57.023
X109.22Y-41.021
X109.22Y-48.895
X109.22Y-64.897
X109.22Y-73.025
X109.22Y-80.899
X109.22Y-89.027
X109.22Y-105.029
X109.271Y-97.053
X109.576Y-137.033
X109.576Y-145.059
X109.626Y-113.157
X109.626Y-121.031
X109.728Y-129.159
X110.084Y-157.277
X110.134Y-153.137
X110.224Y-158.103
X110.756Y-158.635
X110.769Y-135.611
X110.998Y-30.861
X110.998Y-71.247
X110.998Y-79.375
X111.049Y-95.174
X111.056Y-119.348
X111.1Y-55.245
X111.1Y-103.251
X111.15Y-87.351
X111.252Y-39.243
X111.252Y-47.371
X111.252Y-63.373
X111.633Y-158.598
X112.116Y-149.69
X112.2Y-137.312
X112.624Y-88.925
X112.674Y-145.237
X112.7Y-87.384
X112.725Y-41.021
X112.725Y-49.047
X112.725Y-64.999
X112.725Y-81.001
X112.725Y-129.007
X112.776Y-72.923
X112.776Y-113.005
X112.8Y-31.42
X112.8Y-135.42
X112.827Y-96.952
X112.827Y-105.029
X112.827Y-120.98
X112.828Y-39.378
X112.828Y-47.379
X112.828Y-55.38
X112.828Y-63.381
X112.828Y-71.382
X112.828Y-79.383
X112.828Y-95.385
X112.828Y-103.386
X112.828Y-111.387
X112.828Y-119.388
X112.828Y-127.389
X112.828Y-143.391
X112.878Y-56.921
X114.038Y-92.964
X114.046Y-48.895
X114.046Y-56.769
X114.137Y-37.0
X114.165Y-44.958
X114.165Y-52.959
X114.165Y-60.96
X114.165Y-68.961
X114.165Y-76.962
X114.165Y-84.963
X114.165Y-100.965
X114.165Y-108.966
X114.165Y-116.967
X114.165Y-124.968
X114.165Y-132.969
X114.165Y-148.971
X114.165Y-157.099
X114.529Y-151.24
X114.554Y-135.331
X114.808Y-31.115
X114.808Y-32.131
X114.884Y-140.03
X114.91Y-158.191
X115.316Y-138.1
X116.281Y-80.899
X116.332Y-112.903
X116.434Y-64.897
X116.484Y-72.923
X116.484Y-97.003
X116.484Y-128.956
X116.535Y-56.972
X116.535Y-88.925
X116.535Y-120.98
X116.586Y-104.927
X116.637Y-32.944
X116.637Y-48.997
X116.688Y-41.021
X116.815Y-153.34
X117.399Y-89.078
X117.399Y-113.055
X117.5Y-57.074
X117.5Y-81.001
X117.551Y-65.049
X117.602Y-97.003
X117.704Y-41.021
X117.754Y-48.946
X117.754Y-72.923
X117.805Y-32.995
X117.805Y-104.978
X117.805Y-129.057
X117.856Y-120.98
X118.11Y-153.035
X118.745Y-134.523
X118.872Y-39.243
X118.872Y-63.373
X118.872Y-87.249
X118.872Y-95.377
X118.872Y-111.379
X118.872Y-119.507
X119.024Y-130.581
X119.024Y-150.114
X119.126Y-142.74
X119.126Y-31.115
X119.126Y-47.371
X119.126Y-55.245
X119.126Y-71.247
X119.126Y-79.121
X119.177Y-127.457
X119.278Y-103.302
X120.7Y-87.384
X120.8Y-31.42
X120.8Y-127.42
X120.8Y-151.42
X120.828Y-39.378
X120.828Y-47.379
X120.828Y-55.38
X120.828Y-63.381
X120.828Y-71.382
X120.828Y-79.383
X120.828Y-95.385
X120.828Y-103.386
X120.828Y-111.387
X120.828Y-119.388
X120.828Y-135.458
X120.828Y-144.932
X120.828Y-152.959
X120.853Y-128.88
X122.006Y-137.358
X122.038Y-92.964
X122.098Y-136.474
X122.137Y-37.0
X122.137Y-149.0
X122.137Y-157.0
X122.149Y-141.046
X122.165Y-44.958
X122.165Y-52.959
X122.165Y-60.96
X122.165Y-68.961
X122.165Y-76.962
X122.165Y-84.963
X122.165Y-100.965
X122.165Y-108.966
X122.165Y-116.967
X122.165Y-124.968
X122.165Y-132.969
X122.403Y-143.281
X122.631Y-103.454
X122.682Y-39.243
X122.682Y-40.513
X122.682Y-63.373
X122.682Y-64.643
X122.682Y-87.249
X122.682Y-88.519
X122.936Y-31.115
X122.936Y-32.385
X122.936Y-47.371
X122.936Y-48.641
X122.936Y-55.245
X122.936Y-56.515
X122.936Y-71.247
X122.936Y-72.517
X122.936Y-79.121
X122.936Y-80.391
X122.936Y-95.123
X122.936Y-96.393
X122.936Y-111.125
X122.936Y-112.395
X122.936Y-119.253
X122.936Y-120.523
X122.936Y-150.673
X122.936Y-152.324
X122.987Y-158.217
X123.19Y-104.521
X123.444Y-136.474
X123.469Y-135.204
X123.596Y-143.281
X123.825Y-137.744
X124.968Y-41.021
X124.968Y-65.151
X124.968Y-89.027
X125.146Y-129.057
X125.222Y-33.147
X125.222Y-49.149
X125.222Y-57.023
X125.222Y-73.025
X125.222Y-80.899
X125.222Y-96.901
X125.222Y-105.029
X125.222Y-112.903
X125.222Y-121.031
X125.222Y-136.982
X125.273Y-153.035
X125.908Y-142.062
X126.822Y-127.356
X126.848Y-136.677
X127.0Y-31.115
X127.0Y-39.243
X127.0Y-47.117
X127.0Y-55.245
X127.0Y-63.373
X127.0Y-71.247
X127.0Y-79.375
X127.0Y-87.249
X127.0Y-95.123
X127.0Y-111.125
X127.0Y-119.253
X127.102Y-150.901
X127.254Y-103.251
X127.406Y-134.523
X128.143Y-144.805
X128.524Y-121.031
X128.524Y-125.095
X128.524Y-132.969
X128.701Y-87.384
X128.778Y-153.01
X128.8Y-31.42
X128.8Y-135.42
X128.803Y-143.459
X128.827Y-39.378
X128.827Y-47.379
X128.827Y-55.38
X128.827Y-63.381
X128.827Y-71.382
X128.827Y-79.383
X128.827Y-95.385
X128.827Y-103.386
X128.827Y-111.387
X128.827Y-119.388
X128.827Y-151.435
X128.905Y-112.928
X129.565Y-128.803
X129.997Y-126.497
X130.023Y-144.729
X130.038Y-92.964
X130.048Y-110.609
X130.137Y-37.0
X130.137Y-149.0
X130.137Y-157.0
X130.15Y-118.369
X130.15Y-141.046
X130.165Y-44.958
X130.165Y-52.959
X130.165Y-60.96
X130.165Y-68.961
X130.165Y-76.962
X130.165Y-84.963
X130.165Y-100.965
X130.165Y-108.966
X130.165Y-116.967
X130.81Y-31.115
X130.81Y-32.385
X130.81Y-39.243
X130.81Y-40.513
X130.81Y-47.117
X130.81Y-48.387
X130.81Y-55.245
X130.81Y-56.515
X130.81Y-63.373
X130.81Y-64.643
X130.81Y-71.247
X130.81Y-72.517
X130.81Y-79.375
X130.81Y-80.645
X130.81Y-87.249
X130.81Y-88.519
X130.81Y-95.123
X130.81Y-96.393
X130.81Y-103.251
X130.81Y-104.775
X130.861Y-136.55
X130.886Y-135.052
X130.937Y-158.217
X130.962Y-143.408
X130.962Y-150.597
X130.988Y-152.425
X131.039Y-112.37
X131.039Y-144.729
X131.064Y-111.379
X131.775Y-119.228
X131.877Y-127.356
X132.08Y-120.777
X132.309Y-136.906
X132.334Y-128.905
X132.664Y-144.958
X132.893Y-153.06
X133.096Y-33.147
X133.096Y-41.021
X133.096Y-48.895
X133.096Y-57.023
X133.096Y-65.151
X133.096Y-73.025
X133.096Y-81.153
X133.096Y-89.027
X133.096Y-96.901
X133.096Y-105.029
X133.096Y-112.903
X133.604Y-121.031
X134.874Y-55.245
X134.874Y-79.121
X135.077Y-103.302
X135.128Y-31.115
X135.128Y-39.243
X135.128Y-47.371
X135.128Y-63.119
X135.128Y-71.247
X135.128Y-87.249
X135.128Y-95.123
X135.128Y-111.125
X135.128Y-119.253
X135.788Y-128.549
X135.89Y-144.424
X136.601Y-104.978
X136.701Y-87.384
X136.8Y-31.42
X136.827Y-39.378
X136.827Y-47.379
X136.827Y-55.38
X136.827Y-63.381
X136.827Y-71.382
X136.827Y-79.383
X136.827Y-95.385
X136.827Y-103.386
X136.827Y-111.387
X136.827Y-119.388
X136.827Y-127.389
X136.827Y-135.39
X136.906Y-136.779
X138.024Y-158.699
X138.038Y-92.964
X138.137Y-37.0
X138.151Y-126.639
X138.165Y-44.958
X138.165Y-52.959
X138.165Y-60.96
X138.165Y-68.961
X138.165Y-76.962
X138.165Y-84.963
X138.165Y-100.965
X138.165Y-108.966
X138.165Y-116.967
X138.165Y-124.968
X138.165Y-132.969
X138.165Y-140.97
X138.165Y-148.971
X138.165Y-157.099
X138.43Y-152.527
X138.684Y-55.245
X138.684Y-56.515
X138.684Y-79.121
X138.684Y-80.391
X138.938Y-31.115
X138.938Y-32.385
X138.938Y-39.243
X138.938Y-40.513
X138.938Y-47.371
X138.938Y-48.641
X138.938Y-63.119
X138.938Y-64.389
X138.938Y-71.247
X138.938Y-72.517
X138.938Y-87.249
X138.938Y-88.519
X138.938Y-95.123
X138.938Y-96.393
X138.938Y-104.47
X138.938Y-111.125
X138.938Y-112.395
X138.938Y-119.253
X138.938Y-120.523
X138.938Y-135.255
X138.938Y-136.525
X138.938Y-143.613
X138.989Y-103.251
X139.395Y-128.473
X139.421Y-127.076
X139.446Y-151.409
X140.97Y-57.023
X140.97Y-80.899
X141.173Y-105.131
X141.224Y-33.147
X141.224Y-41.021
X141.224Y-49.149
X141.224Y-64.897
X141.224Y-73.025
X141.224Y-89.027
X141.224Y-96.901
X141.224Y-112.903
X141.224Y-121.031
X141.224Y-128.905
X141.478Y-137.033
X141.986Y-153.035
X143.002Y-31.115
X143.002Y-39.243
X143.002Y-47.117
X143.002Y-79.121
X143.002Y-87.249
X143.002Y-95.123
X143.002Y-111.125
X143.002Y-119.253
X143.002Y-127.127
X143.027Y-143.002
X143.205Y-103.403
X143.256Y-55.245
X143.256Y-63.119
X143.256Y-71.247
X143.256Y-135.255
X143.51Y-151.765
X144.501Y-145.034
X144.701Y-87.384
X144.8Y-31.42
X144.827Y-39.378
X144.827Y-47.379
X144.827Y-55.38
X144.827Y-63.381
X144.827Y-71.382
X144.827Y-79.383
X144.827Y-95.385
X144.827Y-103.386
X144.827Y-111.387
X144.827Y-119.388
X144.827Y-127.389
X144.827Y-135.39
X144.827Y-151.519
X146.038Y-92.964
X146.137Y-37.0
X146.165Y-44.958
X146.165Y-52.959
X146.165Y-60.96
X146.165Y-68.961
X146.165Y-76.962
X146.165Y-84.963
X146.165Y-100.965
X146.165Y-108.966
X146.165Y-116.967
X146.165Y-124.968
X146.165Y-132.969
X146.165Y-140.97
X146.165Y-148.971
X146.165Y-157.099
X146.482Y-151.232
X146.482Y-152.629
X146.812Y-31.115
X146.812Y-32.385
X146.812Y-39.243
X146.812Y-40.513
X146.812Y-47.117
X146.812Y-48.387
X146.812Y-79.121
X146.812Y-80.391
X146.812Y-87.249
X146.812Y-88.519
X146.812Y-95.123
X146.812Y-96.393
X146.812Y-111.125
X146.812Y-112.395
X146.812Y-119.253
X146.812Y-120.523
X146.812Y-127.127
X146.812Y-128.397
X146.812Y-135.255
X146.812Y-136.525
X146.964Y-103.2
X146.964Y-104.419
X147.066Y-55.245
X147.066Y-56.515
X147.066Y-63.119
X147.066Y-64.389
X147.066Y-71.247
X147.066Y-72.517
X147.574Y-143.383
X147.574Y-144.653
X147.823Y-158.802
X149.098Y-33.147
X149.098Y-41.021
X149.098Y-48.895
X149.098Y-80.899
X149.098Y-89.027
X149.098Y-96.901
X149.098Y-104.978
X149.098Y-112.903
X149.098Y-121.031
X149.098Y-128.905
X149.098Y-137.033
X149.098Y-144.907
X149.098Y-153.035
X149.2Y-154.62
X149.352Y-57.023
X149.352Y-64.897
X149.352Y-73.025
X150.393Y-148.768
X150.393Y-150.038
X150.414Y-158.802
X150.876Y-39.243
X150.927Y-143.129
X151.028Y-103.251
X151.13Y-31.115
X151.13Y-47.371
X151.13Y-55.245
X151.13Y-63.373
X151.13Y-71.247
X151.13Y-79.121
X151.13Y-87.249
X151.13Y-95.123
X151.13Y-111.125
X151.13Y-119.253
X151.13Y-127.127
X151.13Y-135.255
X151.13Y-151.257
X152.654Y-104.978
X152.701Y-87.384
X152.8Y-31.42
X152.827Y-39.378
X152.827Y-47.379
X152.827Y-55.38
X152.827Y-63.381
X152.827Y-71.382
X152.827Y-79.383
X152.827Y-95.385
X152.827Y-103.386
X152.827Y-111.387
X152.827Y-119.388
X152.827Y-127.389
X152.827Y-135.39
X152.827Y-143.391
X152.827Y-151.519
X154.038Y-92.964
X154.137Y-37.0
X154.165Y-44.958
X154.165Y-52.959
X154.165Y-60.96
X154.165Y-68.961
X154.165Y-76.962
X154.165Y-84.963
X154.165Y-100.965
X154.165Y-108.966
X154.165Y-116.967
X154.165Y-124.968
X154.165Y-132.969
X154.165Y-140.97
X154.165Y-148.971
X154.165Y-157.099
X154.686Y-39.243
X154.686Y-40.513
X154.686Y-144.653
X154.737Y-143.281
X154.94Y-31.115
X154.94Y-32.385
X154.94Y-47.371
X154.94Y-48.641
X154.94Y-55.245
X154.94Y-56.515
X154.94Y-63.373
X154.94Y-64.643
X154.94Y-71.247
X154.94Y-72.517
X154.94Y-79.121
X154.94Y-80.391
X154.94Y-87.249
X154.94Y-88.519
X154.94Y-95.123
X154.94Y-96.393
X154.94Y-103.251
X154.94Y-111.125
X154.94Y-112.395
X154.94Y-119.253
X154.94Y-120.523
X154.94Y-127.127
X154.94Y-128.397
X154.94Y-135.255
X154.94Y-136.525
X154.94Y-151.257
X154.94Y-152.527
X155.042Y-104.47
X156.972Y-41.021
X156.972Y-137.033
X156.972Y-144.907
X157.226Y-33.147
X157.226Y-49.149
X157.226Y-57.023
X157.226Y-65.151
X157.226Y-73.025
X157.226Y-80.899
X157.226Y-89.027
X157.226Y-96.901
X157.226Y-112.903
X157.226Y-121.031
X157.226Y-128.905
X157.226Y-153.035
X157.277Y-104.978
X158.953Y-103.2
X159.004Y-31.115
X159.004Y-39.243
X159.004Y-47.371
X159.004Y-55.245
X159.004Y-63.119
X159.004Y-71.247
X159.004Y-79.121
X159.004Y-87.249
X159.004Y-95.123
X159.004Y-111.125
X159.004Y-119.253
X159.004Y-127.127
X159.004Y-143.383
X159.004Y-151.257
X159.258Y-135.42
X160.701Y-87.384
X160.8Y-31.42
X160.827Y-39.378
X160.827Y-47.379
X160.827Y-55.38
X160.827Y-63.381
X160.827Y-71.382
X160.827Y-79.383
X160.827Y-95.385
X160.827Y-103.386
X160.827Y-111.387
X160.827Y-119.388
X160.827Y-127.389
X160.827Y-135.39
X160.827Y-143.391
X160.827Y-151.519
X162.038Y-92.964
X162.137Y-37.0
X162.165Y-44.958
X162.165Y-52.959
X162.165Y-60.96
X162.165Y-68.961
X162.165Y-76.962
X162.165Y-84.963
X162.165Y-100.965
X162.165Y-108.966
X162.165Y-116.967
X162.165Y-124.968
X162.165Y-132.969
X162.165Y-140.97
X162.165Y-148.971
X162.165Y-157.099
X162.814Y-31.115
X162.814Y-32.385
X162.814Y-39.243
X162.814Y-40.513
X162.814Y-47.371
X162.814Y-48.641
X162.814Y-55.245
X162.814Y-56.515
X162.814Y-63.119
X162.814Y-64.389
X162.814Y-71.247
X162.814Y-72.517
X162.814Y-79.121
X162.814Y-80.391
X162.814Y-87.249
X162.814Y-88.519
X162.814Y-95.123
X162.814Y-96.393
X162.814Y-111.125
X162.814Y-112.395
X162.814Y-119.253
X162.814Y-120.523
X162.814Y-127.127
X162.814Y-128.397
X162.814Y-143.383
X162.814Y-144.653
X162.814Y-151.257
X162.814Y-152.527
X162.865Y-103.149
X162.916Y-104.369
X163.068Y-135.509
X163.068Y-136.525
X165.1Y-33.147
X165.1Y-41.021
X165.1Y-49.149
X165.1Y-57.023
X165.1Y-64.897
X165.1Y-73.025
X165.1Y-80.899
X165.1Y-89.027
X165.1Y-96.901
X165.1Y-112.903
X165.1Y-121.031
X165.1Y-128.905
X165.1Y-137.033
X165.1Y-144.907
X165.1Y-153.035
X165.202Y-104.978
X166.878Y-55.245
X166.878Y-71.247
X167.081Y-103.251
X167.132Y-31.115
X167.132Y-39.243
X167.132Y-47.371
X167.132Y-63.119
X167.132Y-79.121
X167.132Y-87.249
X167.132Y-95.123
X167.132Y-111.125
X167.132Y-119.253
X167.132Y-127.127
X167.132Y-135.509
X167.132Y-143.637
X167.132Y-151.257
X168.701Y-87.384
X168.8Y-31.42
X168.827Y-39.378
X168.827Y-47.379
X168.827Y-55.38
X168.827Y-63.381
X168.827Y-71.382
X168.827Y-79.383
X168.827Y-95.385
X168.827Y-103.386
X168.827Y-111.387
X168.827Y-119.388
X168.827Y-127.389
X168.827Y-135.39
X168.827Y-143.391
X168.827Y-151.519
X170.038Y-92.964
X170.137Y-37.0
X170.165Y-44.958
X170.165Y-52.959
X170.165Y-60.96
X170.165Y-68.961
X170.165Y-76.962
X170.165Y-84.963
X170.165Y-100.965
X170.165Y-108.966
X170.165Y-116.967
X170.165Y-124.968
X170.165Y-132.969
X170.165Y-140.97
X170.165Y-157.099
X170.688Y-55.245
X170.688Y-56.515
X170.688Y-71.247
X170.688Y-72.517
X170.688Y-135.509
X170.688Y-136.525
X170.942Y-31.115
X170.942Y-32.385
X170.942Y-39.243
X170.942Y-40.513
X170.942Y-47.371
X170.942Y-48.641
X170.942Y-63.119
X170.942Y-64.389
X170.942Y-79.121
X170.942Y-80.391
X170.942Y-87.249
X170.942Y-88.519
X170.942Y-95.123
X170.942Y-96.393
X170.942Y-103.403
X170.942Y-111.125
X170.942Y-112.395
X170.942Y-119.253
X170.942Y-120.523
X170.942Y-127.127
X170.942Y-128.397
X170.942Y-143.383
X170.942Y-144.653
X170.942Y-152.527
X170.993Y-104.47
X171.862Y-149.0
X171.958Y-152.781
X172.974Y-57.023
X172.974Y-73.025
X172.974Y-137.033
X173.076Y-105.029
X173.2Y-151.42
X173.228Y-33.147
X173.228Y-41.021
X173.228Y-49.149
X173.228Y-64.897
X173.228Y-80.899
X173.228Y-89.027
X173.228Y-96.901
X173.228Y-112.903
X173.228Y-121.031
X173.228Y-128.905
X173.228Y-144.907
X175.006Y-70.993
X175.006Y-72.263
X175.006Y-142.875
X175.006Y-144.399
X175.108Y-102.895
X175.158Y-104.165
X175.26Y-46.863
X175.26Y-48.387
X175.26Y-54.737
X175.26Y-56.515
X175.26Y-62.865
X175.26Y-64.135
X175.26Y-78.867
X175.26Y-80.391
X175.26Y-86.995
X175.26Y-88.519
X175.26Y-94.615
X175.26Y-96.393
X175.26Y-110.617
X175.26Y-112.395
X175.26Y-118.745
X175.26Y-120.523
X175.26Y-126.619
X175.26Y-128.397
X175.26Y-134.747
X175.26Y-136.525
X175.26Y-150.749
X175.26Y-151.511
T2
X94.324Y-156.875
X94.869Y-157.638
X98.425Y-154.686
X99.019Y-150.816
X99.06Y-153.924
X99.918Y-150.997
X106.632Y-154.924
M30
