%TF.GenerationSoftware,KiCad,Pcbnew,9.0.2*%
%TF.CreationDate,2025-08-04T20:44:44-05:00*%
%TF.ProjectId,led_matrix,6c65645f-6d61-4747-9269-782e6b696361,rev?*%
%TF.SameCoordinates,Original*%
%TF.FileFunction,Paste,Top*%
%TF.FilePolarity,Positive*%
%FSLAX46Y46*%
G04 Gerber Fmt 4.6, Leading zero omitted, Abs format (unit mm)*
G04 Created by KiCad (PCBNEW 9.0.2) date 2025-08-04 20:44:44*
%MOMM*%
%LPD*%
G01*
G04 APERTURE LIST*
G04 Aperture macros list*
%AMRoundRect*
0 Rectangle with rounded corners*
0 $1 Rounding radius*
0 $2 $3 $4 $5 $6 $7 $8 $9 X,Y pos of 4 corners*
0 Add a 4 corners polygon primitive as box body*
4,1,4,$2,$3,$4,$5,$6,$7,$8,$9,$2,$3,0*
0 Add four circle primitives for the rounded corners*
1,1,$1+$1,$2,$3*
1,1,$1+$1,$4,$5*
1,1,$1+$1,$6,$7*
1,1,$1+$1,$8,$9*
0 Add four rect primitives between the rounded corners*
20,1,$1+$1,$2,$3,$4,$5,0*
20,1,$1+$1,$4,$5,$6,$7,0*
20,1,$1+$1,$6,$7,$8,$9,0*
20,1,$1+$1,$8,$9,$2,$3,0*%
G04 Aperture macros list end*
%ADD10RoundRect,0.237500X0.300000X0.237500X-0.300000X0.237500X-0.300000X-0.237500X0.300000X-0.237500X0*%
%ADD11RoundRect,0.195000X0.455000X0.505000X-0.455000X0.505000X-0.455000X-0.505000X0.455000X-0.505000X0*%
%ADD12RoundRect,0.237500X0.237500X-0.300000X0.237500X0.300000X-0.237500X0.300000X-0.237500X-0.300000X0*%
%ADD13RoundRect,0.237500X-0.237500X0.300000X-0.237500X-0.300000X0.237500X-0.300000X0.237500X0.300000X0*%
G04 APERTURE END LIST*
D10*
%TO.C,C177*%
X51862500Y-125000000D03*
X50137500Y-125000000D03*
%TD*%
%TO.C,C25*%
X115862500Y-45000000D03*
X114137500Y-45000000D03*
%TD*%
D11*
%TO.C,D136*%
X109200000Y-98620000D03*
X109200000Y-95420000D03*
X104800000Y-95420000D03*
X104800000Y-98620000D03*
%TD*%
D10*
%TO.C,C14*%
X155862500Y-37000000D03*
X154137500Y-37000000D03*
%TD*%
D11*
%TO.C,D235*%
X133200000Y-146620000D03*
X133200000Y-143420000D03*
X128800000Y-143420000D03*
X128800000Y-146620000D03*
%TD*%
%TO.C,D126*%
X157200000Y-90620000D03*
X157200000Y-87420000D03*
X152800000Y-87420000D03*
X152800000Y-90620000D03*
%TD*%
D10*
%TO.C,C171*%
X131862500Y-117000000D03*
X130137500Y-117000000D03*
%TD*%
%TO.C,C61*%
X147862500Y-61000000D03*
X146137500Y-61000000D03*
%TD*%
D11*
%TO.C,D114*%
X61200000Y-90620000D03*
X61200000Y-87420000D03*
X56800000Y-87420000D03*
X56800000Y-90620000D03*
%TD*%
D10*
%TO.C,C189*%
X147862500Y-125000000D03*
X146137500Y-125000000D03*
%TD*%
D11*
%TO.C,D223*%
X165200000Y-138620000D03*
X165200000Y-135420000D03*
X160800000Y-135420000D03*
X160800000Y-138620000D03*
%TD*%
D10*
%TO.C,C245*%
X83862500Y-157000000D03*
X82137500Y-157000000D03*
%TD*%
%TO.C,C44*%
X139862500Y-53000000D03*
X138137500Y-53000000D03*
%TD*%
D11*
%TO.C,D34*%
X61200000Y-50620000D03*
X61200000Y-47420000D03*
X56800000Y-47420000D03*
X56800000Y-50620000D03*
%TD*%
%TO.C,D111*%
X165200000Y-82620000D03*
X165200000Y-79420000D03*
X160800000Y-79420000D03*
X160800000Y-82620000D03*
%TD*%
D10*
%TO.C,C49*%
X51862500Y-61000000D03*
X50137500Y-61000000D03*
%TD*%
D11*
%TO.C,D195*%
X69200000Y-130620000D03*
X69200000Y-127420000D03*
X64800000Y-127420000D03*
X64800000Y-130620000D03*
%TD*%
D10*
%TO.C,C96*%
X171862500Y-77000000D03*
X170137500Y-77000000D03*
%TD*%
%TO.C,C32*%
X171862500Y-45000000D03*
X170137500Y-45000000D03*
%TD*%
D11*
%TO.C,D35*%
X69200000Y-50620000D03*
X69200000Y-47420000D03*
X64800000Y-47420000D03*
X64800000Y-50620000D03*
%TD*%
D10*
%TO.C,C23*%
X99862500Y-45000000D03*
X98137500Y-45000000D03*
%TD*%
D11*
%TO.C,D15*%
X165200000Y-34620000D03*
X165200000Y-31420000D03*
X160800000Y-31420000D03*
X160800000Y-34620000D03*
%TD*%
D10*
%TO.C,C142*%
X155862500Y-101000000D03*
X154137500Y-101000000D03*
%TD*%
%TO.C,C22*%
X91862500Y-45000000D03*
X90137500Y-45000000D03*
%TD*%
D11*
%TO.C,D72*%
X109200000Y-66620000D03*
X109200000Y-63420000D03*
X104800000Y-63420000D03*
X104800000Y-66620000D03*
%TD*%
D10*
%TO.C,C125*%
X147862500Y-93000000D03*
X146137500Y-93000000D03*
%TD*%
%TO.C,C210*%
X59862500Y-141000000D03*
X58137500Y-141000000D03*
%TD*%
D11*
%TO.C,D96*%
X173200000Y-74620000D03*
X173200000Y-71420000D03*
X168800000Y-71420000D03*
X168800000Y-74620000D03*
%TD*%
%TO.C,D203*%
X133200000Y-130620000D03*
X133200000Y-127420000D03*
X128800000Y-127420000D03*
X128800000Y-130620000D03*
%TD*%
D10*
%TO.C,C106*%
X123862500Y-85000000D03*
X122137500Y-85000000D03*
%TD*%
%TO.C,C78*%
X155862500Y-69000000D03*
X154137500Y-69000000D03*
%TD*%
%TO.C,C34*%
X59862500Y-53000000D03*
X58137500Y-53000000D03*
%TD*%
D11*
%TO.C,D233*%
X117200000Y-146620000D03*
X117200000Y-143420000D03*
X112800000Y-143420000D03*
X112800000Y-146620000D03*
%TD*%
D10*
%TO.C,C69*%
X83862500Y-69000000D03*
X82137500Y-69000000D03*
%TD*%
D11*
%TO.C,D133*%
X85200000Y-98620000D03*
X85200000Y-95420000D03*
X80800000Y-95420000D03*
X80800000Y-98620000D03*
%TD*%
%TO.C,D98*%
X61200000Y-82620000D03*
X61200000Y-79420000D03*
X56800000Y-79420000D03*
X56800000Y-82620000D03*
%TD*%
%TO.C,D166*%
X93200000Y-114620000D03*
X93200000Y-111420000D03*
X88800000Y-111420000D03*
X88800000Y-114620000D03*
%TD*%
%TO.C,D17*%
X53200000Y-42620000D03*
X53200000Y-39420000D03*
X48800000Y-39420000D03*
X48800000Y-42620000D03*
%TD*%
D10*
%TO.C,C115*%
X67862500Y-93000000D03*
X66137500Y-93000000D03*
%TD*%
%TO.C,C20*%
X75862500Y-45000000D03*
X74137500Y-45000000D03*
%TD*%
D11*
%TO.C,D217*%
X117200000Y-138620000D03*
X117200000Y-135420000D03*
X112800000Y-135420000D03*
X112800000Y-138620000D03*
%TD*%
D10*
%TO.C,C26*%
X123862500Y-45000000D03*
X122137500Y-45000000D03*
%TD*%
D11*
%TO.C,D117*%
X85200000Y-90620000D03*
X85200000Y-87420000D03*
X80800000Y-87420000D03*
X80800000Y-90620000D03*
%TD*%
D10*
%TO.C,C101*%
X83862500Y-85000000D03*
X82137500Y-85000000D03*
%TD*%
D11*
%TO.C,D245*%
X85200000Y-154620000D03*
X85200000Y-151420000D03*
X80800000Y-151420000D03*
X80800000Y-154620000D03*
%TD*%
%TO.C,D18*%
X61200000Y-42620000D03*
X61200000Y-39420000D03*
X56800000Y-39420000D03*
X56800000Y-42620000D03*
%TD*%
%TO.C,D174*%
X157200000Y-114620000D03*
X157200000Y-111420000D03*
X152800000Y-111420000D03*
X152800000Y-114620000D03*
%TD*%
D10*
%TO.C,C229*%
X83862500Y-149000000D03*
X82137500Y-149000000D03*
%TD*%
%TO.C,C185*%
X115862500Y-125000000D03*
X114137500Y-125000000D03*
%TD*%
D11*
%TO.C,D49*%
X53200000Y-58620000D03*
X53200000Y-55420000D03*
X48800000Y-55420000D03*
X48800000Y-58620000D03*
%TD*%
D10*
%TO.C,C82*%
X59862500Y-77000000D03*
X58137500Y-77000000D03*
%TD*%
%TO.C,C199*%
X99862500Y-133000000D03*
X98137500Y-133000000D03*
%TD*%
D11*
%TO.C,D172*%
X141200000Y-114620000D03*
X141200000Y-111420000D03*
X136800000Y-111420000D03*
X136800000Y-114620000D03*
%TD*%
%TO.C,D115*%
X69200000Y-90620000D03*
X69200000Y-87420000D03*
X64800000Y-87420000D03*
X64800000Y-90620000D03*
%TD*%
%TO.C,D176*%
X173200000Y-114620000D03*
X173200000Y-111420000D03*
X168800000Y-111420000D03*
X168800000Y-114620000D03*
%TD*%
%TO.C,D107*%
X133200000Y-82620000D03*
X133200000Y-79420000D03*
X128800000Y-79420000D03*
X128800000Y-82620000D03*
%TD*%
%TO.C,D57*%
X117200000Y-58620000D03*
X117200000Y-55420000D03*
X112800000Y-55420000D03*
X112800000Y-58620000D03*
%TD*%
%TO.C,D10*%
X125200000Y-34620000D03*
X125200000Y-31420000D03*
X120800000Y-31420000D03*
X120800000Y-34620000D03*
%TD*%
%TO.C,D79*%
X165200000Y-66620000D03*
X165200000Y-63420000D03*
X160800000Y-63420000D03*
X160800000Y-66620000D03*
%TD*%
%TO.C,D134*%
X93200000Y-98620000D03*
X93200000Y-95420000D03*
X88800000Y-95420000D03*
X88800000Y-98620000D03*
%TD*%
%TO.C,D148*%
X77200000Y-106620000D03*
X77200000Y-103420000D03*
X72800000Y-103420000D03*
X72800000Y-106620000D03*
%TD*%
D10*
%TO.C,C184*%
X107862500Y-125000000D03*
X106137500Y-125000000D03*
%TD*%
D11*
%TO.C,D179*%
X69200000Y-122620000D03*
X69200000Y-119420000D03*
X64800000Y-119420000D03*
X64800000Y-122620000D03*
%TD*%
%TO.C,D73*%
X117200000Y-66620000D03*
X117200000Y-63420000D03*
X112800000Y-63420000D03*
X112800000Y-66620000D03*
%TD*%
%TO.C,D45*%
X149200000Y-50620000D03*
X149200000Y-47420000D03*
X144800000Y-47420000D03*
X144800000Y-50620000D03*
%TD*%
%TO.C,D59*%
X133200000Y-58620000D03*
X133200000Y-55420000D03*
X128800000Y-55420000D03*
X128800000Y-58620000D03*
%TD*%
%TO.C,D222*%
X157200000Y-138620000D03*
X157200000Y-135420000D03*
X152800000Y-135420000D03*
X152800000Y-138620000D03*
%TD*%
D10*
%TO.C,C117*%
X83862500Y-93000000D03*
X82137500Y-93000000D03*
%TD*%
%TO.C,C2*%
X59862500Y-37000000D03*
X58137500Y-37000000D03*
%TD*%
D11*
%TO.C,D178*%
X61200000Y-122620000D03*
X61200000Y-119420000D03*
X56800000Y-119420000D03*
X56800000Y-122620000D03*
%TD*%
%TO.C,D181*%
X85200000Y-122620000D03*
X85200000Y-119420000D03*
X80800000Y-119420000D03*
X80800000Y-122620000D03*
%TD*%
D10*
%TO.C,C218*%
X123862500Y-141000000D03*
X122137500Y-141000000D03*
%TD*%
D11*
%TO.C,D254*%
X157200000Y-154620000D03*
X157200000Y-151420000D03*
X152800000Y-151420000D03*
X152800000Y-154620000D03*
%TD*%
D10*
%TO.C,C100*%
X75862500Y-85000000D03*
X74137500Y-85000000D03*
%TD*%
%TO.C,C3*%
X67862500Y-37000000D03*
X66137500Y-37000000D03*
%TD*%
D11*
%TO.C,D152*%
X109200000Y-106620000D03*
X109200000Y-103420000D03*
X104800000Y-103420000D03*
X104800000Y-106620000D03*
%TD*%
%TO.C,D8*%
X109200000Y-34620000D03*
X109200000Y-31420000D03*
X104800000Y-31420000D03*
X104800000Y-34620000D03*
%TD*%
%TO.C,D5*%
X85200000Y-34620000D03*
X85200000Y-31420000D03*
X80800000Y-31420000D03*
X80800000Y-34620000D03*
%TD*%
%TO.C,D51*%
X69200000Y-58620000D03*
X69200000Y-55420000D03*
X64800000Y-55420000D03*
X64800000Y-58620000D03*
%TD*%
%TO.C,D237*%
X149200000Y-146620000D03*
X149200000Y-143420000D03*
X144800000Y-143420000D03*
X144800000Y-146620000D03*
%TD*%
%TO.C,D154*%
X125200000Y-106620000D03*
X125200000Y-103420000D03*
X120800000Y-103420000D03*
X120800000Y-106620000D03*
%TD*%
D10*
%TO.C,C137*%
X115862500Y-101000000D03*
X114137500Y-101000000D03*
%TD*%
%TO.C,C46*%
X155862500Y-53000000D03*
X154137500Y-53000000D03*
%TD*%
D11*
%TO.C,D146*%
X61200000Y-106620000D03*
X61200000Y-103420000D03*
X56800000Y-103420000D03*
X56800000Y-106620000D03*
%TD*%
D10*
%TO.C,C217*%
X115862500Y-141000000D03*
X114137500Y-141000000D03*
%TD*%
%TO.C,C231*%
X99862500Y-149000000D03*
X98137500Y-149000000D03*
%TD*%
%TO.C,C150*%
X91862500Y-109000000D03*
X90137500Y-109000000D03*
%TD*%
%TO.C,C36*%
X75862500Y-53000000D03*
X74137500Y-53000000D03*
%TD*%
D11*
%TO.C,D248*%
X109200000Y-154620000D03*
X109200000Y-151420000D03*
X104800000Y-151420000D03*
X104800000Y-154620000D03*
%TD*%
D10*
%TO.C,C161*%
X51862500Y-117000000D03*
X50137500Y-117000000D03*
%TD*%
%TO.C,C213*%
X83862500Y-141000000D03*
X82137500Y-141000000D03*
%TD*%
D11*
%TO.C,D110*%
X157200000Y-82620000D03*
X157200000Y-79420000D03*
X152800000Y-79420000D03*
X152800000Y-82620000D03*
%TD*%
D10*
%TO.C,C225*%
X51862500Y-149000000D03*
X50137500Y-149000000D03*
%TD*%
%TO.C,C33*%
X51862500Y-53000000D03*
X50137500Y-53000000D03*
%TD*%
%TO.C,C99*%
X67862500Y-85000000D03*
X66137500Y-85000000D03*
%TD*%
D11*
%TO.C,D158*%
X157200000Y-106620000D03*
X157200000Y-103420000D03*
X152800000Y-103420000D03*
X152800000Y-106620000D03*
%TD*%
D10*
%TO.C,C56*%
X107862500Y-61000000D03*
X106137500Y-61000000D03*
%TD*%
D11*
%TO.C,D151*%
X101200000Y-106620000D03*
X101200000Y-103420000D03*
X96800000Y-103420000D03*
X96800000Y-106620000D03*
%TD*%
D10*
%TO.C,C160*%
X171862500Y-109000000D03*
X170137500Y-109000000D03*
%TD*%
D11*
%TO.C,D46*%
X157200000Y-50620000D03*
X157200000Y-47420000D03*
X152800000Y-47420000D03*
X152800000Y-50620000D03*
%TD*%
D10*
%TO.C,C249*%
X115862500Y-157000000D03*
X114137500Y-157000000D03*
%TD*%
D11*
%TO.C,D247*%
X101200000Y-154620000D03*
X101200000Y-151420000D03*
X96800000Y-151420000D03*
X96800000Y-154620000D03*
%TD*%
D10*
%TO.C,C242*%
X59862500Y-157000000D03*
X58137500Y-157000000D03*
%TD*%
%TO.C,C80*%
X171862500Y-69000000D03*
X170137500Y-69000000D03*
%TD*%
D11*
%TO.C,D156*%
X141200000Y-106620000D03*
X141200000Y-103420000D03*
X136800000Y-103420000D03*
X136800000Y-106620000D03*
%TD*%
%TO.C,D27*%
X133200000Y-42620000D03*
X133200000Y-39420000D03*
X128800000Y-39420000D03*
X128800000Y-42620000D03*
%TD*%
D10*
%TO.C,C135*%
X99862500Y-101000000D03*
X98137500Y-101000000D03*
%TD*%
%TO.C,C206*%
X155862500Y-133000000D03*
X154137500Y-133000000D03*
%TD*%
D11*
%TO.C,D39*%
X101200000Y-50620000D03*
X101200000Y-47420000D03*
X96800000Y-47420000D03*
X96800000Y-50620000D03*
%TD*%
%TO.C,D48*%
X173200000Y-50620000D03*
X173200000Y-47420000D03*
X168800000Y-47420000D03*
X168800000Y-50620000D03*
%TD*%
D10*
%TO.C,C87*%
X99862500Y-77000000D03*
X98137500Y-77000000D03*
%TD*%
%TO.C,C174*%
X155862500Y-117000000D03*
X154137500Y-117000000D03*
%TD*%
D11*
%TO.C,D109*%
X149200000Y-82620000D03*
X149200000Y-79420000D03*
X144800000Y-79420000D03*
X144800000Y-82620000D03*
%TD*%
%TO.C,D87*%
X101200000Y-74620000D03*
X101200000Y-71420000D03*
X96800000Y-71420000D03*
X96800000Y-74620000D03*
%TD*%
D10*
%TO.C,C124*%
X139862500Y-93000000D03*
X138137500Y-93000000D03*
%TD*%
%TO.C,C58*%
X123862500Y-61000000D03*
X122137500Y-61000000D03*
%TD*%
D11*
%TO.C,D84*%
X77200000Y-74620000D03*
X77200000Y-71420000D03*
X72800000Y-71420000D03*
X72800000Y-74620000D03*
%TD*%
D10*
%TO.C,C204*%
X139862500Y-133000000D03*
X138137500Y-133000000D03*
%TD*%
D11*
%TO.C,D50*%
X61200000Y-58620000D03*
X61200000Y-55420000D03*
X56800000Y-55420000D03*
X56800000Y-58620000D03*
%TD*%
D10*
%TO.C,C166*%
X91862500Y-117000000D03*
X90137500Y-117000000D03*
%TD*%
%TO.C,C13*%
X147862500Y-37000000D03*
X146137500Y-37000000D03*
%TD*%
D11*
%TO.C,D246*%
X93200000Y-154620000D03*
X93200000Y-151420000D03*
X88800000Y-151420000D03*
X88800000Y-154620000D03*
%TD*%
D10*
%TO.C,C140*%
X139862500Y-101000000D03*
X138137500Y-101000000D03*
%TD*%
D11*
%TO.C,D190*%
X157200000Y-122620000D03*
X157200000Y-119420000D03*
X152800000Y-119420000D03*
X152800000Y-122620000D03*
%TD*%
%TO.C,D250*%
X125200000Y-154620000D03*
X125200000Y-151420000D03*
X120800000Y-151420000D03*
X120800000Y-154620000D03*
%TD*%
D10*
%TO.C,C31*%
X163862500Y-45000000D03*
X162137500Y-45000000D03*
%TD*%
%TO.C,C8*%
X107862500Y-37000000D03*
X106137500Y-37000000D03*
%TD*%
%TO.C,C131*%
X67862500Y-101000000D03*
X66137500Y-101000000D03*
%TD*%
D11*
%TO.C,D61*%
X149200000Y-58620000D03*
X149200000Y-55420000D03*
X144800000Y-55420000D03*
X144800000Y-58620000D03*
%TD*%
D10*
%TO.C,C221*%
X147862500Y-141000000D03*
X146137500Y-141000000D03*
%TD*%
D11*
%TO.C,D132*%
X77200000Y-98620000D03*
X77200000Y-95420000D03*
X72800000Y-95420000D03*
X72800000Y-98620000D03*
%TD*%
%TO.C,D99*%
X69200000Y-82620000D03*
X69200000Y-79420000D03*
X64800000Y-79420000D03*
X64800000Y-82620000D03*
%TD*%
D10*
%TO.C,C86*%
X91862500Y-77000000D03*
X90137500Y-77000000D03*
%TD*%
D11*
%TO.C,D26*%
X125200000Y-42620000D03*
X125200000Y-39420000D03*
X120800000Y-39420000D03*
X120800000Y-42620000D03*
%TD*%
D10*
%TO.C,C9*%
X115862500Y-37000000D03*
X114137500Y-37000000D03*
%TD*%
%TO.C,C244*%
X75862500Y-157000000D03*
X74137500Y-157000000D03*
%TD*%
D11*
%TO.C,D129*%
X53200000Y-98620000D03*
X53200000Y-95420000D03*
X48800000Y-95420000D03*
X48800000Y-98620000D03*
%TD*%
D10*
%TO.C,C114*%
X59862500Y-93000000D03*
X58137500Y-93000000D03*
%TD*%
D11*
%TO.C,D232*%
X109200000Y-146620000D03*
X109200000Y-143420000D03*
X104800000Y-143420000D03*
X104800000Y-146620000D03*
%TD*%
%TO.C,D47*%
X165200000Y-50620000D03*
X165200000Y-47420000D03*
X160800000Y-47420000D03*
X160800000Y-50620000D03*
%TD*%
D10*
%TO.C,C158*%
X155862500Y-109000000D03*
X154137500Y-109000000D03*
%TD*%
%TO.C,C57*%
X115862500Y-61000000D03*
X114137500Y-61000000D03*
%TD*%
%TO.C,C11*%
X131862500Y-37000000D03*
X130137500Y-37000000D03*
%TD*%
D11*
%TO.C,D189*%
X149200000Y-122620000D03*
X149200000Y-119420000D03*
X144800000Y-119420000D03*
X144800000Y-122620000D03*
%TD*%
%TO.C,D140*%
X141200000Y-98620000D03*
X141200000Y-95420000D03*
X136800000Y-95420000D03*
X136800000Y-98620000D03*
%TD*%
%TO.C,D252*%
X141200000Y-154620000D03*
X141200000Y-151420000D03*
X136800000Y-151420000D03*
X136800000Y-154620000D03*
%TD*%
%TO.C,D22*%
X93200000Y-42620000D03*
X93200000Y-39420000D03*
X88800000Y-39420000D03*
X88800000Y-42620000D03*
%TD*%
D10*
%TO.C,C102*%
X91862500Y-85000000D03*
X90137500Y-85000000D03*
%TD*%
D11*
%TO.C,D200*%
X109200000Y-130620000D03*
X109200000Y-127420000D03*
X104800000Y-127420000D03*
X104800000Y-130620000D03*
%TD*%
%TO.C,D177*%
X53200000Y-122620000D03*
X53200000Y-119420000D03*
X48800000Y-119420000D03*
X48800000Y-122620000D03*
%TD*%
%TO.C,D149*%
X85200000Y-106620000D03*
X85200000Y-103420000D03*
X80800000Y-103420000D03*
X80800000Y-106620000D03*
%TD*%
%TO.C,D80*%
X173200000Y-66620000D03*
X173200000Y-63420000D03*
X168800000Y-63420000D03*
X168800000Y-66620000D03*
%TD*%
%TO.C,D2*%
X61200000Y-34620000D03*
X61200000Y-31420000D03*
X56800000Y-31420000D03*
X56800000Y-34620000D03*
%TD*%
%TO.C,D97*%
X53200000Y-82620000D03*
X53200000Y-79420000D03*
X48800000Y-79420000D03*
X48800000Y-82620000D03*
%TD*%
D10*
%TO.C,C155*%
X131862500Y-109000000D03*
X130137500Y-109000000D03*
%TD*%
%TO.C,C1*%
X51862500Y-37000000D03*
X50137500Y-37000000D03*
%TD*%
D11*
%TO.C,D137*%
X117200000Y-98620000D03*
X117200000Y-95420000D03*
X112800000Y-95420000D03*
X112800000Y-98620000D03*
%TD*%
D10*
%TO.C,C105*%
X115862500Y-85000000D03*
X114137500Y-85000000D03*
%TD*%
D11*
%TO.C,D16*%
X173200000Y-34620000D03*
X173200000Y-31420000D03*
X168800000Y-31420000D03*
X168800000Y-34620000D03*
%TD*%
D10*
%TO.C,C255*%
X163862500Y-157000000D03*
X162137500Y-157000000D03*
%TD*%
D11*
%TO.C,D209*%
X53200000Y-138620000D03*
X53200000Y-135420000D03*
X48800000Y-135420000D03*
X48800000Y-138620000D03*
%TD*%
%TO.C,D242*%
X61200000Y-154620000D03*
X61200000Y-151420000D03*
X56800000Y-151420000D03*
X56800000Y-154620000D03*
%TD*%
D10*
%TO.C,C237*%
X147862500Y-149000000D03*
X146137500Y-149000000D03*
%TD*%
D11*
%TO.C,D62*%
X157200000Y-58620000D03*
X157200000Y-55420000D03*
X152800000Y-55420000D03*
X152800000Y-58620000D03*
%TD*%
D10*
%TO.C,C104*%
X107862500Y-85000000D03*
X106137500Y-85000000D03*
%TD*%
D11*
%TO.C,D251*%
X133200000Y-154620000D03*
X133200000Y-151420000D03*
X128800000Y-151420000D03*
X128800000Y-154620000D03*
%TD*%
D10*
%TO.C,C85*%
X83862500Y-77000000D03*
X82137500Y-77000000D03*
%TD*%
%TO.C,C30*%
X155862500Y-45000000D03*
X154137500Y-45000000D03*
%TD*%
%TO.C,C27*%
X131862500Y-45000000D03*
X130137500Y-45000000D03*
%TD*%
D11*
%TO.C,D65*%
X53200000Y-66620000D03*
X53200000Y-63420000D03*
X48800000Y-63420000D03*
X48800000Y-66620000D03*
%TD*%
%TO.C,D30*%
X157200000Y-42620000D03*
X157200000Y-39420000D03*
X152800000Y-39420000D03*
X152800000Y-42620000D03*
%TD*%
%TO.C,D33*%
X53200000Y-50620000D03*
X53200000Y-47420000D03*
X48800000Y-47420000D03*
X48800000Y-50620000D03*
%TD*%
D10*
%TO.C,C194*%
X59917500Y-133604000D03*
X58192500Y-133604000D03*
%TD*%
D11*
%TO.C,D102*%
X93200000Y-82620000D03*
X93200000Y-79420000D03*
X88800000Y-79420000D03*
X88800000Y-82620000D03*
%TD*%
D10*
%TO.C,C147*%
X67862500Y-109000000D03*
X66137500Y-109000000D03*
%TD*%
D11*
%TO.C,D13*%
X149200000Y-34620000D03*
X149200000Y-31420000D03*
X144800000Y-31420000D03*
X144800000Y-34620000D03*
%TD*%
D10*
%TO.C,C18*%
X59862500Y-45000000D03*
X58137500Y-45000000D03*
%TD*%
%TO.C,C66*%
X59862500Y-69000000D03*
X58137500Y-69000000D03*
%TD*%
D11*
%TO.C,D60*%
X141200000Y-58620000D03*
X141200000Y-55420000D03*
X136800000Y-55420000D03*
X136800000Y-58620000D03*
%TD*%
D10*
%TO.C,C170*%
X123862500Y-117000000D03*
X122137500Y-117000000D03*
%TD*%
%TO.C,C29*%
X147862500Y-45000000D03*
X146137500Y-45000000D03*
%TD*%
%TO.C,C62*%
X155862500Y-61000000D03*
X154137500Y-61000000D03*
%TD*%
%TO.C,C222*%
X155862500Y-141000000D03*
X154137500Y-141000000D03*
%TD*%
%TO.C,C7*%
X99862500Y-37000000D03*
X98137500Y-37000000D03*
%TD*%
%TO.C,C198*%
X91862500Y-133000000D03*
X90137500Y-133000000D03*
%TD*%
%TO.C,C240*%
X171862500Y-149000000D03*
X170137500Y-149000000D03*
%TD*%
D11*
%TO.C,D3*%
X69200000Y-34620000D03*
X69200000Y-31420000D03*
X64800000Y-31420000D03*
X64800000Y-34620000D03*
%TD*%
%TO.C,D120*%
X109200000Y-90620000D03*
X109200000Y-87420000D03*
X104800000Y-87420000D03*
X104800000Y-90620000D03*
%TD*%
%TO.C,D255*%
X165200000Y-154620000D03*
X165200000Y-151420000D03*
X160800000Y-151420000D03*
X160800000Y-154620000D03*
%TD*%
%TO.C,D175*%
X165200000Y-114620000D03*
X165200000Y-111420000D03*
X160800000Y-111420000D03*
X160800000Y-114620000D03*
%TD*%
D10*
%TO.C,C179*%
X68934500Y-125000000D03*
X67209500Y-125000000D03*
%TD*%
%TO.C,C113*%
X51862500Y-93000000D03*
X50137500Y-93000000D03*
%TD*%
D11*
%TO.C,D229*%
X85200000Y-146620000D03*
X85200000Y-143420000D03*
X80800000Y-143420000D03*
X80800000Y-146620000D03*
%TD*%
D10*
%TO.C,C175*%
X163862500Y-117000000D03*
X162137500Y-117000000D03*
%TD*%
D11*
%TO.C,D171*%
X133200000Y-114620000D03*
X133200000Y-111420000D03*
X128800000Y-111420000D03*
X128800000Y-114620000D03*
%TD*%
%TO.C,D100*%
X77200000Y-82620000D03*
X77200000Y-79420000D03*
X72800000Y-79420000D03*
X72800000Y-82620000D03*
%TD*%
D10*
%TO.C,C145*%
X51862500Y-109000000D03*
X50137500Y-109000000D03*
%TD*%
D11*
%TO.C,D125*%
X149200000Y-90620000D03*
X149200000Y-87420000D03*
X144800000Y-87420000D03*
X144800000Y-90620000D03*
%TD*%
D10*
%TO.C,C232*%
X107862500Y-149000000D03*
X106137500Y-149000000D03*
%TD*%
D11*
%TO.C,D123*%
X133200000Y-90620000D03*
X133200000Y-87420000D03*
X128800000Y-87420000D03*
X128800000Y-90620000D03*
%TD*%
%TO.C,D139*%
X133200000Y-98620000D03*
X133200000Y-95420000D03*
X128800000Y-95420000D03*
X128800000Y-98620000D03*
%TD*%
D10*
%TO.C,C247*%
X99862500Y-157000000D03*
X98137500Y-157000000D03*
%TD*%
D11*
%TO.C,D121*%
X117200000Y-90620000D03*
X117200000Y-87420000D03*
X112800000Y-87420000D03*
X112800000Y-90620000D03*
%TD*%
%TO.C,D56*%
X109200000Y-58620000D03*
X109200000Y-55420000D03*
X104800000Y-55420000D03*
X104800000Y-58620000D03*
%TD*%
%TO.C,D193*%
X53200000Y-130620000D03*
X53200000Y-127420000D03*
X48800000Y-127420000D03*
X48800000Y-130620000D03*
%TD*%
%TO.C,D68*%
X77200000Y-66620000D03*
X77200000Y-63420000D03*
X72800000Y-63420000D03*
X72800000Y-66620000D03*
%TD*%
%TO.C,D55*%
X101200000Y-58620000D03*
X101200000Y-55420000D03*
X96800000Y-55420000D03*
X96800000Y-58620000D03*
%TD*%
%TO.C,D52*%
X77200000Y-58620000D03*
X77200000Y-55420000D03*
X72800000Y-55420000D03*
X72800000Y-58620000D03*
%TD*%
D10*
%TO.C,C47*%
X163862500Y-53000000D03*
X162137500Y-53000000D03*
%TD*%
%TO.C,C239*%
X163862500Y-149000000D03*
X162137500Y-149000000D03*
%TD*%
%TO.C,C214*%
X91862500Y-141000000D03*
X90137500Y-141000000D03*
%TD*%
D11*
%TO.C,D184*%
X109200000Y-122620000D03*
X109200000Y-119420000D03*
X104800000Y-119420000D03*
X104800000Y-122620000D03*
%TD*%
D10*
%TO.C,C139*%
X131862500Y-101000000D03*
X130137500Y-101000000D03*
%TD*%
%TO.C,C15*%
X163862500Y-37000000D03*
X162137500Y-37000000D03*
%TD*%
D11*
%TO.C,D230*%
X93200000Y-146620000D03*
X93200000Y-143420000D03*
X88800000Y-143420000D03*
X88800000Y-146620000D03*
%TD*%
%TO.C,D78*%
X157200000Y-66620000D03*
X157200000Y-63420000D03*
X152800000Y-63420000D03*
X152800000Y-66620000D03*
%TD*%
D10*
%TO.C,C234*%
X123862500Y-149000000D03*
X122137500Y-149000000D03*
%TD*%
D11*
%TO.C,D240*%
X173200000Y-146620000D03*
X173200000Y-143420000D03*
X168800000Y-143420000D03*
X168800000Y-146620000D03*
%TD*%
D10*
%TO.C,C17*%
X51862500Y-45000000D03*
X50137500Y-45000000D03*
%TD*%
D11*
%TO.C,D141*%
X149200000Y-98620000D03*
X149200000Y-95420000D03*
X144800000Y-95420000D03*
X144800000Y-98620000D03*
%TD*%
D10*
%TO.C,C111*%
X163862500Y-85000000D03*
X162137500Y-85000000D03*
%TD*%
D11*
%TO.C,D244*%
X77200000Y-154620000D03*
X77200000Y-151420000D03*
X72800000Y-151420000D03*
X72800000Y-154620000D03*
%TD*%
D10*
%TO.C,C75*%
X131862500Y-69000000D03*
X130137500Y-69000000D03*
%TD*%
%TO.C,C84*%
X75862500Y-77000000D03*
X74137500Y-77000000D03*
%TD*%
D11*
%TO.C,D161*%
X53200000Y-114620000D03*
X53200000Y-111420000D03*
X48800000Y-111420000D03*
X48800000Y-114620000D03*
%TD*%
%TO.C,D199*%
X101200000Y-130620000D03*
X101200000Y-127420000D03*
X96800000Y-127420000D03*
X96800000Y-130620000D03*
%TD*%
D10*
%TO.C,C94*%
X155862500Y-77000000D03*
X154137500Y-77000000D03*
%TD*%
%TO.C,C68*%
X75862500Y-69000000D03*
X74137500Y-69000000D03*
%TD*%
%TO.C,C216*%
X107862500Y-141000000D03*
X106137500Y-141000000D03*
%TD*%
%TO.C,C197*%
X83862500Y-133000000D03*
X82137500Y-133000000D03*
%TD*%
D11*
%TO.C,D94*%
X157200000Y-74620000D03*
X157200000Y-71420000D03*
X152800000Y-71420000D03*
X152800000Y-74620000D03*
%TD*%
D10*
%TO.C,C159*%
X163862500Y-109000000D03*
X162137500Y-109000000D03*
%TD*%
D11*
%TO.C,D191*%
X165200000Y-122620000D03*
X165200000Y-119420000D03*
X160800000Y-119420000D03*
X160800000Y-122620000D03*
%TD*%
%TO.C,D101*%
X85200000Y-82620000D03*
X85200000Y-79420000D03*
X80800000Y-79420000D03*
X80800000Y-82620000D03*
%TD*%
D10*
%TO.C,C215*%
X99862500Y-141000000D03*
X98137500Y-141000000D03*
%TD*%
%TO.C,C202*%
X123862500Y-133000000D03*
X122137500Y-133000000D03*
%TD*%
%TO.C,C119*%
X99862500Y-93000000D03*
X98137500Y-93000000D03*
%TD*%
%TO.C,C187*%
X131862500Y-125000000D03*
X130137500Y-125000000D03*
%TD*%
%TO.C,C40*%
X107862500Y-53000000D03*
X106137500Y-53000000D03*
%TD*%
D11*
%TO.C,D173*%
X149200000Y-114620000D03*
X149200000Y-111420000D03*
X144800000Y-111420000D03*
X144800000Y-114620000D03*
%TD*%
D10*
%TO.C,C151*%
X99862500Y-109000000D03*
X98137500Y-109000000D03*
%TD*%
D11*
%TO.C,D69*%
X85200000Y-66620000D03*
X85200000Y-63420000D03*
X80800000Y-63420000D03*
X80800000Y-66620000D03*
%TD*%
%TO.C,D180*%
X77200000Y-122620000D03*
X77200000Y-119420000D03*
X72800000Y-119420000D03*
X72800000Y-122620000D03*
%TD*%
%TO.C,D211*%
X69200000Y-138620000D03*
X69200000Y-135420000D03*
X64800000Y-135420000D03*
X64800000Y-138620000D03*
%TD*%
D10*
%TO.C,C238*%
X155862500Y-149000000D03*
X154137500Y-149000000D03*
%TD*%
%TO.C,C28*%
X139862500Y-45000000D03*
X138137500Y-45000000D03*
%TD*%
%TO.C,C172*%
X139862500Y-117000000D03*
X138137500Y-117000000D03*
%TD*%
D11*
%TO.C,D153*%
X117200000Y-106620000D03*
X117200000Y-103420000D03*
X112800000Y-103420000D03*
X112800000Y-106620000D03*
%TD*%
%TO.C,D216*%
X109200000Y-138620000D03*
X109200000Y-135420000D03*
X104800000Y-135420000D03*
X104800000Y-138620000D03*
%TD*%
D10*
%TO.C,C120*%
X107862500Y-93000000D03*
X106137500Y-93000000D03*
%TD*%
D11*
%TO.C,D66*%
X61200000Y-66620000D03*
X61200000Y-63420000D03*
X56800000Y-63420000D03*
X56800000Y-66620000D03*
%TD*%
%TO.C,D1*%
X53200000Y-34620000D03*
X53200000Y-31420000D03*
X48800000Y-31420000D03*
X48800000Y-34620000D03*
%TD*%
D10*
%TO.C,C243*%
X67862500Y-157000000D03*
X66137500Y-157000000D03*
%TD*%
D11*
%TO.C,D196*%
X77200000Y-130620000D03*
X77200000Y-127420000D03*
X72800000Y-127420000D03*
X72800000Y-130620000D03*
%TD*%
%TO.C,D70*%
X93200000Y-66620000D03*
X93200000Y-63420000D03*
X88800000Y-63420000D03*
X88800000Y-66620000D03*
%TD*%
%TO.C,D23*%
X101200000Y-42620000D03*
X101200000Y-39420000D03*
X96800000Y-39420000D03*
X96800000Y-42620000D03*
%TD*%
%TO.C,D19*%
X69200000Y-42620000D03*
X69200000Y-39420000D03*
X64800000Y-39420000D03*
X64800000Y-42620000D03*
%TD*%
D10*
%TO.C,C190*%
X155862500Y-125000000D03*
X154137500Y-125000000D03*
%TD*%
%TO.C,C63*%
X163862500Y-61000000D03*
X162137500Y-61000000D03*
%TD*%
D11*
%TO.C,D192*%
X173200000Y-122620000D03*
X173200000Y-119420000D03*
X168800000Y-119420000D03*
X168800000Y-122620000D03*
%TD*%
D10*
%TO.C,C77*%
X147862500Y-69000000D03*
X146137500Y-69000000D03*
%TD*%
D11*
%TO.C,D91*%
X133200000Y-74620000D03*
X133200000Y-71420000D03*
X128800000Y-71420000D03*
X128800000Y-74620000D03*
%TD*%
%TO.C,D162*%
X61200000Y-114620000D03*
X61200000Y-111420000D03*
X56800000Y-111420000D03*
X56800000Y-114620000D03*
%TD*%
%TO.C,D239*%
X165200000Y-146620000D03*
X165200000Y-143420000D03*
X160800000Y-143420000D03*
X160800000Y-146620000D03*
%TD*%
D10*
%TO.C,C164*%
X75862500Y-117000000D03*
X74137500Y-117000000D03*
%TD*%
%TO.C,C70*%
X91862500Y-69000000D03*
X90137500Y-69000000D03*
%TD*%
D11*
%TO.C,D58*%
X125200000Y-58620000D03*
X125200000Y-55420000D03*
X120800000Y-55420000D03*
X120800000Y-58620000D03*
%TD*%
%TO.C,D228*%
X77200000Y-146620000D03*
X77200000Y-143420000D03*
X72800000Y-143420000D03*
X72800000Y-146620000D03*
%TD*%
%TO.C,D113*%
X53200000Y-90620000D03*
X53200000Y-87420000D03*
X48800000Y-87420000D03*
X48800000Y-90620000D03*
%TD*%
%TO.C,D238*%
X157200000Y-146620000D03*
X157200000Y-143420000D03*
X152800000Y-143420000D03*
X152800000Y-146620000D03*
%TD*%
D10*
%TO.C,C41*%
X115862500Y-53000000D03*
X114137500Y-53000000D03*
%TD*%
%TO.C,C200*%
X107862500Y-133000000D03*
X106137500Y-133000000D03*
%TD*%
D11*
%TO.C,D92*%
X141200000Y-74620000D03*
X141200000Y-71420000D03*
X136800000Y-71420000D03*
X136800000Y-74620000D03*
%TD*%
D10*
%TO.C,C251*%
X131862500Y-157000000D03*
X130137500Y-157000000D03*
%TD*%
D11*
%TO.C,D104*%
X109200000Y-82620000D03*
X109200000Y-79420000D03*
X104800000Y-79420000D03*
X104800000Y-82620000D03*
%TD*%
D10*
%TO.C,C201*%
X115862500Y-133000000D03*
X114137500Y-133000000D03*
%TD*%
%TO.C,C149*%
X83862500Y-109000000D03*
X82137500Y-109000000D03*
%TD*%
D11*
%TO.C,D168*%
X109200000Y-114620000D03*
X109200000Y-111420000D03*
X104800000Y-111420000D03*
X104800000Y-114620000D03*
%TD*%
D10*
%TO.C,C163*%
X67862500Y-117000000D03*
X66137500Y-117000000D03*
%TD*%
D11*
%TO.C,D157*%
X149200000Y-106620000D03*
X149200000Y-103420000D03*
X144800000Y-103420000D03*
X144800000Y-106620000D03*
%TD*%
D10*
%TO.C,C248*%
X107862500Y-157000000D03*
X106137500Y-157000000D03*
%TD*%
%TO.C,C203*%
X131862500Y-133000000D03*
X130137500Y-133000000D03*
%TD*%
%TO.C,C233*%
X115862500Y-149000000D03*
X114137500Y-149000000D03*
%TD*%
D11*
%TO.C,D210*%
X61200000Y-138620000D03*
X61200000Y-135420000D03*
X56800000Y-135420000D03*
X56800000Y-138620000D03*
%TD*%
%TO.C,D147*%
X69200000Y-106620000D03*
X69200000Y-103420000D03*
X64800000Y-103420000D03*
X64800000Y-106620000D03*
%TD*%
D10*
%TO.C,C173*%
X147862500Y-117000000D03*
X146137500Y-117000000D03*
%TD*%
%TO.C,C50*%
X59862500Y-61000000D03*
X58137500Y-61000000D03*
%TD*%
D11*
%TO.C,D21*%
X85200000Y-42620000D03*
X85200000Y-39420000D03*
X80800000Y-39420000D03*
X80800000Y-42620000D03*
%TD*%
%TO.C,D218*%
X125200000Y-138620000D03*
X125200000Y-135420000D03*
X120800000Y-135420000D03*
X120800000Y-138620000D03*
%TD*%
D10*
%TO.C,C52*%
X75862500Y-61000000D03*
X74137500Y-61000000D03*
%TD*%
%TO.C,C107*%
X131862500Y-85000000D03*
X130137500Y-85000000D03*
%TD*%
%TO.C,C72*%
X107862500Y-69000000D03*
X106137500Y-69000000D03*
%TD*%
%TO.C,C64*%
X171862500Y-61000000D03*
X170137500Y-61000000D03*
%TD*%
D11*
%TO.C,D150*%
X93200000Y-106620000D03*
X93200000Y-103420000D03*
X88800000Y-103420000D03*
X88800000Y-106620000D03*
%TD*%
D10*
%TO.C,C92*%
X139862500Y-77000000D03*
X138137500Y-77000000D03*
%TD*%
D11*
%TO.C,D20*%
X77200000Y-42620000D03*
X77200000Y-39420000D03*
X72800000Y-39420000D03*
X72800000Y-42620000D03*
%TD*%
%TO.C,D205*%
X149200000Y-130620000D03*
X149200000Y-127420000D03*
X144800000Y-127420000D03*
X144800000Y-130620000D03*
%TD*%
%TO.C,D206*%
X157200000Y-130620000D03*
X157200000Y-127420000D03*
X152800000Y-127420000D03*
X152800000Y-130620000D03*
%TD*%
D10*
%TO.C,C43*%
X131862500Y-53000000D03*
X130137500Y-53000000D03*
%TD*%
%TO.C,C136*%
X107862500Y-101000000D03*
X106137500Y-101000000D03*
%TD*%
D11*
%TO.C,D241*%
X53200000Y-154620000D03*
X53200000Y-151420000D03*
X48800000Y-151420000D03*
X48800000Y-154620000D03*
%TD*%
D10*
%TO.C,C90*%
X123862500Y-77000000D03*
X122137500Y-77000000D03*
%TD*%
D11*
%TO.C,D164*%
X77200000Y-114620000D03*
X77200000Y-111420000D03*
X72800000Y-111420000D03*
X72800000Y-114620000D03*
%TD*%
%TO.C,D12*%
X141200000Y-34620000D03*
X141200000Y-31420000D03*
X136800000Y-31420000D03*
X136800000Y-34620000D03*
%TD*%
%TO.C,D37*%
X85200000Y-50620000D03*
X85200000Y-47420000D03*
X80800000Y-47420000D03*
X80800000Y-50620000D03*
%TD*%
D10*
%TO.C,C132*%
X75862500Y-101000000D03*
X74137500Y-101000000D03*
%TD*%
%TO.C,C65*%
X51862500Y-69000000D03*
X50137500Y-69000000D03*
%TD*%
%TO.C,C110*%
X155862500Y-85000000D03*
X154137500Y-85000000D03*
%TD*%
%TO.C,C220*%
X139862500Y-141000000D03*
X138137500Y-141000000D03*
%TD*%
%TO.C,C59*%
X131862500Y-61000000D03*
X130137500Y-61000000D03*
%TD*%
D11*
%TO.C,D243*%
X69200000Y-154620000D03*
X69200000Y-151420000D03*
X64800000Y-151420000D03*
X64800000Y-154620000D03*
%TD*%
%TO.C,D236*%
X141200000Y-146620000D03*
X141200000Y-143420000D03*
X136800000Y-143420000D03*
X136800000Y-146620000D03*
%TD*%
%TO.C,D225*%
X53200000Y-146620000D03*
X53200000Y-143420000D03*
X48800000Y-143420000D03*
X48800000Y-146620000D03*
%TD*%
%TO.C,D127*%
X165200000Y-90620000D03*
X165200000Y-87420000D03*
X160800000Y-87420000D03*
X160800000Y-90620000D03*
%TD*%
%TO.C,D38*%
X93200000Y-50620000D03*
X93200000Y-47420000D03*
X88800000Y-47420000D03*
X88800000Y-50620000D03*
%TD*%
D10*
%TO.C,C24*%
X107862500Y-45000000D03*
X106137500Y-45000000D03*
%TD*%
%TO.C,C162*%
X59862500Y-117000000D03*
X58137500Y-117000000D03*
%TD*%
%TO.C,C133*%
X83862500Y-101000000D03*
X82137500Y-101000000D03*
%TD*%
%TO.C,C95*%
X163862500Y-77000000D03*
X162137500Y-77000000D03*
%TD*%
%TO.C,C39*%
X99862500Y-53000000D03*
X98137500Y-53000000D03*
%TD*%
%TO.C,C76*%
X139862500Y-69000000D03*
X138137500Y-69000000D03*
%TD*%
%TO.C,C156*%
X139862500Y-109000000D03*
X138137500Y-109000000D03*
%TD*%
D11*
%TO.C,D155*%
X133200000Y-106620000D03*
X133200000Y-103420000D03*
X128800000Y-103420000D03*
X128800000Y-106620000D03*
%TD*%
%TO.C,D9*%
X117200000Y-34620000D03*
X117200000Y-31420000D03*
X112800000Y-31420000D03*
X112800000Y-34620000D03*
%TD*%
%TO.C,D256*%
X173200000Y-154620000D03*
X173200000Y-151420000D03*
X168800000Y-151420000D03*
X168800000Y-154620000D03*
%TD*%
%TO.C,D159*%
X165200000Y-106620000D03*
X165200000Y-103420000D03*
X160800000Y-103420000D03*
X160800000Y-106620000D03*
%TD*%
%TO.C,D118*%
X93200000Y-90620000D03*
X93200000Y-87420000D03*
X88800000Y-87420000D03*
X88800000Y-90620000D03*
%TD*%
%TO.C,D93*%
X149200000Y-74620000D03*
X149200000Y-71420000D03*
X144800000Y-71420000D03*
X144800000Y-74620000D03*
%TD*%
%TO.C,D143*%
X165200000Y-98620000D03*
X165200000Y-95420000D03*
X160800000Y-95420000D03*
X160800000Y-98620000D03*
%TD*%
D10*
%TO.C,C241*%
X51862500Y-157000000D03*
X50137500Y-157000000D03*
%TD*%
%TO.C,C10*%
X123862500Y-37000000D03*
X122137500Y-37000000D03*
%TD*%
%TO.C,C45*%
X147862500Y-53000000D03*
X146137500Y-53000000D03*
%TD*%
%TO.C,C116*%
X75862500Y-93000000D03*
X74137500Y-93000000D03*
%TD*%
D11*
%TO.C,D128*%
X173200000Y-90620000D03*
X173200000Y-87420000D03*
X168800000Y-87420000D03*
X168800000Y-90620000D03*
%TD*%
D10*
%TO.C,C152*%
X107862500Y-109000000D03*
X106137500Y-109000000D03*
%TD*%
D11*
%TO.C,D42*%
X125200000Y-50620000D03*
X125200000Y-47420000D03*
X120800000Y-47420000D03*
X120800000Y-50620000D03*
%TD*%
D10*
%TO.C,C230*%
X91862500Y-149000000D03*
X90137500Y-149000000D03*
%TD*%
D11*
%TO.C,D28*%
X141200000Y-42620000D03*
X141200000Y-39420000D03*
X136800000Y-39420000D03*
X136800000Y-42620000D03*
%TD*%
%TO.C,D165*%
X85200000Y-114620000D03*
X85200000Y-111420000D03*
X80800000Y-111420000D03*
X80800000Y-114620000D03*
%TD*%
%TO.C,D130*%
X61200000Y-98620000D03*
X61200000Y-95420000D03*
X56800000Y-95420000D03*
X56800000Y-98620000D03*
%TD*%
D10*
%TO.C,C138*%
X123862500Y-101000000D03*
X122137500Y-101000000D03*
%TD*%
D11*
%TO.C,D41*%
X117200000Y-50620000D03*
X117200000Y-47420000D03*
X112800000Y-47420000D03*
X112800000Y-50620000D03*
%TD*%
D10*
%TO.C,C207*%
X163862500Y-133000000D03*
X162137500Y-133000000D03*
%TD*%
D11*
%TO.C,D14*%
X157200000Y-34620000D03*
X157200000Y-31420000D03*
X152800000Y-31420000D03*
X152800000Y-34620000D03*
%TD*%
D10*
%TO.C,C236*%
X139862500Y-149000000D03*
X138137500Y-149000000D03*
%TD*%
%TO.C,C83*%
X67862500Y-77000000D03*
X66137500Y-77000000D03*
%TD*%
%TO.C,C148*%
X75862500Y-109000000D03*
X74137500Y-109000000D03*
%TD*%
D11*
%TO.C,D74*%
X125200000Y-66620000D03*
X125200000Y-63420000D03*
X120800000Y-63420000D03*
X120800000Y-66620000D03*
%TD*%
%TO.C,D197*%
X85200000Y-130620000D03*
X85200000Y-127420000D03*
X80800000Y-127420000D03*
X80800000Y-130620000D03*
%TD*%
D10*
%TO.C,C93*%
X147862500Y-77000000D03*
X146137500Y-77000000D03*
%TD*%
%TO.C,C167*%
X99862500Y-117000000D03*
X98137500Y-117000000D03*
%TD*%
D11*
%TO.C,D71*%
X101200000Y-66620000D03*
X101200000Y-63420000D03*
X96800000Y-63420000D03*
X96800000Y-66620000D03*
%TD*%
D10*
%TO.C,C51*%
X67862500Y-61000000D03*
X66137500Y-61000000D03*
%TD*%
D11*
%TO.C,D105*%
X117200000Y-82620000D03*
X117200000Y-79420000D03*
X112800000Y-79420000D03*
X112800000Y-82620000D03*
%TD*%
%TO.C,D167*%
X101200000Y-114620000D03*
X101200000Y-111420000D03*
X96800000Y-111420000D03*
X96800000Y-114620000D03*
%TD*%
%TO.C,D36*%
X77200000Y-50620000D03*
X77200000Y-47420000D03*
X72800000Y-47420000D03*
X72800000Y-50620000D03*
%TD*%
D10*
%TO.C,C97*%
X51862500Y-85000000D03*
X50137500Y-85000000D03*
%TD*%
%TO.C,C48*%
X171862500Y-53000000D03*
X170137500Y-53000000D03*
%TD*%
%TO.C,C88*%
X107862500Y-77000000D03*
X106137500Y-77000000D03*
%TD*%
D11*
%TO.C,D204*%
X141200000Y-130620000D03*
X141200000Y-127420000D03*
X136800000Y-127420000D03*
X136800000Y-130620000D03*
%TD*%
%TO.C,D207*%
X165200000Y-130620000D03*
X165200000Y-127420000D03*
X160800000Y-127420000D03*
X160800000Y-130620000D03*
%TD*%
D10*
%TO.C,C168*%
X107862500Y-117000000D03*
X106137500Y-117000000D03*
%TD*%
D11*
%TO.C,D31*%
X165200000Y-42620000D03*
X165200000Y-39420000D03*
X160800000Y-39420000D03*
X160800000Y-42620000D03*
%TD*%
D10*
%TO.C,C144*%
X171862500Y-101000000D03*
X170137500Y-101000000D03*
%TD*%
%TO.C,C212*%
X75862500Y-141000000D03*
X74137500Y-141000000D03*
%TD*%
D11*
%TO.C,D221*%
X149200000Y-138620000D03*
X149200000Y-135420000D03*
X144800000Y-135420000D03*
X144800000Y-138620000D03*
%TD*%
D10*
%TO.C,C128*%
X171862500Y-93000000D03*
X170137500Y-93000000D03*
%TD*%
%TO.C,C122*%
X123862500Y-93000000D03*
X122137500Y-93000000D03*
%TD*%
%TO.C,C256*%
X171862500Y-157000000D03*
X170137500Y-157000000D03*
%TD*%
D11*
%TO.C,D7*%
X101200000Y-34620000D03*
X101200000Y-31420000D03*
X96800000Y-31420000D03*
X96800000Y-34620000D03*
%TD*%
D10*
%TO.C,C180*%
X75862500Y-125000000D03*
X74137500Y-125000000D03*
%TD*%
%TO.C,C224*%
X171862500Y-141000000D03*
X170137500Y-141000000D03*
%TD*%
D11*
%TO.C,D119*%
X101200000Y-90620000D03*
X101200000Y-87420000D03*
X96800000Y-87420000D03*
X96800000Y-90620000D03*
%TD*%
%TO.C,D11*%
X133200000Y-34620000D03*
X133200000Y-31420000D03*
X128800000Y-31420000D03*
X128800000Y-34620000D03*
%TD*%
D10*
%TO.C,C219*%
X131862500Y-141000000D03*
X130137500Y-141000000D03*
%TD*%
%TO.C,C19*%
X67862500Y-45000000D03*
X66137500Y-45000000D03*
%TD*%
D11*
%TO.C,D85*%
X85200000Y-74620000D03*
X85200000Y-71420000D03*
X80800000Y-71420000D03*
X80800000Y-74620000D03*
%TD*%
D10*
%TO.C,C73*%
X115862500Y-69000000D03*
X114137500Y-69000000D03*
%TD*%
%TO.C,C252*%
X139862500Y-157000000D03*
X138137500Y-157000000D03*
%TD*%
%TO.C,C205*%
X147862500Y-133000000D03*
X146137500Y-133000000D03*
%TD*%
%TO.C,C130*%
X59862500Y-101000000D03*
X58137500Y-101000000D03*
%TD*%
D11*
%TO.C,D76*%
X141200000Y-66620000D03*
X141200000Y-63420000D03*
X136800000Y-63420000D03*
X136800000Y-66620000D03*
%TD*%
%TO.C,D32*%
X173200000Y-42620000D03*
X173200000Y-39420000D03*
X168800000Y-39420000D03*
X168800000Y-42620000D03*
%TD*%
D10*
%TO.C,C35*%
X67862500Y-53000000D03*
X66137500Y-53000000D03*
%TD*%
D11*
%TO.C,D4*%
X77200000Y-34620000D03*
X77200000Y-31420000D03*
X72800000Y-31420000D03*
X72800000Y-34620000D03*
%TD*%
D10*
%TO.C,C188*%
X139862500Y-125000000D03*
X138137500Y-125000000D03*
%TD*%
D11*
%TO.C,D89*%
X117200000Y-74620000D03*
X117200000Y-71420000D03*
X112800000Y-71420000D03*
X112800000Y-74620000D03*
%TD*%
%TO.C,D53*%
X85200000Y-58620000D03*
X85200000Y-55420000D03*
X80800000Y-55420000D03*
X80800000Y-58620000D03*
%TD*%
D10*
%TO.C,C208*%
X171862500Y-133000000D03*
X170137500Y-133000000D03*
%TD*%
%TO.C,C37*%
X83862500Y-53000000D03*
X82137500Y-53000000D03*
%TD*%
%TO.C,C118*%
X91862500Y-93000000D03*
X90137500Y-93000000D03*
%TD*%
D11*
%TO.C,D67*%
X69200000Y-66620000D03*
X69200000Y-63420000D03*
X64800000Y-63420000D03*
X64800000Y-66620000D03*
%TD*%
D10*
%TO.C,C143*%
X163862500Y-101000000D03*
X162137500Y-101000000D03*
%TD*%
%TO.C,C81*%
X51862500Y-77000000D03*
X50137500Y-77000000D03*
%TD*%
D11*
%TO.C,D212*%
X77200000Y-138620000D03*
X77200000Y-135420000D03*
X72800000Y-135420000D03*
X72800000Y-138620000D03*
%TD*%
D10*
%TO.C,C103*%
X99862500Y-85000000D03*
X98137500Y-85000000D03*
%TD*%
D11*
%TO.C,D202*%
X125200000Y-130620000D03*
X125200000Y-127420000D03*
X120800000Y-127420000D03*
X120800000Y-130620000D03*
%TD*%
D10*
%TO.C,C89*%
X115862500Y-77000000D03*
X114137500Y-77000000D03*
%TD*%
%TO.C,C182*%
X91862500Y-125000000D03*
X90137500Y-125000000D03*
%TD*%
D11*
%TO.C,D145*%
X53200000Y-106620000D03*
X53200000Y-103420000D03*
X48800000Y-103420000D03*
X48800000Y-106620000D03*
%TD*%
%TO.C,D116*%
X77200000Y-90620000D03*
X77200000Y-87420000D03*
X72800000Y-87420000D03*
X72800000Y-90620000D03*
%TD*%
%TO.C,D40*%
X109200000Y-50620000D03*
X109200000Y-47420000D03*
X104800000Y-47420000D03*
X104800000Y-50620000D03*
%TD*%
%TO.C,D43*%
X133200000Y-50620000D03*
X133200000Y-47420000D03*
X128800000Y-47420000D03*
X128800000Y-50620000D03*
%TD*%
%TO.C,D63*%
X165200000Y-58620000D03*
X165200000Y-55420000D03*
X160800000Y-55420000D03*
X160800000Y-58620000D03*
%TD*%
D10*
%TO.C,C157*%
X147862500Y-109000000D03*
X146137500Y-109000000D03*
%TD*%
D11*
%TO.C,D163*%
X69200000Y-114620000D03*
X69200000Y-111420000D03*
X64800000Y-111420000D03*
X64800000Y-114620000D03*
%TD*%
D10*
%TO.C,C123*%
X131862500Y-93000000D03*
X130137500Y-93000000D03*
%TD*%
%TO.C,C12*%
X139862500Y-37000000D03*
X138137500Y-37000000D03*
%TD*%
D11*
%TO.C,D25*%
X117200000Y-42620000D03*
X117200000Y-39420000D03*
X112800000Y-39420000D03*
X112800000Y-42620000D03*
%TD*%
%TO.C,D201*%
X117200000Y-130620000D03*
X117200000Y-127420000D03*
X112800000Y-127420000D03*
X112800000Y-130620000D03*
%TD*%
D10*
%TO.C,C195*%
X67862500Y-133000000D03*
X66137500Y-133000000D03*
%TD*%
D12*
%TO.C,C196*%
X78994000Y-130656500D03*
X78994000Y-128931500D03*
%TD*%
D10*
%TO.C,C227*%
X67862500Y-149000000D03*
X66137500Y-149000000D03*
%TD*%
D11*
%TO.C,D186*%
X125200000Y-122620000D03*
X125200000Y-119420000D03*
X120800000Y-119420000D03*
X120800000Y-122620000D03*
%TD*%
%TO.C,D249*%
X117200000Y-154620000D03*
X117200000Y-151420000D03*
X112800000Y-151420000D03*
X112800000Y-154620000D03*
%TD*%
%TO.C,D106*%
X125200000Y-82620000D03*
X125200000Y-79420000D03*
X120800000Y-79420000D03*
X120800000Y-82620000D03*
%TD*%
%TO.C,D253*%
X149200000Y-154620000D03*
X149200000Y-151420000D03*
X144800000Y-151420000D03*
X144800000Y-154620000D03*
%TD*%
D10*
%TO.C,C246*%
X91862500Y-157000000D03*
X90137500Y-157000000D03*
%TD*%
D11*
%TO.C,D82*%
X61200000Y-74620000D03*
X61200000Y-71420000D03*
X56800000Y-71420000D03*
X56800000Y-74620000D03*
%TD*%
D10*
%TO.C,C91*%
X131862500Y-77000000D03*
X130137500Y-77000000D03*
%TD*%
%TO.C,C226*%
X59862500Y-149000000D03*
X58137500Y-149000000D03*
%TD*%
%TO.C,C60*%
X139862500Y-61000000D03*
X138137500Y-61000000D03*
%TD*%
D11*
%TO.C,D185*%
X117200000Y-122620000D03*
X117200000Y-119420000D03*
X112800000Y-119420000D03*
X112800000Y-122620000D03*
%TD*%
D10*
%TO.C,C235*%
X131862500Y-149000000D03*
X130137500Y-149000000D03*
%TD*%
%TO.C,C228*%
X75862500Y-149000000D03*
X74137500Y-149000000D03*
%TD*%
D11*
%TO.C,D144*%
X173200000Y-98620000D03*
X173200000Y-95420000D03*
X168800000Y-95420000D03*
X168800000Y-98620000D03*
%TD*%
D10*
%TO.C,C67*%
X67862500Y-69000000D03*
X66137500Y-69000000D03*
%TD*%
%TO.C,C186*%
X123862500Y-125000000D03*
X122137500Y-125000000D03*
%TD*%
D11*
%TO.C,D220*%
X141200000Y-138620000D03*
X141200000Y-135420000D03*
X136800000Y-135420000D03*
X136800000Y-138620000D03*
%TD*%
%TO.C,D122*%
X125200000Y-90620000D03*
X125200000Y-87420000D03*
X120800000Y-87420000D03*
X120800000Y-90620000D03*
%TD*%
%TO.C,D182*%
X93200000Y-122620000D03*
X93200000Y-119420000D03*
X88800000Y-119420000D03*
X88800000Y-122620000D03*
%TD*%
D13*
%TO.C,C193*%
X55245000Y-133122500D03*
X55245000Y-134847500D03*
%TD*%
D11*
%TO.C,D170*%
X125200000Y-114620000D03*
X125200000Y-111420000D03*
X120800000Y-111420000D03*
X120800000Y-114620000D03*
%TD*%
D10*
%TO.C,C127*%
X163862500Y-93000000D03*
X162137500Y-93000000D03*
%TD*%
D11*
%TO.C,D6*%
X93200000Y-34620000D03*
X93200000Y-31420000D03*
X88800000Y-31420000D03*
X88800000Y-34620000D03*
%TD*%
%TO.C,D24*%
X109200000Y-42620000D03*
X109200000Y-39420000D03*
X104800000Y-39420000D03*
X104800000Y-42620000D03*
%TD*%
%TO.C,D108*%
X141200000Y-82620000D03*
X141200000Y-79420000D03*
X136800000Y-79420000D03*
X136800000Y-82620000D03*
%TD*%
D10*
%TO.C,C108*%
X139862500Y-85000000D03*
X138137500Y-85000000D03*
%TD*%
%TO.C,C211*%
X67862500Y-141000000D03*
X66137500Y-141000000D03*
%TD*%
%TO.C,C223*%
X163862500Y-141000000D03*
X162137500Y-141000000D03*
%TD*%
D11*
%TO.C,D103*%
X101200000Y-82620000D03*
X101200000Y-79420000D03*
X96800000Y-79420000D03*
X96800000Y-82620000D03*
%TD*%
%TO.C,D198*%
X93200000Y-130620000D03*
X93200000Y-127420000D03*
X88800000Y-127420000D03*
X88800000Y-130620000D03*
%TD*%
%TO.C,D231*%
X101200000Y-146620000D03*
X101200000Y-143420000D03*
X96800000Y-143420000D03*
X96800000Y-146620000D03*
%TD*%
D10*
%TO.C,C134*%
X91862500Y-101000000D03*
X90137500Y-101000000D03*
%TD*%
%TO.C,C178*%
X59862500Y-125000000D03*
X58137500Y-125000000D03*
%TD*%
D11*
%TO.C,D29*%
X149200000Y-42620000D03*
X149200000Y-39420000D03*
X144800000Y-39420000D03*
X144800000Y-42620000D03*
%TD*%
%TO.C,D226*%
X61200000Y-146620000D03*
X61200000Y-143420000D03*
X56800000Y-143420000D03*
X56800000Y-146620000D03*
%TD*%
D10*
%TO.C,C55*%
X99862500Y-61000000D03*
X98137500Y-61000000D03*
%TD*%
D11*
%TO.C,D213*%
X85200000Y-138620000D03*
X85200000Y-135420000D03*
X80800000Y-135420000D03*
X80800000Y-138620000D03*
%TD*%
D10*
%TO.C,C4*%
X75862500Y-37000000D03*
X74137500Y-37000000D03*
%TD*%
D11*
%TO.C,D135*%
X101200000Y-98620000D03*
X101200000Y-95420000D03*
X96800000Y-95420000D03*
X96800000Y-98620000D03*
%TD*%
D10*
%TO.C,C192*%
X171862500Y-125000000D03*
X170137500Y-125000000D03*
%TD*%
D11*
%TO.C,D81*%
X53200000Y-74620000D03*
X53200000Y-71420000D03*
X48800000Y-71420000D03*
X48800000Y-74620000D03*
%TD*%
D10*
%TO.C,C141*%
X147862500Y-101000000D03*
X146137500Y-101000000D03*
%TD*%
%TO.C,C74*%
X123862500Y-69000000D03*
X122137500Y-69000000D03*
%TD*%
D11*
%TO.C,D224*%
X173200000Y-138620000D03*
X173200000Y-135420000D03*
X168800000Y-135420000D03*
X168800000Y-138620000D03*
%TD*%
D10*
%TO.C,C53*%
X83862500Y-61000000D03*
X82137500Y-61000000D03*
%TD*%
D11*
%TO.C,D95*%
X165200000Y-74620000D03*
X165200000Y-71420000D03*
X160800000Y-71420000D03*
X160800000Y-74620000D03*
%TD*%
D10*
%TO.C,C112*%
X171862500Y-85000000D03*
X170137500Y-85000000D03*
%TD*%
D11*
%TO.C,D215*%
X101200000Y-138620000D03*
X101200000Y-135420000D03*
X96800000Y-135420000D03*
X96800000Y-138620000D03*
%TD*%
D10*
%TO.C,C183*%
X99862500Y-125000000D03*
X98137500Y-125000000D03*
%TD*%
%TO.C,C16*%
X171862500Y-37000000D03*
X170137500Y-37000000D03*
%TD*%
%TO.C,C250*%
X123862500Y-157000000D03*
X122137500Y-157000000D03*
%TD*%
D11*
%TO.C,D64*%
X173200000Y-58620000D03*
X173200000Y-55420000D03*
X168800000Y-55420000D03*
X168800000Y-58620000D03*
%TD*%
%TO.C,D131*%
X69200000Y-98620000D03*
X69200000Y-95420000D03*
X64800000Y-95420000D03*
X64800000Y-98620000D03*
%TD*%
D10*
%TO.C,C253*%
X147862500Y-157000000D03*
X146137500Y-157000000D03*
%TD*%
D11*
%TO.C,D44*%
X141200000Y-50620000D03*
X141200000Y-47420000D03*
X136800000Y-47420000D03*
X136800000Y-50620000D03*
%TD*%
%TO.C,D75*%
X133200000Y-66620000D03*
X133200000Y-63420000D03*
X128800000Y-63420000D03*
X128800000Y-66620000D03*
%TD*%
D10*
%TO.C,C169*%
X115862500Y-117000000D03*
X114137500Y-117000000D03*
%TD*%
%TO.C,C6*%
X91862500Y-37000000D03*
X90137500Y-37000000D03*
%TD*%
D11*
%TO.C,D187*%
X133200000Y-122620000D03*
X133200000Y-119420000D03*
X128800000Y-119420000D03*
X128800000Y-122620000D03*
%TD*%
D10*
%TO.C,C126*%
X155862500Y-93000000D03*
X154137500Y-93000000D03*
%TD*%
D11*
%TO.C,D169*%
X117200000Y-114620000D03*
X117200000Y-111420000D03*
X112800000Y-111420000D03*
X112800000Y-114620000D03*
%TD*%
D10*
%TO.C,C98*%
X59862500Y-85000000D03*
X58137500Y-85000000D03*
%TD*%
%TO.C,C54*%
X91862500Y-61000000D03*
X90137500Y-61000000D03*
%TD*%
D11*
%TO.C,D183*%
X101200000Y-122620000D03*
X101200000Y-119420000D03*
X96800000Y-119420000D03*
X96800000Y-122620000D03*
%TD*%
D10*
%TO.C,C165*%
X83862500Y-117000000D03*
X82137500Y-117000000D03*
%TD*%
D11*
%TO.C,D142*%
X157200000Y-98620000D03*
X157200000Y-95420000D03*
X152800000Y-95420000D03*
X152800000Y-98620000D03*
%TD*%
%TO.C,D90*%
X125200000Y-74620000D03*
X125200000Y-71420000D03*
X120800000Y-71420000D03*
X120800000Y-74620000D03*
%TD*%
%TO.C,D188*%
X141200000Y-122620000D03*
X141200000Y-119420000D03*
X136800000Y-119420000D03*
X136800000Y-122620000D03*
%TD*%
D10*
%TO.C,C153*%
X115862500Y-109000000D03*
X114137500Y-109000000D03*
%TD*%
D11*
%TO.C,D138*%
X125200000Y-98620000D03*
X125200000Y-95420000D03*
X120800000Y-95420000D03*
X120800000Y-98620000D03*
%TD*%
D10*
%TO.C,C21*%
X83862500Y-45000000D03*
X82137500Y-45000000D03*
%TD*%
D11*
%TO.C,D88*%
X109200000Y-74620000D03*
X109200000Y-71420000D03*
X104800000Y-71420000D03*
X104800000Y-74620000D03*
%TD*%
D10*
%TO.C,C5*%
X83862500Y-37000000D03*
X82137500Y-37000000D03*
%TD*%
D11*
%TO.C,D208*%
X173200000Y-130620000D03*
X173200000Y-127420000D03*
X168800000Y-127420000D03*
X168800000Y-130620000D03*
%TD*%
%TO.C,D214*%
X93200000Y-138620000D03*
X93200000Y-135420000D03*
X88800000Y-135420000D03*
X88800000Y-138620000D03*
%TD*%
%TO.C,D124*%
X141200000Y-90620000D03*
X141200000Y-87420000D03*
X136800000Y-87420000D03*
X136800000Y-90620000D03*
%TD*%
D10*
%TO.C,C154*%
X123862500Y-109000000D03*
X122137500Y-109000000D03*
%TD*%
D11*
%TO.C,D194*%
X61200000Y-130620000D03*
X61200000Y-127420000D03*
X56800000Y-127420000D03*
X56800000Y-130620000D03*
%TD*%
%TO.C,D160*%
X173200000Y-106620000D03*
X173200000Y-103420000D03*
X168800000Y-103420000D03*
X168800000Y-106620000D03*
%TD*%
D10*
%TO.C,C176*%
X171862500Y-117000000D03*
X170137500Y-117000000D03*
%TD*%
D11*
%TO.C,D77*%
X149200000Y-66620000D03*
X149200000Y-63420000D03*
X144800000Y-63420000D03*
X144800000Y-66620000D03*
%TD*%
D10*
%TO.C,C121*%
X115862500Y-93000000D03*
X114137500Y-93000000D03*
%TD*%
%TO.C,C42*%
X123862500Y-53000000D03*
X122137500Y-53000000D03*
%TD*%
%TO.C,C129*%
X51862500Y-101000000D03*
X50137500Y-101000000D03*
%TD*%
%TO.C,C254*%
X155862500Y-157000000D03*
X154137500Y-157000000D03*
%TD*%
%TO.C,C146*%
X59862500Y-109000000D03*
X58137500Y-109000000D03*
%TD*%
D11*
%TO.C,D112*%
X173200000Y-82620000D03*
X173200000Y-79420000D03*
X168800000Y-79420000D03*
X168800000Y-82620000D03*
%TD*%
D10*
%TO.C,C79*%
X163862500Y-69000000D03*
X162137500Y-69000000D03*
%TD*%
D11*
%TO.C,D54*%
X93200000Y-58620000D03*
X93200000Y-55420000D03*
X88800000Y-55420000D03*
X88800000Y-58620000D03*
%TD*%
%TO.C,D86*%
X93200000Y-74620000D03*
X93200000Y-71420000D03*
X88800000Y-71420000D03*
X88800000Y-74620000D03*
%TD*%
D10*
%TO.C,C38*%
X91862500Y-53000000D03*
X90137500Y-53000000D03*
%TD*%
D11*
%TO.C,D234*%
X125200000Y-146620000D03*
X125200000Y-143420000D03*
X120800000Y-143420000D03*
X120800000Y-146620000D03*
%TD*%
D10*
%TO.C,C209*%
X51862500Y-141000000D03*
X50137500Y-141000000D03*
%TD*%
%TO.C,C191*%
X163862500Y-125000000D03*
X162137500Y-125000000D03*
%TD*%
%TO.C,C181*%
X83862500Y-125000000D03*
X82137500Y-125000000D03*
%TD*%
%TO.C,C109*%
X147862500Y-85000000D03*
X146137500Y-85000000D03*
%TD*%
D11*
%TO.C,D219*%
X133200000Y-138620000D03*
X133200000Y-135420000D03*
X128800000Y-135420000D03*
X128800000Y-138620000D03*
%TD*%
%TO.C,D83*%
X69200000Y-74620000D03*
X69200000Y-71420000D03*
X64800000Y-71420000D03*
X64800000Y-74620000D03*
%TD*%
%TO.C,D227*%
X69200000Y-146620000D03*
X69200000Y-143420000D03*
X64800000Y-143420000D03*
X64800000Y-146620000D03*
%TD*%
D10*
%TO.C,C71*%
X99862500Y-69000000D03*
X98137500Y-69000000D03*
%TD*%
M02*
